<svg preserveAspectRatio="none" width="100%" height="100%" overflow="visible" style="display: block;" viewBox="0 0 148.582 280.005" fill="none" xmlns="http://www.w3.org/2000/svg">
<g id="Group">
<g id="Group_2">
<path id="Vector" d="M75.56 96.3175C72.3603 87.3132 66.756 79.1354 65.0027 69.7428C63.0929 59.4924 66.0297 48.8914 70.5444 39.4926C78.384 23.1746 91.1203 9.2548 106.674 0C109.329 11.0331 112.78 21.1959 113.612 32.5108C114.101 39.1607 114.264 45.9358 112.686 52.4105C110.55 61.1831 105.328 68.9539 99.0163 75.4097C92.7108 81.8592 82.9237 91.089 75.56 96.3175Z" fill="var(--fill-0, #2C750C)"/>
<path id="Vector_2" d="M88.3902 164.445C87.6388 149.78 95.4659 135.434 107.019 126.374C118.572 117.313 133.431 113.162 148.108 112.648C148.052 120.287 149.536 128.384 147.519 135.754C144.533 146.662 135.184 154.921 124.808 159.417C114.426 163.919 99.63 163.193 88.3902 164.445Z" fill="var(--fill-0, #2C750C)"/>
<path id="Vector_3" d="M82.3289 120.074C83.3996 109.192 87.8642 98.6656 94.94 90.325C102.016 81.9844 111.671 75.8667 122.235 73.0365C128.177 71.446 134.339 70.8762 140.469 70.3126C139.129 77.8392 139.31 85.1341 137.35 92.5229C135.391 99.9117 131.846 107.188 125.798 111.859C121.746 114.984 116.818 116.768 111.859 118.021C102.88 120.287 91.5774 119.611 82.3289 120.074Z" fill="var(--fill-0, #2C750C)"/>
<path id="Vector_4" d="M66.6057 175.91C64.9777 172.76 61.4461 171.013 57.9583 170.381C54.4706 169.755 50.8889 170.036 47.351 169.824C36.512 169.185 26.1489 163.756 19.0105 155.578C11.8722 147.4 7.92107 136.624 7.49527 125.779C22.8615 124.088 38.4281 128.841 50.0623 139.016C53.4061 141.94 56.4743 145.234 58.7598 149.047C63.3309 156.661 65.8042 167.075 66.6057 175.91Z" fill="var(--fill-0, #2C750C)"/>
<path id="Vector_5" d="M68.6345 130.65C66.756 127.476 63.4686 125.334 59.9996 124.076C56.5307 122.817 52.8363 122.335 49.1919 121.759C40.9578 120.463 32.7299 118.622 25.1783 115.096C17.6204 111.571 10.7326 106.242 6.42451 99.104C0.594868 89.4296 0.018791 77.57 5.9174e-06 66.2739C11.3525 67.1881 23.018 68.7598 33.2935 73.6627C43.5689 78.5656 52.7674 86.0859 58.6346 95.8479C64.8024 106.111 66.5369 118.866 68.6345 130.65Z" fill="var(--fill-0, #2C750C)"/>
<path id="Vector_6" d="M77.7892 203.336C76.9125 182.335 76.0359 161.327 75.1592 140.325C74.4892 124.289 73.8192 108.183 75.4285 92.2161C77.0378 76.2488 81.0077 60.3002 89.0727 46.418" stroke="var(--stroke-0, #2C0000)" stroke-width="1.94932" stroke-miterlimit="10" stroke-linecap="round" stroke-linejoin="round"/>
<path id="Vector_7" d="M77.4761 196.411C74.4016 184.019 66.6809 173.199 57.5325 164.301C48.3779 155.403 37.7581 148.189 27.4263 140.694" stroke="var(--stroke-0, #2C0000)" stroke-width="1.94932" stroke-miterlimit="10" stroke-linecap="round" stroke-linejoin="round"/>
<path id="Vector_8" d="M77.2256 183.343C85.5599 165.109 98.6406 149.066 114.821 137.225" stroke="var(--stroke-0, #2C0000)" stroke-width="1.94932" stroke-miterlimit="10" stroke-linecap="round" stroke-linejoin="round"/>
<path id="Vector_9" d="M75.322 149.342C73.9319 138.922 69.0729 129.21 62.8425 120.744C56.6121 112.279 49.0229 104.921 41.4713 97.6074" stroke="var(--stroke-0, #2C0000)" stroke-width="1.94932" stroke-miterlimit="10" stroke-linecap="round" stroke-linejoin="round"/>
<path id="Vector_10" d="M74.6646 135.253C79.5299 122.51 87.9769 111.164 98.7784 102.836C100.563 101.458 102.423 100.156 103.982 98.5341" stroke="var(--stroke-0, #2C0000)" stroke-width="1.94932" stroke-miterlimit="10" stroke-linecap="round" stroke-linejoin="round"/>
</g>
<path id="Vector_11" d="M23.5378 201.714H124.796L100.262 280.005H56.9439L23.5378 201.714Z" fill="var(--fill-0, #FF6C37)"/>
<path id="Vector_12" d="M28.6285 212.284H122.185" stroke="var(--stroke-0, #2C0000)" stroke-width="1.94932" stroke-miterlimit="10" stroke-linecap="round" stroke-linejoin="round"/>
</g>
</svg>
