<svg preserveAspectRatio="none" width="100%" height="100%" overflow="visible" style="display: block;" viewBox="0 0 143.147 179.539" fill="none" xmlns="http://www.w3.org/2000/svg">
<g id="Group">
<path id="Vector" d="M0 27.3709L3.98064 36.3353L80.1303 9.95161L75.1545 0L0 27.3709Z" fill="var(--fill-0, #2C0000)"/>
<g id="Group_2">
<path id="Vector_2" d="M63.2046 77.4712C72.7327 77.4712 80.4567 69.7471 80.4567 60.2191C80.4567 50.691 72.7327 42.967 63.2046 42.967C53.6765 42.967 45.9525 50.691 45.9525 60.2191C45.9525 69.7471 53.6765 77.4712 63.2046 77.4712Z" fill="var(--fill-0, #FF8A00)"/>
<g id="Group_3">
<path id="Vector_3" d="M62.8702 30.0299V39.3207" stroke="var(--stroke-0, #FF8A00)" stroke-width="1.94932" stroke-miterlimit="10"/>
<path id="Vector_4" d="M62.8702 81.7862V91.077" stroke="var(--stroke-0, #FF8A00)" stroke-width="1.94932" stroke-miterlimit="10"/>
</g>
<g id="Group_4">
<path id="Vector_5" d="M84.4612 38.9704L77.8932 45.5385" stroke="var(--stroke-0, #FF8A00)" stroke-width="1.94932" stroke-miterlimit="10"/>
<path id="Vector_6" d="M47.8552 75.5684L41.2872 82.1365" stroke="var(--stroke-0, #FF8A00)" stroke-width="1.94932" stroke-miterlimit="10"/>
</g>
<g id="Group_5">
<path id="Vector_7" d="M93.4017 60.5535H84.1109" stroke="var(--stroke-0, #FF8A00)" stroke-width="1.94932" stroke-miterlimit="10"/>
<path id="Vector_8" d="M41.6375 60.5535H32.3467" stroke="var(--stroke-0, #FF8A00)" stroke-width="1.94932" stroke-miterlimit="10"/>
</g>
<g id="Group_6">
<path id="Vector_9" d="M84.4612 82.1365L77.8932 75.5684" stroke="var(--stroke-0, #FF8A00)" stroke-width="1.94932" stroke-miterlimit="10"/>
<path id="Vector_10" d="M47.8552 45.5385L41.2872 38.9704" stroke="var(--stroke-0, #FF8A00)" stroke-width="1.94932" stroke-miterlimit="10"/>
</g>
</g>
<path id="Vector_11" d="M40.9767 112.31L112.644 82.455" stroke="var(--stroke-0, #2C0000)" stroke-width="1.94932" stroke-miterlimit="10" stroke-linecap="round" stroke-linejoin="round"/>
<path id="Vector_12" d="M44.7902 121.768L116.458 91.905" stroke="var(--stroke-0, #2C0000)" stroke-width="1.94932" stroke-miterlimit="10" stroke-linecap="round" stroke-linejoin="round"/>
<path id="Vector_13" d="M48.7708 131.393L120.438 101.53" stroke="var(--stroke-0, #2C0000)" stroke-width="1.94932" stroke-miterlimit="10" stroke-linecap="round" stroke-linejoin="round"/>
<path id="Vector_14" d="M53.253 142.507L124.92 112.644" stroke="var(--stroke-0, #2C0000)" stroke-width="1.94932" stroke-miterlimit="10" stroke-linecap="round" stroke-linejoin="round"/>
<path id="Vector_15" d="M75.3217 143.797C75.3217 143.797 66.9783 159.544 73.2358 170.594C79.4934 181.645 90.5277 180.705 95.7583 177.051C100.981 173.405 101.076 161.773 95.4637 156.081C89.851 150.404 75.3217 143.797 75.3217 143.797Z" fill="var(--fill-0, #C5B55B)"/>
<g id="Group_7">
<path id="Vector_16" d="M102.693 140.182L133.216 126.584" stroke="var(--stroke-0, #2C0000)" stroke-width="1.94932" stroke-miterlimit="10" stroke-linecap="round" stroke-linejoin="round"/>
<path id="Vector_17" d="M106.004 150.142L138.192 134.872" stroke="var(--stroke-0, #2C0000)" stroke-width="1.94932" stroke-miterlimit="10" stroke-linecap="round" stroke-linejoin="round"/>
<path id="Vector_18" d="M111.315 160.754L142.173 146.488" stroke="var(--stroke-0, #2C0000)" stroke-width="1.94932" stroke-miterlimit="10" stroke-linecap="round" stroke-linejoin="round"/>
</g>
</g>
</svg>
