<svg preserveAspectRatio="none" width="100%" height="100%" overflow="visible" style="display: block;" viewBox="0 0 278.288 318.021" fill="none" xmlns="http://www.w3.org/2000/svg">
<g id="Group">
<path id="Vector" d="M79.7016 75.1466C79.7016 75.1466 2.55682 55.737 0.0729023 75.1466C-2.41898 94.5562 59.7984 112.971 59.7984 112.971L79.7016 75.1466Z" fill="var(--fill-0, #FF8F68)"/>
<path id="Vector_2" d="M278.288 181.119V318.021L237.956 296.621C237.956 296.621 210.099 308.571 189.185 299.113C179.202 294.591 166.281 286.909 155.501 280.11C152.595 278.279 149.864 276.519 147.388 274.903C141.537 271.105 137.079 268.08 135.303 266.854C134.738 266.48 134.443 266.273 134.443 266.273L132.883 264.418L125.63 255.78L122.979 252.643L118.768 247.612L115.472 243.711L105.743 232.135L105.568 231.92L108.593 228.544L109.174 227.9L110.56 226.339L113.856 222.677L120.424 215.369L121.029 214.684L121.283 214.413L133.034 201.317L150.581 181.764L163.407 167.473L168.573 161.702L175.237 154.274C175.237 154.274 174.091 151.002 172.371 145.524C171.376 142.348 170.205 138.431 168.964 133.964C168.088 130.828 167.172 127.412 166.273 123.806C165.453 120.589 164.656 117.214 163.876 113.751C159.513 93.9431 156.313 70.9668 159.919 54.885C160.429 52.6798 161.05 50.6178 161.83 48.7071C163.176 45.2598 165.007 42.3301 167.363 40.0532C170.309 37.211 175.157 38.0867 176.837 41.8285C185.3 60.9515 214.072 121.593 253.894 159.759C262.341 167.848 270.534 174.925 278.288 181.119Z" fill="var(--fill-0, #FF8F68)"/>
<g id="Group_2">
<path id="Vector_3" d="M22.3724 34.0664V49.4396L138.098 287.331L248.25 241.545L250.009 232.804L22.3724 34.0664Z" fill="var(--fill-0, #968218)"/>
<path id="Vector_4" d="M22.3724 34.0663L140.574 277.713L250.009 232.804L138.512 1.93787e-05L22.3724 34.0663Z" fill="var(--fill-0, #2C0000)"/>
<path id="Vector_5" d="M37.3954 41.5102L141.035 255.119L236.969 215.743L139.22 11.6474L37.3954 41.5102Z" fill="var(--fill-0, #FFE5C8)"/>
</g>
<g id="Group_3">
<path id="Vector_6" d="M53.9867 115.279C53.9867 115.279 27.6508 119.045 35.8509 141.353C44.051 163.66 68.0304 171.868 68.0304 171.868L67.5766 176.35C67.5766 176.35 26.7352 173.795 47.4664 204.438C47.4664 204.438 60.1169 224.214 97.0174 230.79C97.0174 230.79 76.2146 240.47 81.883 258.821C87.5514 277.18 124.325 271.312 130.256 267.762C136.187 264.211 134.037 248.806 127.541 246.386C121.045 243.965 118.561 244.491 118.561 244.491L114.946 232.087C114.946 232.087 125.089 226.005 119.468 212.63C113.848 199.255 94.1354 194.319 94.1354 194.319L85.2984 174.838C85.2984 174.838 96.3885 172.561 94.2628 159.648C92.1371 146.726 66.6372 136.05 66.6372 136.05L53.9867 115.279Z" fill="var(--fill-0, #FF8F68)"/>
<path id="Vector_7" d="M63.1501 134.267C63.1501 134.267 96.4044 148.932 94.3026 162.139C92.6387 172.632 87.4957 177.473 68.0304 171.876" stroke="var(--stroke-0, #2C0000)" stroke-width="1.94932" stroke-miterlimit="10" stroke-linecap="round" stroke-linejoin="round"/>
<path id="Vector_8" d="M73.8182 178.285C73.8182 178.285 40.6277 169.679 42.3632 192.806C44.0988 215.934 80.5535 226.745 87.2887 228.664C94.0319 230.583 117.008 237.644 121.076 223.577C125.32 208.936 108.951 199.151 82.297 188.483" stroke="var(--stroke-0, #2C0000)" stroke-width="1.94932" stroke-miterlimit="10" stroke-linecap="round" stroke-linejoin="round"/>
<path id="Vector_9" d="M102.789 242.676C102.789 242.676 130.001 243.05 132.748 251.314C135.486 259.578 136.274 271.185 115.376 271.408C94.4778 271.631 81.1506 267.125 81.3337 252.858" stroke="var(--stroke-0, #2C0000)" stroke-width="1.94932" stroke-miterlimit="10" stroke-linecap="round" stroke-linejoin="round"/>
<path id="Vector_10" d="M87.3365 154.52C86.0149 159.711 84.5262 164.862 82.8782 169.957C82.8782 169.957 58.4132 167.991 60.8891 155.277C64.4239 137.069 87.3365 154.52 87.3365 154.52Z" stroke="var(--stroke-0, #2C0000)" stroke-width="1.94932" stroke-miterlimit="10" stroke-linecap="round" stroke-linejoin="round"/>
<path id="Vector_11" d="M109.604 228.672L116.395 212.343C116.395 212.343 95.672 197.965 90.1389 208.307C80.6411 226.076 109.604 228.672 109.604 228.672Z" stroke="var(--stroke-0, #2C0000)" stroke-width="1.94932" stroke-miterlimit="10" stroke-linecap="round" stroke-linejoin="round"/>
<path id="Vector_12" d="M125.455 252.723L126.275 267.316C126.275 267.316 105.098 272.849 103.323 261.918C101.547 250.987 125.455 252.723 125.455 252.723Z" stroke="var(--stroke-0, #2C0000)" stroke-width="1.94932" stroke-miterlimit="10" stroke-linecap="round" stroke-linejoin="round"/>
</g>
</g>
</svg>
