<svg preserveAspectRatio="none" width="100%" height="100%" overflow="visible" style="display: block;" viewBox="0 0 23.75 27.1429" fill="none" xmlns="http://www.w3.org/2000/svg">
<g id="Group 238479">
<path id="Vector" d="M6.78571 17.8125H10.1786V27.1429H13.5714V22.9018H16.9643C18.764 22.9018 20.4899 22.1869 21.7625 20.9143C23.0351 19.6417 23.75 17.9158 23.75 16.1161V12.7232H16.9643C15.7722 12.7229 14.6014 13.039 13.5714 13.6393V10.1786H16.9643C18.764 10.1786 20.4899 9.46366 21.7625 8.19109C23.0351 6.91852 23.75 5.19254 23.75 3.39286V0H16.9643C15.1646 0 13.4386 0.714922 12.1661 1.98749C10.8935 3.26006 10.1786 4.98603 10.1786 6.78572V8.55001C9.14862 7.94975 7.97781 7.63363 6.78571 7.63393H0V11.0268C0 12.8265 0.714921 14.5525 1.98749 15.825C3.26006 17.0976 4.98603 17.8125 6.78571 17.8125ZM16.9643 16.1161H20.3571C20.3571 17.0159 19.9997 17.8789 19.3634 18.5152C18.7271 19.1515 17.8641 19.5089 16.9643 19.5089H13.5714C13.5714 18.6091 13.9289 17.7461 14.5652 17.1098C15.2015 16.4735 16.0644 16.1161 16.9643 16.1161ZM16.9643 3.39286H20.3571C20.3571 4.2927 19.9997 5.15569 19.3634 5.79197C18.7271 6.42826 17.8641 6.78572 16.9643 6.78572H13.5714C13.5714 5.88588 13.9289 5.02289 14.5652 4.38661C15.2015 3.75032 16.0644 3.39286 16.9643 3.39286ZM6.78571 11.0268C7.68556 11.0268 8.54854 11.3843 9.18483 12.0205C9.82111 12.6568 10.1786 13.5198 10.1786 14.4197H6.78571C5.88587 14.4197 5.02289 14.0622 4.3866 13.4259C3.75032 12.7896 3.39286 11.9266 3.39286 11.0268H6.78571Z" fill="var(--fill-0, #FFFEE7)"/>
</g>
</svg>
