<svg width="380" height="232" viewBox="0 0 380 232" fill="none" xmlns="http://www.w3.org/2000/svg">
<rect width="380" height="232" rx="11.4399" fill="#FFE2ED"/>
<mask id="mask0_4_2499" style="mask-type:alpha" maskUnits="userSpaceOnUse" x="0" y="0" width="380" height="232">
<rect width="380" height="232" rx="11.4399" fill="#FFEDC1"/>
</mask>
<g mask="url(#mask0_4_2499)">
<g clip-path="url(#clip0_4_2499)">
<path d="M382.977 132.342V235.87L358.08 249.491L268.695 258.433H142.282V149.042L161.01 140.105C161.01 139.593 142.282 131.317 142.298 130.805C142.335 127.789 142.488 124.805 142.747 121.842C143.397 114.178 144.786 106.716 146.808 99.5381C148.007 95.2864 149.433 91.151 151.087 87.1106C156.352 74.1075 163.826 62.2399 173.042 51.9779C178.931 45.4289 185.522 39.5241 192.694 34.401C212.4 20.2783 236.542 11.9863 262.627 11.9863C295.858 11.9863 325.942 25.4541 347.723 47.2299C357.087 56.594 364.914 67.4845 370.777 79.5C372.129 82.2464 351.837 85.7427 352.973 88.6C354.108 91.4573 376.671 93.6703 377.59 96.6332C381.091 107.909 382.977 119.898 382.977 132.342Z" fill="#A7A2EC"/>
<g opacity="0.5">
<path d="M370.778 79.4998C373.477 84.9873 375.753 90.7019 377.591 96.6278L268.016 96.7281C277.042 88.8639 290.172 86.0383 301.622 89.503C305.462 90.6649 309.175 92.4923 313.188 92.7036C319.315 93.031 324.903 89.6139 330.417 86.9414C342.881 80.9047 356.988 78.3114 370.778 79.4998Z" fill="#FFE5C8"/>
<path d="M261.597 149.718C260.847 149.718 259.97 149.892 259.22 149.892H142.282V132.336C142.282 131.824 142.282 131.312 142.293 130.799C150.558 126.838 160.921 127.351 168.637 132.363C170.66 133.678 172.561 135.299 174.901 135.938C178.54 136.952 182.327 135.389 185.876 134.111C211.401 125.011 241.76 131.275 261.597 149.718Z" fill="#FFE5C8"/>
<path d="M313.811 45.8196H198.209C204.462 38.7794 214.048 34.8288 223.465 35.415C232.681 35.9802 241.444 40.6015 250.66 40.0786C256.549 39.7406 262.089 37.3428 267.788 35.8904C283.553 31.9028 301.072 35.79 313.811 45.8196Z" fill="#FFE5C8"/>
</g>
<path d="M343.762 113.856C331.303 121.747 313.953 120.955 302.26 111.971C297.723 108.48 294.084 103.985 290.223 99.7546C286.368 95.5241 282.127 91.4415 276.877 89.1493C271.632 86.8571 265.168 86.6353 260.451 89.8782C264.529 84.3537 269.498 79.3732 275.974 77.0863C279.343 75.898 282.877 75.2378 286.426 74.8522C289.991 74.4667 293.598 74.3558 297.163 74.7625C304.768 75.6286 311.967 78.8398 318.326 83.1073C329.533 90.6387 338.75 101.323 343.762 113.856Z" fill="#19CE5D"/>
<path d="M194.812 102.358C192.53 97.5257 188.384 93.8181 183.927 90.871C177.129 86.3764 169.027 83.3078 160.925 84.1476C153.574 84.9134 146.845 88.8376 141.437 93.8762C136.023 98.9095 131.771 105.036 127.567 111.115C134.085 118.06 142.942 123.046 152.29 124.873C155.47 125.497 158.749 125.777 161.955 125.296C167.115 124.525 171.805 121.837 175.941 118.657C180.076 115.478 183.784 111.775 187.882 108.543C190.069 106.826 192.049 102.638 194.812 102.358Z" fill="#19CE5D"/>
<path d="M211.312 104.165C208.756 97.5152 201.964 93.7231 196.249 89.4715C186.647 82.3361 178.968 72.4597 175.176 61.115C171.384 49.7703 171.653 36.9784 176.634 26.1038C191.601 30.6828 204.277 42.1966 208.956 57.1327C212.183 67.4317 211.882 78.4542 211.476 89.2391C211.301 93.7178 211.507 99.6912 211.312 104.165Z" fill="#19CE5D"/>
<path d="M235.338 97.0874C235.586 92.9044 234.028 88.8165 232.064 85.1142C230.099 81.4118 227.701 77.9313 226.048 74.081C224.11 69.5653 223.249 64.6482 222.974 59.7417C222.673 54.3757 223.069 48.9252 224.632 43.781C226 39.2864 228.234 35.0981 230.838 31.1898C234.361 25.903 238.581 21.081 243.355 16.8927C248.141 21.3292 251.23 26.9857 253.786 32.9855C255.804 37.7178 257.647 42.5873 258.329 47.6893C259.549 56.8158 256.945 66.1218 252.662 74.2659C248.378 82.4206 241.195 89.9837 235.338 97.0874Z" fill="#19CE5D"/>
<path d="M226.026 136.445C235.887 108.068 239.838 77.6513 237.561 47.6945" stroke="#2C0000" stroke-width="1.78853" stroke-miterlimit="10" stroke-linecap="round" stroke-linejoin="round"/>
<path d="M182.247 42.9096C186.747 59.8316 198.329 73.8541 206.051 89.5666C212.51 102.712 216.25 117.02 219.133 131.38" stroke="#2C0000" stroke-width="1.78853" stroke-miterlimit="10" stroke-linecap="round" stroke-linejoin="round"/>
<path d="M135.643 107.856C144.996 100.362 155.2 92.5347 167.163 91.8639C174.816 91.4361 182.447 94.098 188.775 98.4289C199.084 105.485 206.14 117.099 207.661 129.5" stroke="#2C0000" stroke-width="1.78853" stroke-miterlimit="10" stroke-linecap="round" stroke-linejoin="round"/>
<path d="M235.748 130.108C235.664 121.842 239.736 114.142 244.183 107.175C247.88 101.387 251.984 95.7302 257.376 91.4733C268.589 82.6267 284.433 80.9736 298.097 85.1354C311.76 89.292 323.385 98.6614 332.458 109.695" stroke="#2C0000" stroke-width="1.78853" stroke-miterlimit="10" stroke-linecap="round" stroke-linejoin="round"/>
<path d="M174.631 117.97L194.638 200.542H252.523L268.695 119.249C268.695 119.243 173.992 117.331 174.631 117.97Z" fill="#FF6C37"/>
<path d="M317.238 177.889L308.106 183.372C308.106 183.372 283.141 154.144 283.753 146.232C283.753 146.232 282.232 142.883 285.274 140.449L292.579 147.146C292.579 147.146 291.971 142.883 296.535 142.276C296.535 142.276 296.841 136.794 302.017 136.493C302.017 136.493 301.409 131.317 305.973 128.576C310.541 125.835 315.411 127.662 315.411 127.662L322.108 139.229C322.108 139.229 319.826 146.686 317.391 146.385C317.391 146.385 319.673 150.8 316.937 153.843C314.196 156.885 312.675 155.971 312.675 155.971C312.675 155.971 313.895 160.233 309.934 161.453L318.458 168.758L317.238 177.889Z" fill="#FF9E7C"/>
<path opacity="0.5" d="M317.238 177.889L308.106 183.372C308.106 183.372 283.141 154.144 283.753 146.232C283.753 146.232 282.232 142.883 285.274 140.449L292.579 147.146C292.579 147.146 291.971 142.883 296.535 142.276C296.535 142.276 296.841 136.794 302.017 136.493C302.017 136.493 301.409 131.317 305.973 128.576C310.541 125.835 315.411 127.662 315.411 127.662L322.108 139.229C322.108 139.229 319.826 146.686 317.391 146.385C317.391 146.385 319.673 150.8 316.937 153.843C314.196 156.885 312.675 155.971 312.675 155.971C312.675 155.971 313.895 160.233 309.934 161.453L318.458 168.758L317.238 177.889Z" fill="#402A10"/>
<path d="M296.54 142.271C296.54 142.271 291.744 141.891 292.584 147.14C293.424 152.39 301.182 160.381 304.837 161.295C308.492 162.209 311.46 160.608 311.687 157.872" stroke="#402A10" stroke-width="1.78853" stroke-miterlimit="10" stroke-linecap="round" stroke-linejoin="round"/>
<path d="M302.016 136.488C302.016 136.488 295.625 137.554 297.601 143.644C299.581 149.734 309.473 156.431 312.669 155.971C315.864 155.517 317.538 151.862 315.563 147.6" stroke="#402A10" stroke-width="1.78853" stroke-miterlimit="10" stroke-linecap="round" stroke-linejoin="round"/>
<path d="M314.042 127.356C314.042 127.356 301.562 125.988 302.624 135.727C303.691 145.472 319.065 149.882 319.519 146.079" stroke="#402A10" stroke-width="1.78853" stroke-miterlimit="10" stroke-linecap="round" stroke-linejoin="round"/>
<path d="M337.635 183.678L345.245 157.804C345.245 157.804 352.856 151.714 353.464 146.237C354.071 140.755 319.065 110.312 319.065 110.312L308.412 118.53L321.743 138.679L309.933 161.453L318.458 168.758L318.304 170.279L317.238 177.889L308.106 183.372L290.45 194.331L278.271 232.992L349.508 252.169L355.597 213.508L337.635 183.678Z" fill="#FFE5C8"/>
<path d="M315.415 127.662L326.522 117.464" stroke="#402A10" stroke-width="1.78853" stroke-miterlimit="10" stroke-linecap="round" stroke-linejoin="round"/>
<path d="M320.892 138.922C320.892 138.922 316.936 146.227 324.848 155.364C332.765 164.496 340.983 169.365 340.983 169.365C340.983 169.365 336.721 182.759 337.941 186.72C339.161 190.676 355.597 213.508 355.597 213.508L349.508 252.169L378.429 257.038C378.429 257.038 361.38 156.88 358.338 154.445C355.296 152.01 320.892 138.922 320.892 138.922Z" fill="#FF9E7C"/>
<path opacity="0.5" d="M320.892 138.922C320.892 138.922 316.936 146.227 324.848 155.364C332.765 164.496 340.983 169.365 340.983 169.365C340.983 169.365 336.721 182.759 337.941 186.72C339.161 190.676 355.597 213.508 355.597 213.508L349.508 252.169L378.429 257.038C378.429 257.038 361.38 156.88 358.338 154.445C355.296 152.01 320.892 138.922 320.892 138.922Z" fill="#402A10"/>
<path d="M320.893 138.922C320.893 138.922 317.851 141.664 321.654 149.882C325.462 158.1 340.984 169.365 340.984 169.365L344.486 171.494" stroke="#402A10" stroke-width="1.78853" stroke-miterlimit="10" stroke-linecap="round" stroke-linejoin="round"/>
<path d="M320.132 158.105L317.238 177.889L290.45 194.331L278.271 232.992" stroke="#402A10" stroke-width="1.78853" stroke-miterlimit="10" stroke-linecap="round" stroke-linejoin="round"/>
<path d="M379.575 250.13C379.575 250.13 377.991 249.845 377.658 254.598L268.003 258.433C257.361 253.056 246.212 246.829 236.346 240.127C205.063 218.848 187.185 195.429 184.634 192.028C182.084 188.627 181.022 183.514 181.022 183.514L180.335 182.453L178.899 180.24L178.688 179.902C178.688 179.902 183.362 176.49 189.113 180.963C189.425 181.211 189.752 181.465 190.09 181.75C195.219 186.049 201.905 193.903 203.183 195.392C203.31 195.556 203.373 195.641 203.373 195.641L212.262 199.528L211.047 198.503L211.037 198.493L203.373 192.028L192.309 165.42C192.309 165.42 192.319 165.42 192.346 165.409C192.784 165.335 196.386 164.707 200.247 166.249C200.358 166.286 200.474 166.339 200.585 166.386C203.025 167.437 205.549 169.376 207.414 172.877C212.526 182.453 215.928 187.143 218.278 188.843C220.253 190.28 229.57 194.009 235.733 193.697H235.844C236.922 193.634 237.883 193.449 238.707 193.095C244.231 190.755 247.632 184.792 247.844 180.752C248.055 177.113 252.882 166.075 259.732 164.348C260.493 164.157 261.296 164.084 262.109 164.147C262.109 164.147 253.595 203.943 257.419 212.034C259.231 215.874 268.869 221.013 280.526 225.877C284.365 227.504 288.443 229.088 292.531 230.588C302.106 234.116 311.734 237.18 318.722 239.065C326.813 241.241 339.114 243.581 350.553 245.54C362.004 247.516 372.599 249.105 377.183 249.781C378.715 250.003 379.575 250.13 379.575 250.13Z" fill="#FF9E7C"/>
<path opacity="0.5" d="M379.575 250.13C379.575 250.13 280.526 253.679 280.188 258.433H268.003C257.361 253.056 246.212 246.829 236.346 240.127C205.063 218.848 187.185 195.429 184.634 192.028C182.084 188.627 181.022 183.514 181.022 183.514L180.335 182.453L178.899 180.24L178.688 179.902C178.688 179.902 183.362 176.49 189.113 180.963C189.425 181.211 189.752 181.465 190.09 181.75C195.219 186.049 201.905 193.903 203.183 195.392C203.31 195.556 203.373 195.641 203.373 195.641L212.262 199.528L211.047 198.503L211.037 198.493L203.373 192.028L192.309 165.42C192.309 165.42 192.319 165.42 192.346 165.409C192.784 165.335 196.386 164.707 200.247 166.249C200.358 166.286 200.474 166.339 200.585 166.386C203.025 167.437 205.549 169.376 207.414 172.877C212.526 182.453 215.928 187.143 218.278 188.843C220.253 190.28 229.57 194.009 235.733 193.697H235.844C236.922 193.634 237.883 193.449 238.707 193.095C244.231 190.755 247.632 184.792 247.844 180.752C248.055 177.113 252.882 166.075 259.732 164.348C260.493 164.157 261.296 164.084 262.109 164.147C262.109 164.147 253.595 203.943 257.419 212.034C259.231 215.874 268.869 221.013 280.526 225.877C284.365 227.504 288.443 229.088 292.531 230.588C302.106 234.116 311.734 237.18 318.722 239.065C326.813 241.241 339.114 243.581 350.553 245.54C362.004 247.516 372.599 249.105 377.183 249.781C378.715 250.003 379.575 250.13 379.575 250.13Z" fill="#402A10"/>
<path d="M217.672 202.401L203.359 192.028L192.294 165.425C192.294 165.425 201.552 163.936 206.179 170.796C210.806 177.657 214.001 184.84 217.191 187.555C220.381 190.269 232.513 194.737 238.101 193.459" stroke="#402A10" stroke-width="1.25029" stroke-miterlimit="10" stroke-linecap="round" stroke-linejoin="round"/>
<path d="M206.817 211.184L178.566 180.541C178.566 180.541 182.396 176.284 189.103 180.969C195.805 185.648 203.363 195.651 203.363 195.651L213.366 199.375" stroke="#402A10" stroke-width="1.25029" stroke-miterlimit="10" stroke-linecap="round" stroke-linejoin="round"/>
<path d="M382.978 235.838V258.216L279.877 258.433L289.991 236.139L292.516 230.588L293.493 228.423L305.931 232.574C305.931 232.574 318.385 223.31 345.516 227.784C348.156 228.222 350.692 228.661 353.132 229.11C361.535 230.647 368.686 232.22 374.348 233.609C377.791 234.439 380.68 235.199 382.978 235.838Z" fill="#FF4401"/>
</g>
</g>
<path d="M22.87 64V44.1667H31.4833C32.73 44.1667 33.8161 44.3839 34.7417 44.8183C35.6672 45.2528 36.385 45.8667 36.895 46.66C37.405 47.4533 37.66 48.3883 37.66 49.465V49.805C37.66 50.995 37.3767 51.9583 36.81 52.695C36.2433 53.4317 35.5444 53.97 34.7133 54.31V54.82C35.4689 54.8578 36.0544 55.1222 36.47 55.6133C36.8856 56.0856 37.0933 56.7183 37.0933 57.5117V64H33.3533V58.05C33.3533 57.5967 33.2306 57.2283 32.985 56.945C32.7583 56.6617 32.3711 56.52 31.8233 56.52H26.61V64H22.87ZM26.61 53.12H31.0867C31.9744 53.12 32.6639 52.8839 33.155 52.4117C33.665 51.9206 33.92 51.2783 33.92 50.485V50.2017C33.92 49.4083 33.6744 48.7756 33.1833 48.3033C32.6922 47.8122 31.9933 47.5667 31.0867 47.5667H26.61V53.12ZM39.412 64L44.6254 44.1667H51.142L56.3554 64H52.502L51.4254 59.6367H44.342L43.2654 64H39.412ZM45.2204 56.18H50.547L48.1387 46.5183H47.6287L45.2204 56.18ZM58.1627 64V60.7133H60.7694V47.4533H58.1627V44.1667H68.3627C69.5716 44.1667 70.6199 44.3744 71.5077 44.79C72.4144 45.1867 73.1133 45.7628 73.6044 46.5183C74.1144 47.255 74.3694 48.1428 74.3694 49.1817V49.465C74.3694 50.3717 74.1994 51.1178 73.8594 51.7033C73.5194 52.27 73.1133 52.7139 72.641 53.035C72.1877 53.3372 71.7533 53.5544 71.3377 53.6867V54.1967C71.7533 54.31 72.2066 54.5272 72.6977 54.8483C73.1888 55.1506 73.6044 55.5944 73.9444 56.18C74.3033 56.7656 74.4827 57.5306 74.4827 58.475V58.7583C74.4827 59.8539 74.2277 60.7983 73.7177 61.5917C73.2077 62.3661 72.4994 62.9611 71.5927 63.3767C70.7049 63.7922 69.666 64 68.476 64H58.1627ZM64.5094 60.6H68.0227C68.8349 60.6 69.4866 60.4017 69.9777 60.005C70.4877 59.6083 70.7427 59.0417 70.7427 58.305V58.0217C70.7427 57.285 70.4972 56.7183 70.006 56.3217C69.5149 55.925 68.8538 55.7267 68.0227 55.7267H64.5094V60.6ZM64.5094 52.3267H67.966C68.7405 52.3267 69.3733 52.1283 69.8644 51.7317C70.3744 51.335 70.6294 50.7872 70.6294 50.0883V49.805C70.6294 49.0872 70.3838 48.5394 69.8927 48.1617C69.4016 47.765 68.7594 47.5667 67.966 47.5667H64.5094V52.3267ZM76.9778 64V60.7133H79.5845V47.4533H76.9778V44.1667H87.1778C88.3867 44.1667 89.435 44.3744 90.3228 44.79C91.2295 45.1867 91.9284 45.7628 92.4195 46.5183C92.9295 47.255 93.1845 48.1428 93.1845 49.1817V49.465C93.1845 50.3717 93.0145 51.1178 92.6745 51.7033C92.3345 52.27 91.9284 52.7139 91.4561 53.035C91.0028 53.3372 90.5684 53.5544 90.1528 53.6867V54.1967C90.5684 54.31 91.0217 54.5272 91.5128 54.8483C92.0039 55.1506 92.4195 55.5944 92.7595 56.18C93.1184 56.7656 93.2978 57.5306 93.2978 58.475V58.7583C93.2978 59.8539 93.0428 60.7983 92.5328 61.5917C92.0228 62.3661 91.3145 62.9611 90.4078 63.3767C89.52 63.7922 88.4811 64 87.2911 64H76.9778ZM83.3245 60.6H86.8378C87.65 60.6 88.3017 60.4017 88.7928 60.005C89.3028 59.6083 89.5578 59.0417 89.5578 58.305V58.0217C89.5578 57.285 89.3123 56.7183 88.8211 56.3217C88.33 55.925 87.6689 55.7267 86.8378 55.7267H83.3245V60.6ZM83.3245 52.3267H86.7811C87.5556 52.3267 88.1884 52.1283 88.6795 51.7317C89.1895 51.335 89.4445 50.7872 89.4445 50.0883V49.805C89.4445 49.0872 89.1989 48.5394 88.7078 48.1617C88.2167 47.765 87.5745 47.5667 86.7811 47.5667H83.3245V52.3267ZM96.3596 64V44.1667H100.1V64H96.3596ZM108.42 64V47.5667H102.64V44.1667H117.94V47.5667H112.16V64H108.42ZM22.87 100V80.1667H35.3367V83.5667H26.61V88.355H34.6567V91.755H26.61V100H22.87ZM45.5457 100.397C43.0524 100.397 41.0691 99.7167 39.5957 98.3567C38.1224 96.9778 37.3857 95.0133 37.3857 92.4633V87.7033C37.3857 85.1533 38.1224 83.1983 39.5957 81.8383C41.0691 80.4594 43.0524 79.77 45.5457 79.77C48.0391 79.77 50.0224 80.4594 51.4957 81.8383C52.9691 83.1983 53.7057 85.1533 53.7057 87.7033V92.4633C53.7057 95.0133 52.9691 96.9778 51.4957 98.3567C50.0224 99.7167 48.0391 100.397 45.5457 100.397ZM45.5457 97.0533C46.9435 97.0533 48.0296 96.6472 48.8041 95.835C49.5785 95.0228 49.9657 93.9367 49.9657 92.5767V87.59C49.9657 86.23 49.5785 85.1439 48.8041 84.3317C48.0296 83.5194 46.9435 83.1133 45.5457 83.1133C44.1669 83.1133 43.0807 83.5194 42.2874 84.3317C41.513 85.1439 41.1257 86.23 41.1257 87.59V92.5767C41.1257 93.9367 41.513 95.0228 42.2874 95.835C43.0807 96.6472 44.1669 97.0533 45.5457 97.0533ZM64.6929 100.397C62.1995 100.397 60.2162 99.7167 58.7429 98.3567C57.2695 96.9778 56.5329 95.0133 56.5329 92.4633V87.7033C56.5329 85.1533 57.2695 83.1983 58.7429 81.8383C60.2162 80.4594 62.1995 79.77 64.6929 79.77C67.1862 79.77 69.1695 80.4594 70.6429 81.8383C72.1162 83.1983 72.8529 85.1533 72.8529 87.7033V92.4633C72.8529 95.0133 72.1162 96.9778 70.6429 98.3567C69.1695 99.7167 67.1862 100.397 64.6929 100.397ZM64.6929 97.0533C66.0907 97.0533 67.1768 96.6472 67.9512 95.835C68.7257 95.0228 69.1129 93.9367 69.1129 92.5767V87.59C69.1129 86.23 68.7257 85.1439 67.9512 84.3317C67.1768 83.5194 66.0907 83.1133 64.6929 83.1133C63.314 83.1133 62.2279 83.5194 61.4345 84.3317C60.6601 85.1439 60.2729 86.23 60.2729 87.59V92.5767C60.2729 93.9367 60.6601 95.0228 61.4345 95.835C62.2279 96.6472 63.314 97.0533 64.6929 97.0533ZM79.9209 100V83.5667H74.1409V80.1667H89.4409V83.5667H83.6609V100H79.9209ZM22.87 136V116.167H35.3367V119.567H26.61V124.355H34.6567V127.755H26.61V136H22.87ZM38.0051 136V116.167H50.7551V119.567H41.7451V124.298H49.9618V127.698H41.7451V132.6H50.9251V136H38.0051ZM53.6936 136V116.167H62.3069C63.5536 116.167 64.6397 116.384 65.5652 116.818C66.4908 117.253 67.2086 117.867 67.7186 118.66C68.2286 119.453 68.4836 120.388 68.4836 121.465V121.805C68.4836 122.995 68.2002 123.958 67.6336 124.695C67.0669 125.432 66.368 125.97 65.5369 126.31V126.82C66.2925 126.858 66.878 127.122 67.2936 127.613C67.7091 128.086 67.9169 128.718 67.9169 129.512V136H64.1769V130.05C64.1769 129.597 64.0541 129.228 63.8086 128.945C63.5819 128.662 63.1947 128.52 62.6469 128.52H57.4336V136H53.6936ZM57.4336 125.12H61.9102C62.798 125.12 63.4875 124.884 63.9786 124.412C64.4886 123.921 64.7436 123.278 64.7436 122.485V122.202C64.7436 121.408 64.498 120.776 64.0069 120.303C63.5158 119.812 62.8169 119.567 61.9102 119.567H57.4336V125.12ZM71.5956 136V116.167H78.7073L82.6456 133.45H83.1556V116.167H86.8389V136H79.7273L75.7889 118.717H75.2789V136H71.5956ZM30.4067 172.397C27.9511 172.397 26.0056 171.717 24.57 170.357C23.1344 168.978 22.4167 167.013 22.4167 164.463V159.703C22.4167 157.153 23.1344 155.198 24.57 153.838C26.0056 152.459 27.9511 151.77 30.4067 151.77C32.8433 151.77 34.7228 152.441 36.045 153.782C37.3861 155.104 38.0567 156.927 38.0567 159.25V159.42H34.3733V159.137C34.3733 157.966 34.0428 157.002 33.3817 156.247C32.7394 155.491 31.7478 155.113 30.4067 155.113C29.0844 155.113 28.0456 155.519 27.29 156.332C26.5344 157.144 26.1567 158.249 26.1567 159.647V164.52C26.1567 165.899 26.5344 167.004 27.29 167.835C28.0456 168.647 29.0844 169.053 30.4067 169.053C31.7478 169.053 32.7394 168.676 33.3817 167.92C34.0428 167.146 34.3733 166.182 34.3733 165.03V164.52H38.0567V164.917C38.0567 167.24 37.3861 169.072 36.045 170.413C34.7228 171.736 32.8433 172.397 30.4067 172.397ZM39.5227 172L44.736 152.167H51.2527L56.466 172H52.6127L51.536 167.637H44.4527L43.376 172H39.5227ZM45.331 164.18H50.6577L48.2494 154.518H47.7394L45.331 164.18ZM58.8401 172V152.167H67.4534C68.7001 152.167 69.7862 152.384 70.7117 152.818C71.6373 153.253 72.3551 153.867 72.8651 154.66C73.3751 155.453 73.6301 156.388 73.6301 157.465V157.805C73.6301 158.995 73.3467 159.958 72.7801 160.695C72.2134 161.432 71.5145 161.97 70.6834 162.31V162.82C71.4389 162.858 72.0245 163.122 72.4401 163.613C72.8556 164.086 73.0634 164.718 73.0634 165.512V172H69.3234V166.05C69.3234 165.597 69.2006 165.228 68.9551 164.945C68.7284 164.662 68.3412 164.52 67.7934 164.52H62.5801V172H58.8401ZM62.5801 161.12H67.0567C67.9445 161.12 68.6339 160.884 69.1251 160.412C69.6351 159.921 69.8901 159.278 69.8901 158.485V158.202C69.8901 157.408 69.6445 156.776 69.1534 156.303C68.6623 155.812 67.9634 155.567 67.0567 155.567H62.5801V161.12ZM76.7421 172V152.167H89.4921V155.567H80.4821V160.298H88.6987V163.698H80.4821V168.6H89.6621V172H76.7421Z" fill="black"/>
<defs>
<clipPath id="clip0_4_2499">
<rect width="305.313" height="225.961" fill="white" transform="translate(110 12.0392)"/>
</clipPath>
</defs>
</svg>
