<svg width="28" height="28" viewBox="0 0 28 28" fill="none" xmlns="http://www.w3.org/2000/svg">
<g clip-path="url(#clip0_4_2219)">
<path d="M12.3048 18.3523C12.6096 18.3523 12.9239 18.2666 13.1905 18.1142L17.8382 15.4285C18.3429 15.1333 18.6572 14.5904 18.6572 14.0095C18.6572 13.4285 18.3429 12.8762 17.8382 12.5809L13.2001 9.8952C12.6477 9.58091 11.9715 9.58091 11.4191 9.8952C10.8667 10.2095 10.5239 10.8 10.5334 11.4381V16.5714C10.5334 17.5428 11.3239 18.3428 12.3048 18.3523ZM12.6572 15.9619V12.0381L16.0477 14L12.6572 15.9619Z" fill="black"/>
<path d="M20.181 5H7.97143C6.33333 5 5 6.33333 5 7.97143V20.0381V20.1905C5.08571 21.7714 6.38095 23.0095 7.97143 23.0095H20.0381H20.1905C21.7143 22.9333 22.9238 21.7238 23.0095 20.1905V7.98095C23 6.39048 21.7619 5.08571 20.181 5ZM7.13333 7.97143C7.13333 7.50476 7.51429 7.13333 7.98095 7.12381H20.0381C20.5048 7.12381 20.8762 7.50476 20.8857 7.9619V20.019C20.8857 20.4857 20.5048 20.8571 20.0381 20.8571H7.97143C7.50476 20.8571 7.13333 20.4762 7.12381 20.019V7.97143H7.13333Z" fill="black"/>
</g>
<defs>
<clipPath id="clip0_4_2219">
<rect width="18" height="18" fill="white" transform="translate(5 5)"/>
</clipPath>
</defs>
</svg>
