<svg width="15" height="14" viewBox="0 0 15 14" fill="none" xmlns="http://www.w3.org/2000/svg">
<path d="M10.2511 0.223112H10.2339C9.11421 0.225479 8.02945 0.613325 7.16206 1.32143C6.18387 0.46337 5.25716 1.54448e-05 4.3991 1.54448e-05C3.81631 -0.00154203 3.23922 0.11471 2.70249 0.341788C2.16576 0.568866 1.68046 0.902086 1.27575 1.32143C0.693147 1.93773 0.289459 2.70111 0.108045 3.52956C-0.0733679 4.35802 -0.0256512 5.22024 0.24607 6.02362C0.24607 6.02362 0.24607 6.05794 0.263231 6.05794H2.44271L3.47239 4.44478C3.52038 4.36512 3.58842 4.29942 3.66972 4.25426C3.75102 4.20909 3.84275 4.18602 3.93574 4.18736C4.02253 4.19322 4.10669 4.21962 4.18128 4.26437C4.25587 4.30913 4.31876 4.37096 4.36477 4.44478L5.82348 7.24207L7.38516 4.66788C7.42595 4.602 7.48109 4.54618 7.54646 4.50458C7.61183 4.46298 7.68575 4.43668 7.7627 4.42762C7.8398 4.41994 7.91766 4.42816 7.99146 4.45177C8.06525 4.47539 8.13342 4.5139 8.19173 4.56491L9.61612 5.93781C9.71278 6.03179 9.76872 6.15992 9.77193 6.29469C9.77514 6.42946 9.72536 6.56012 9.63328 6.65859C9.58646 6.70902 9.53001 6.74955 9.46726 6.77779C9.40451 6.80603 9.33673 6.82141 9.26794 6.82301C9.19914 6.82461 9.13073 6.8124 9.06673 6.78711C9.00273 6.76181 8.94446 6.72395 8.89535 6.67575L7.93432 5.74904L6.21819 8.54632C6.17577 8.62329 6.11373 8.68765 6.03837 8.73287C5.96302 8.77808 5.87703 8.80254 5.78916 8.80374H5.772C5.67897 8.79701 5.58919 8.76669 5.51112 8.71565C5.43306 8.6646 5.36928 8.59452 5.3258 8.512L3.84994 5.69755L3.14632 6.81304C3.10122 6.88913 3.03892 6.9536 2.96442 7.00128C2.88992 7.04897 2.80528 7.07853 2.71729 7.08762H0.743747C0.898198 7.25923 1.08697 7.51665 1.29291 7.72258L6.80167 13.0254C6.849 13.0719 6.90546 13.1082 6.96749 13.1318C7.02951 13.1554 7.09576 13.166 7.16206 13.1627C7.29786 13.1608 7.42739 13.1053 7.52245 13.0083L13.0484 7.6711C13.8743 6.82757 14.3369 5.69399 14.3369 4.51343C14.3369 3.33286 13.8743 2.19929 13.0484 1.35576C12.6826 0.988022 12.2463 0.698102 11.7655 0.503449C11.2848 0.308797 10.7696 0.213437 10.2511 0.223112Z" fill="#E49D81"/>
</svg>
