<svg width="28" height="28" viewBox="0 0 28 28" fill="none" xmlns="http://www.w3.org/2000/svg">
<g clip-path="url(#clip0_4_2458)">
<g clip-path="url(#clip1_4_2458)">
<path d="M12.6572 15.9619L16.0477 14L12.6572 12.0381V15.9619Z" fill="#17A308"/>
<path d="M20.181 5H7.97143C6.33333 5 5 6.33333 5 7.97143V20.0381V20.1905C5.08571 21.7714 6.38095 23.0095 7.97143 23.0095H20.0381H20.1905C21.7143 22.9333 22.9238 21.7238 23.0095 20.1905V7.98095C23 6.39048 21.7619 5.08571 20.181 5ZM17.8476 15.419L13.2 18.1048C12.9238 18.2667 12.619 18.3429 12.3048 18.3524C11.3238 18.3524 10.5238 17.5524 10.5238 16.5714V11.4381C10.5238 10.8095 10.8667 10.219 11.4095 9.89524C11.9619 9.58095 12.6381 9.58095 13.1905 9.89524L17.8381 12.581C18.3429 12.8762 18.6571 13.419 18.6571 14.0095C18.6667 14.581 18.3524 15.1333 17.8476 15.419Z" fill="#17A308"/>
</g>
</g>
<defs>
<clipPath id="clip0_4_2458">
<rect width="18" height="18" fill="white" transform="translate(5 5)"/>
</clipPath>
<clipPath id="clip1_4_2458">
<rect width="18" height="18" fill="white" transform="translate(5 5)"/>
</clipPath>
</defs>
</svg>
