<svg width="403" height="627" viewBox="0 0 403 627" fill="none" xmlns="http://www.w3.org/2000/svg">
<path d="M389.095 375.654L389.095 626.213H1.09497L1.09497 402.575L31.2849 388.169C31.2849 387.343 1.09496 374.002 1.12051 373.176C1.1801 368.315 1.42701 363.505 1.84418 358.728C2.89138 346.375 5.13052 334.345 8.3913 322.775C10.3239 315.921 12.6227 309.255 15.2875 302.741C23.7758 281.78 35.8227 262.65 50.6793 246.107C60.1722 235.55 70.7976 226.032 82.3594 217.773C114.124 195.007 153.041 181.641 195.09 181.641C248.659 181.641 297.154 203.351 332.265 238.453C347.36 253.548 359.978 271.104 369.428 290.473C371.608 294.9 338.898 300.536 340.728 305.142C342.558 309.748 378.929 313.316 380.411 318.092C386.056 336.269 389.095 355.595 389.095 375.654Z" fill="#A5BF99"/>
<mask id="mask0_2003_1798" style="mask-type:alpha" maskUnits="userSpaceOnUse" x="1" y="181" width="389" height="446">
<path d="M389.095 375.654V626.213H345.458H208.458H1.09509V402.575L31.285 388.169C31.285 387.343 1.09509 374.002 1.12063 373.176C1.18023 368.315 1.42713 363.505 1.84431 358.728C2.89151 346.375 5.13064 334.345 8.39143 322.775C10.3241 315.921 12.6228 309.255 15.2876 302.741C23.7759 281.78 35.8228 262.65 50.6794 246.107C60.1723 235.55 70.7977 226.032 82.3595 217.773C114.124 195.007 153.041 181.641 195.09 181.641C248.659 181.641 297.155 203.351 332.266 238.453C347.361 253.549 359.978 271.104 369.428 290.473C371.608 294.9 338.898 300.536 340.728 305.142C342.559 309.748 378.93 313.316 380.411 318.092C386.056 336.269 389.095 355.595 389.095 375.654Z" fill="#A5BF99"/>
</mask>
<g mask="url(#mask0_2003_1798)">
<path opacity="0.1" d="M-25.405 573.533C-3.90503 584.2 55.595 618.313 95.595 618.713C145.595 619.213 203.095 548.033 250.595 548.033C304.067 548.033 347.095 618.533 388.095 601.533" stroke="#2B4F1C"/>
<path opacity="0.1" d="M-14.4191 295.713C7.08087 306.379 77.8829 216.312 117.883 216.712C167.883 217.212 159.583 386.849 183.333 345.713C303.422 137.713 291.767 545.213 388.095 185.713" stroke="#2B4F1C"/>
<path opacity="0.1" d="M388.095 625.213C263.095 687.213 247.595 521.813 207.595 522.213C157.595 522.713 99.595 585.714 65.095 576.714C13.3546 563.216 15.595 670.213 -25.405 653.213" stroke="#2B4F1C"/>
<path opacity="0.1" d="M388.095 369.792C208.596 549.291 199.594 523.791 158.025 451.791C133.023 408.488 104.095 319.291 69.595 310.291C17.8546 296.793 15.595 414.792 -25.405 397.792" stroke="#2B4F1C"/>
</g>
<path d="M327.575 46.6406V37.8516H331.823V24.4043H327.575V16.4062L345.593 14.6777V20.6836C346.745 18.5547 348.337 17.002 350.368 16.0254C352.4 15.0488 354.343 14.5605 356.198 14.5605V27.1582C354.441 26.5527 352.829 26.25 351.365 26.25C350.388 26.25 349.363 26.4258 348.288 26.7773C347.214 27.1094 346.413 27.5684 345.886 28.1543V37.8516H352.624V46.6406H327.575Z" fill="black"/>
<path d="M306.013 47.168C302.341 47.168 299.167 46.5137 296.491 45.2051C293.835 43.8965 291.784 42.0312 290.339 39.6094C288.913 37.1875 288.2 34.3066 288.2 30.9668C288.2 27.6074 288.913 24.7168 290.339 22.2949C291.784 19.873 293.835 18.0078 296.491 16.6992C299.167 15.3711 302.341 14.707 306.013 14.707C309.685 14.707 312.849 15.3711 315.505 16.6992C318.181 18.0078 320.232 19.873 321.657 22.2949C323.103 24.7168 323.825 27.6074 323.825 30.9668C323.825 34.3066 323.103 37.1875 321.657 39.6094C320.232 42.0312 318.181 43.8965 315.505 45.2051C312.849 46.5137 309.685 47.168 306.013 47.168ZM306.013 38.6426C308.65 38.6426 309.968 36.0742 309.968 30.9375C309.968 25.8008 308.65 23.2324 306.013 23.2324C303.376 23.2324 302.058 25.8008 302.058 30.9375C302.058 36.0742 303.376 38.6426 306.013 38.6426Z" fill="black"/>
<path d="M260.368 46.6406V37.8516H264.909V24.0234H260.075V16.0254L264.909 15.5566V13.3887C264.909 9.44336 266.179 6.39648 268.718 4.24805C271.277 2.08008 274.939 0.996094 279.704 0.996094C281.052 0.996094 282.292 1.06445 283.425 1.20117C284.558 1.33789 285.681 1.54297 286.794 1.81641V10.1953L286.003 10.5469C285.573 10.4102 285.105 10.2832 284.597 10.166C284.109 10.0293 283.493 9.96094 282.751 9.96094C281.443 9.96094 280.486 10.293 279.88 10.957C279.275 11.6016 278.972 12.5098 278.972 13.6816V15.2344H286.062V24.0234H278.972V37.8516H286.062V46.6406H260.368Z" fill="black"/>
<path d="M213.376 58.3008V49.5117H220.613L221.667 47.4316L207.722 24.0234H204.939V15.2344H226.12V24.0234H222.605L228.23 34.2188L233.298 24.0234H229.782V15.2344H244.636V24.0234H241.853L229.167 49.5117H233.415V58.3008H213.376Z" fill="black"/>
<path d="M176.755 47.168C173.923 47.168 171.482 46.4941 169.431 45.1465C167.38 43.7988 165.808 41.9043 164.714 39.4629C163.62 37.002 163.073 34.1406 163.073 30.8789C163.073 27.5977 163.611 24.7461 164.685 22.3242C165.759 19.9023 167.263 18.0273 169.197 16.6992C171.15 15.3711 173.425 14.707 176.023 14.707C179.382 14.707 182.566 15.9277 185.573 18.3691V10.8398H180.447V2.8418L199.636 0.9375V37.8516H203.738V46.6406H185.866V43.3594C184.656 44.5117 183.249 45.4395 181.648 46.1426C180.046 46.8262 178.415 47.168 176.755 47.168ZM181.296 38.4082C182.038 38.4082 182.8 38.291 183.581 38.0566C184.382 37.8223 185.046 37.5195 185.573 37.1484V24.8145C185.046 24.4238 184.382 24.1016 183.581 23.8477C182.8 23.5938 182.038 23.4668 181.296 23.4668C179.929 23.4668 178.855 24.1211 178.073 25.4297C177.312 26.7383 176.931 28.5645 176.931 30.9082C176.931 33.252 177.312 35.0879 178.073 36.416C178.855 37.7441 179.929 38.4082 181.296 38.4082Z" fill="black"/>
<path d="M132.693 47.168C130.681 47.168 128.884 46.7676 127.302 45.9668C125.74 45.1465 124.509 44.0234 123.611 42.5977C122.732 41.1719 122.292 39.5312 122.292 37.6758C122.292 34.7852 123.406 32.4805 125.632 30.7617C127.859 29.043 130.827 28.1836 134.538 28.1836C135.827 28.1836 137.058 28.2617 138.23 28.418C139.402 28.5742 140.593 28.8379 141.804 29.209V28.5645C141.804 26.7871 141.257 25.498 140.163 24.6973C139.089 23.8965 137.361 23.4961 134.978 23.4961C133.259 23.4961 131.521 23.7207 129.763 24.1699C128.005 24.6191 126.404 25.2441 124.958 26.0449L124.167 25.6934V17.1387C126.218 16.3379 128.542 15.7324 131.14 15.3223C133.757 14.9121 136.384 14.707 139.021 14.707C144.861 14.707 149.128 15.6836 151.823 17.6367C154.519 19.5898 155.866 22.7246 155.866 27.041V37.8516H159.675V46.6406H143.679L142.243 42.041C141.325 43.6426 140.017 44.9023 138.318 45.8203C136.638 46.7188 134.763 47.168 132.693 47.168ZM138.816 39.668C139.343 39.668 139.89 39.5801 140.456 39.4043C141.042 39.209 141.491 38.9551 141.804 38.6426V33.75C141.316 33.5352 140.818 33.3887 140.31 33.3105C139.822 33.2324 139.363 33.1934 138.933 33.1934C137.937 33.1934 137.097 33.4863 136.413 34.0723C135.749 34.6582 135.417 35.4395 135.417 36.416C135.417 37.4121 135.73 38.2031 136.355 38.7891C136.98 39.375 137.8 39.668 138.816 39.668Z" fill="black"/>
<path d="M104.275 47.168C98.4739 47.168 93.9231 45.7129 90.6223 42.8027C87.3411 39.873 85.7004 35.8203 85.7004 30.6445C85.7004 27.3828 86.4133 24.5605 87.8391 22.1777C89.2844 19.7949 91.2961 17.959 93.8743 16.6699C96.4524 15.3613 99.4504 14.707 102.868 14.707C106.208 14.707 109.07 15.3223 111.452 16.5527C113.835 17.7637 115.652 19.4629 116.902 21.6504C118.171 23.8184 118.806 26.3281 118.806 29.1797C118.806 29.8438 118.777 30.4883 118.718 31.1133C118.659 31.7188 118.591 32.2754 118.513 32.7832H99.675C100.007 34.7754 100.906 36.2109 102.37 37.0898C103.855 37.9492 105.661 38.3789 107.79 38.3789C109.587 38.3789 111.296 38.0664 112.917 37.4414C114.558 36.7969 115.945 35.9961 117.077 35.0391L117.868 35.3906V43.7988C116.931 44.4434 115.72 45.0195 114.236 45.5273C112.751 46.0352 111.14 46.4355 109.402 46.7285C107.683 47.0215 105.974 47.168 104.275 47.168ZM103.63 21.9141C102.322 21.9141 101.335 22.4219 100.671 23.4375C100.007 24.4531 99.636 25.8691 99.5579 27.6855H107.702C107.624 25.8691 107.253 24.4531 106.589 23.4375C105.945 22.4219 104.958 21.9141 103.63 21.9141Z" fill="black"/>
<path d="M34.6946 46.6406V36.5332H39.3821V10.1074H34.6946V0H61.6184C67.4387 0 71.9114 1.09375 75.0364 3.28125C78.1614 5.44922 79.7239 8.63281 79.7239 12.832C79.7239 15.5469 79.05 17.8027 77.7024 19.5996C76.3547 21.3965 74.5286 22.6758 72.2239 23.4375C74.0598 24.043 75.4172 24.9902 76.2961 26.2793C77.1946 27.5684 77.6633 29.1406 77.7024 30.9961L77.761 33.4277C77.8 34.4629 78.0247 35.2441 78.4348 35.7715C78.8645 36.2793 79.5872 36.5332 80.6028 36.5332H83.7083V46.6406H73.5129C69.7825 46.6406 67.0188 45.7812 65.2219 44.0625C63.4446 42.3242 62.5364 39.7852 62.4973 36.4453L62.4387 32.5488C62.3801 29.4238 60.9348 27.8613 58.1028 27.8613H54.2649V36.5332H58.22V46.6406H34.6946ZM58.8059 9.81445H54.2649V19.7168H58.8059C62.5559 19.7168 64.4309 18.0664 64.4309 14.7656C64.4309 11.4648 62.5559 9.81445 58.8059 9.81445Z" fill="black"/>
<path d="M389.095 375.654L389.095 626.213H1.09497L1.09497 402.575L31.2849 388.169C31.2849 387.343 1.09496 374.002 1.12051 373.176C1.1801 368.315 1.42701 363.505 1.84418 358.728C2.89138 346.375 5.13052 334.345 8.3913 322.775C10.3239 315.921 12.6227 309.255 15.2875 302.741C23.7758 281.78 35.8227 262.65 50.6793 246.107C60.1722 235.55 70.7976 226.032 82.3594 217.773C114.124 195.007 153.041 181.641 195.09 181.641C248.659 181.641 297.154 203.351 332.265 238.453C347.36 253.548 359.978 271.104 369.428 290.473C371.608 294.9 338.898 300.536 340.728 305.142C342.558 309.748 378.929 313.316 380.411 318.092C386.056 336.269 389.095 355.595 389.095 375.654Z" fill="#14723F"/>
<mask id="mask1_2003_1798" style="mask-type:alpha" maskUnits="userSpaceOnUse" x="1" y="181" width="389" height="446">
<path d="M389.095 375.654V626.213H345.458H208.458H1.09509V402.575L31.285 388.169C31.285 387.343 1.09509 374.002 1.12063 373.176C1.18023 368.315 1.42713 363.505 1.84431 358.728C2.89151 346.375 5.13064 334.345 8.39143 322.775C10.3241 315.921 12.6228 309.255 15.2876 302.741C23.7759 281.78 35.8228 262.65 50.6794 246.107C60.1723 235.55 70.7977 226.032 82.3595 217.773C114.124 195.007 153.041 181.641 195.09 181.641C248.659 181.641 297.155 203.351 332.266 238.453C347.361 253.549 359.978 271.104 369.428 290.473C371.608 294.9 338.898 300.536 340.728 305.142C342.559 309.748 378.93 313.316 380.411 318.092C386.056 336.269 389.095 355.595 389.095 375.654Z" fill="#2D4E3C"/>
</mask>
<g mask="url(#mask1_2003_1798)">
<path opacity="0.1" d="M-25.405 573.533C-3.90503 584.2 55.595 618.313 95.595 618.713C145.595 619.213 203.095 548.033 250.595 548.033C304.067 548.033 347.095 618.533 388.095 601.533" stroke="#2B4F1C"/>
<path opacity="0.1" d="M-14.4191 295.713C7.08087 306.379 77.8829 216.312 117.883 216.712C167.883 217.212 159.583 386.849 183.333 345.713C303.422 137.713 291.767 545.213 388.095 185.713" stroke="#2B4F1C"/>
<path opacity="0.1" d="M388.095 625.213C263.095 687.213 247.595 521.813 207.595 522.213C157.595 522.713 99.595 585.714 65.095 576.714C13.3546 563.216 15.595 670.213 -25.405 653.213" stroke="#2B4F1C"/>
<path opacity="0.1" d="M388.095 369.792C208.596 549.291 199.594 523.791 158.025 451.791C133.023 408.488 104.095 319.291 69.595 310.291C17.8546 296.793 15.595 414.792 -25.405 397.792" stroke="#2B4F1C"/>
<g opacity="0.3">
<path d="M179.12 491.15C175.414 491.15 171.951 490.001 168.245 490.001L-18.905 490.276V473.633C-3.43524 465.753 15.6431 464.62 31.4122 472.047C37.0354 474.701 43.0389 478.407 49.0423 476.683C52.3515 475.729 54.9487 473.277 57.6186 471.117C75.0303 456.934 99.4809 453.228 121.367 458.123C143.285 463.018 162.816 475.713 179.12 491.15Z" fill="#FFE5C8"/>
<path d="M302.457 316.006H171.271C169.928 316.346 170.859 315.772 169.508 316.103C174.378 304.954 185.811 297.478 197.834 295.464C209.841 293.465 222.26 296.378 233.272 301.605C239.575 304.598 246.662 308.441 253.119 305.804C256.347 304.477 258.726 301.766 261.161 299.266C263.936 296.434 266.946 293.837 270.134 291.459C281.793 298.49 292.611 306.71 302.457 316.006Z" fill="#FFE5C8"/>
</g>
<path d="M85.85 312.052C85.85 338.295 64.5789 359.566 38.336 359.566C12.0931 359.566 -9.17804 338.295 -9.17804 312.052C-9.17804 304.877 -7.57542 298.048 -4.7162 291.938C3.7795 283.396 12.9672 275.575 22.7742 268.572C23.9579 267.725 25.1599 266.879 26.3892 266.05C30.2045 265.067 34.2111 264.538 38.336 264.538C64.5789 264.538 85.85 285.81 85.85 312.052Z" fill="#FFC672"/>
<path d="M40.1116 371.449H34.7483V397.037H40.1116V371.449Z" fill="#FFC672"/>
<path d="M94.9642 251.641L76.8728 269.722L80.6706 273.522L98.762 255.441L94.9642 251.641Z" fill="#FFC672"/>
<path d="M121.49 310.295H95.9028V315.667H121.49V310.295Z" fill="#FFC672"/>
<path d="M80.679 352.43L76.8802 356.229L94.9665 374.315L98.7653 370.517L80.679 352.43Z" fill="#FFC672"/>
<path d="M216.469 518.154C213.616 510.154 207.652 503.632 201.123 498.21C194.593 492.78 187.374 488.212 180.926 482.686C161.019 465.624 149.425 439.27 150.294 413.064C153.54 416.251 158.643 417.023 162.661 419.155C178.831 427.727 191.645 441.914 200.239 458.07C208.833 474.225 213.386 492.305 215.414 510.496L216.469 518.154Z" fill="#13933B"/>
<path d="M284.835 520.865V544.545L274.636 549.455L267.104 582.791L266.74 584.47L257.493 625.383L177.079 624.967L168.796 585.636L168.462 584.017L160.752 547.405L149.321 543.728L148.095 520.865H284.835Z" fill="#2C0000"/>
<path opacity="0.46" d="M284.835 520.865V544.545L274.636 549.455L267.104 582.791L266.74 584.47L257.493 625.383L177.079 624.967L168.796 585.636L168.462 584.017L160.752 547.405L149.321 543.728L148.095 520.865H284.835Z" fill="#FF8A00"/>
<path d="M149.588 522.373C149.588 522.373 166.85 533.529 214.931 533.255C263.012 532.98 283.067 522.373 283.067 522.373H149.588Z" fill="#2C0000"/>
<path d="M160.745 547.405C160.745 547.405 224.557 558.153 260.211 551.081C260.211 551.081 198.775 564.518 162.587 556.897L160.745 547.405Z" fill="#2C0000"/>
<path d="M264.757 580.54C265.433 579.411 265.938 578.32 266.287 577.428C268.018 573.194 268.308 569.265 267.141 566.205C267.127 566.078 267.067 565.952 267.015 565.826V565.811C266.941 565.662 266.867 565.521 266.8 565.373C266.674 565.083 266.51 564.808 266.347 564.533C265.604 563.315 264.349 562.387 263.145 562.186C262.328 562.023 261.563 562.186 260.947 562.699C260.092 563.338 259.803 564.355 259.602 565.246C259.565 565.425 259.528 565.61 259.491 565.789C259.476 565.878 259.454 565.989 259.439 566.078C259.261 567.222 259.164 568.374 259.201 569.517C259.238 573.157 260.308 576.737 262.276 579.813C262.454 580.087 262.625 580.34 262.818 580.615C261.489 582.487 259.639 584.217 257.144 584.581C254.796 584.945 252.145 583.868 250.102 581.833C250.065 581.796 250.028 581.759 249.991 581.721C250.08 581.61 250.154 581.506 250.228 581.395C251.684 579.486 252.59 577.213 252.917 574.851C252.917 574.836 252.917 574.836 252.917 574.836C253.318 572.251 252.991 569.562 251.877 567.178C251.751 566.888 251.565 566.598 251.365 566.301C251.35 566.286 251.35 566.264 251.313 566.249C250.77 565.469 249.968 564.778 249.077 564.541C248.371 564.325 247.673 564.452 247.116 564.853C247.079 564.868 247.042 564.905 247.005 564.942C246.99 564.942 246.99 564.942 246.99 564.957C246.626 565.232 246.373 565.596 246.15 565.974C246.15 565.974 246.135 565.989 246.135 566.012C246.061 566.138 246.009 566.286 245.957 566.413L245.942 566.427C245.927 566.465 245.905 566.517 245.89 566.554C243.833 571.449 244.657 577.502 247.874 581.707C247.658 581.907 247.42 582.123 247.198 582.308C243.09 585.725 236.724 585.985 232.372 582.873C232.32 582.836 232.282 582.821 232.223 582.784C235.276 579.241 236.405 574.071 235.009 569.599C234.481 567.965 233.753 566.799 232.713 566.034C231.347 564.979 229.512 564.853 228.219 565.707C227.291 566.323 226.838 567.341 226.526 568.143C224.654 573.142 226.088 579.129 229.876 582.858C229.876 582.873 229.876 582.873 229.876 582.873C226.333 585.948 220.91 586.654 216.706 584.618C215.503 584.039 214.433 583.274 213.505 582.323C215.8 579.761 217.085 576.537 217.07 573.335C217.055 570.461 215.436 567.46 212.762 567.423H212.71C209.984 567.423 208.402 570.372 208.276 573.135C208.127 576.411 209.315 579.701 211.328 582.264C208.818 584.574 205.639 585.792 202.541 585.614C199.377 585.45 196.287 583.816 194.029 581.12C193.94 581.031 193.851 580.919 193.776 580.83C195.47 578.431 196.45 575.482 196.398 572.518C196.398 571.263 195.945 569.443 194.779 568.411C194.163 567.846 193.412 567.609 192.595 567.683C190.634 567.883 189.684 570.03 189.468 571.79C189.119 574.843 189.958 578.067 191.793 580.808C190.902 581.863 189.832 582.754 188.644 583.408C184.752 585.569 179.715 585.175 176.388 582.442C175.846 582.026 175.37 581.513 174.954 580.971C176.648 578.735 177.702 575.987 177.829 573.187C177.94 571.59 177.65 570.387 176.952 569.51C176.425 568.834 175.608 568.403 174.768 568.307C174.041 568.255 173.365 568.455 172.874 568.886C172.496 569.235 172.258 569.703 172.072 570.089C170.527 573.506 170.943 577.673 172.949 580.89C172.273 581.632 171.493 582.308 170.676 582.873C169.985 583.348 169.242 583.727 168.455 584.002L168.804 585.621C169.77 585.257 170.698 584.782 171.552 584.202C172.406 583.623 173.209 582.969 173.899 582.219C174.353 582.747 174.843 583.237 175.392 583.69C179.21 586.802 184.974 587.27 189.416 584.797C190.672 584.106 191.801 583.177 192.781 582.108C192.781 582.108 192.781 582.123 192.796 582.145C195.344 585.161 198.85 587.018 202.437 587.203C205.966 587.404 209.568 586.037 212.383 583.46C213.438 584.514 214.656 585.406 216.001 586.044C217.82 586.921 219.841 587.352 221.854 587.352C225.129 587.352 228.435 586.223 230.908 584.061C230.983 584.009 231.02 583.972 231.087 583.913C231.198 584.002 231.324 584.098 231.436 584.165C236.368 587.679 243.565 587.404 248.2 583.526C248.438 583.326 248.691 583.11 248.913 582.888C249.129 583.103 249.367 583.326 249.604 583.541C251.008 584.759 252.754 585.762 254.715 586.089C255.569 586.252 256.46 586.275 257.366 586.141C259.312 585.851 260.88 584.908 262.187 583.668C262.202 583.668 262.202 583.668 262.224 583.653C262.826 583.125 263.353 582.524 263.821 581.885C264.386 582.539 264.987 583.103 265.619 583.616C265.634 583.616 265.634 583.63 265.634 583.63C265.998 583.92 266.339 584.195 266.726 584.448L266.874 583.757L267.089 582.776C266.265 582.16 265.485 581.395 264.757 580.54ZM173.528 570.773C173.639 570.52 173.766 570.26 173.944 570.097C174.122 569.933 174.323 569.896 174.508 569.896H174.62C175.021 569.948 175.459 570.171 175.69 570.498C176.105 571.062 176.306 571.917 176.232 573.12C176.105 575.415 175.303 577.666 173.996 579.56C172.525 576.864 172.273 573.536 173.528 570.773ZM191.043 571.969C191.206 570.699 191.786 569.369 192.774 569.258H192.9C193.19 569.258 193.464 569.369 193.702 569.607C194.356 570.134 194.794 571.352 194.794 572.518C194.831 574.977 194.103 577.391 192.796 579.411C191.385 577.101 190.768 574.479 191.043 571.969ZM209.865 573.209C209.954 571.516 210.883 569.027 212.703 569.027C212.717 569.027 212.74 569.027 212.74 569.027C214.574 569.064 215.451 571.612 215.466 573.335C215.481 576.084 214.396 578.847 212.45 581.105C210.719 578.862 209.739 576.047 209.865 573.209ZM230.997 581.736C227.647 578.446 226.362 573.135 228.034 568.678C228.346 567.824 228.687 567.311 229.126 567.022C229.415 566.821 229.779 566.71 230.143 566.71C230.708 566.71 231.309 566.947 231.763 567.274C232.49 567.854 233.055 568.767 233.471 570.075C234.726 574.026 233.709 578.594 230.997 581.736ZM248.951 580.481C246.187 576.7 245.549 571.352 247.406 567.059C247.517 566.843 247.606 566.606 247.732 566.442C247.747 566.405 247.77 566.39 247.784 566.368C247.859 566.279 247.933 566.22 248 566.168C248.126 566.056 248.252 566.019 248.401 566.019C248.475 566.019 248.564 566.019 248.654 566.056C248.832 566.108 248.965 566.205 249.144 566.346C249.159 566.331 249.181 566.331 249.196 566.346C249.211 566.346 249.211 566.361 249.211 566.361C249.686 566.687 250.117 567.237 250.414 567.831C252.315 571.917 251.625 576.953 248.951 580.481ZM263.717 579.122C263.68 579.07 263.628 579.01 263.606 578.958C261.66 575.905 260.657 572.266 260.783 568.663C260.798 567.772 260.895 566.895 261.073 566.026C261.073 565.915 261.11 565.811 261.125 565.7C261.125 565.662 261.14 565.625 261.14 565.588C261.266 564.972 261.467 564.296 261.905 563.954C262.083 563.791 262.306 563.739 262.558 563.739C262.648 563.739 262.737 563.739 262.833 563.753C263.598 563.902 264.453 564.556 264.958 565.373C264.973 565.41 264.995 565.425 265.01 565.462C265.099 565.588 265.173 565.737 265.247 565.878C265.374 566.13 265.5 566.39 265.611 566.658C267.015 570.238 265.76 574.457 264.809 576.827C264.557 577.517 264.17 578.305 263.717 579.122Z" fill="#2C0000"/>
<path d="M230.143 404.648C221.75 442.077 218.526 480.665 220.584 518.971" stroke="#2C0000" stroke-width="1.59878" stroke-miterlimit="10"/>
<path d="M231.688 389.785C232.126 381.414 232.045 373.013 231.436 364.657C231.012 358.774 230.314 352.846 228.346 347.283C227.729 345.537 226.934 343.762 225.471 342.633C222.062 340.011 216.699 342.44 214.827 346.317C212.963 350.195 213.586 354.763 214.396 358.982C216.06 367.62 218.34 376.133 221.222 384.445C221.661 385.7 222.374 389.681 223.495 390.394C224.379 390.951 227.425 390.365 228.517 390.216C230.968 389.882 232.713 389.243 234.199 387.185C236.078 384.578 236.925 381.043 238.373 378.168C240.111 374.736 242.124 371.438 244.382 368.319C248.899 362.087 254.403 356.568 260.664 352.081C263.962 349.719 267.669 347.573 271.724 347.454C273.017 347.417 274.406 347.632 275.349 348.516C276.545 349.645 276.664 351.547 276.218 353.136C275.528 355.61 273.775 357.615 272.066 359.532C262.009 370.837 251.951 382.135 241.887 393.44C239.331 392.259 236.628 391.917 234.281 390.365C233.991 390.179 231.354 389.711 231.688 389.785Z" fill="#FFE5C8"/>
<path d="M243.707 394.257C252.033 383.442 264.735 376.096 278.261 374.254C281.566 373.808 285.184 373.741 287.932 375.643C288.697 376.17 289.395 376.89 289.588 377.804C289.744 378.562 289.529 379.356 289.187 380.055C287.732 383.004 284.352 384.378 281.262 385.507C270.38 389.466 259.498 393.425 248.609 397.384C246.715 396.463 245.244 395.683 243.707 394.257Z" fill="#FFE5C8"/>
<path d="M215.228 390.186C204.896 385.975 194.497 381.748 183.6 379.334C180.822 378.718 177.933 378.183 175.6 376.564C173.268 374.944 171.664 371.862 172.703 369.217C174.033 365.845 178.505 365.177 182.115 365.518C195.306 366.759 207.139 374.239 217.018 383.07C218.66 384.534 220.346 386.19 220.754 388.352C220.769 388.441 220.205 387.163 220.205 387.26C220.361 387.497 220.376 387.557 220.264 387.817C218.207 387.876 216.988 389.117 215.228 390.186Z" fill="#FFE5C8"/>
<path d="M170.453 392.363C167.511 393.648 164.548 395.334 162.928 398.104C161.309 400.875 161.591 404.975 164.295 406.713C165.402 407.426 166.746 407.657 168.054 407.738C173.795 408.088 179.314 405.807 184.803 404.084C194.943 400.912 205.468 400.645 215.659 398.208C213.572 389.756 204.71 388.872 197.037 388.159C188.012 387.319 178.765 388.716 170.453 392.363Z" fill="#FFE5C8"/>
<path d="M221.72 399.189C213.431 401.974 205.46 406.037 199.05 411.987C192.64 417.937 187.871 425.877 186.698 434.538C186.348 437.101 186.579 440.213 188.815 441.513C190.36 442.419 192.335 442.077 193.992 441.387C197.111 440.079 199.644 437.673 201.888 435.14C211.351 424.436 217.033 410.442 228.071 401.373C225.701 400.6 224.097 399.969 221.72 399.189Z" fill="#FFE5C8"/>
<path d="M229.096 401.744C225.115 413.547 221.111 425.446 219.603 437.814C219.053 442.337 218.853 447.017 220.19 451.37C220.858 453.531 222.24 455.841 224.483 456.124C226.838 456.421 228.814 454.311 229.794 452.15C230.901 449.698 231.295 446.995 231.659 444.336C233.478 430.906 234.749 417.395 235.462 403.861C233.894 402.94 230.671 402.665 229.096 401.744Z" fill="#FFE5C8"/>
<path d="M237.697 405.993C243.224 420.091 244.271 435.838 251.357 449.216C252.821 451.979 255.22 454.965 258.325 454.586C261.325 454.222 262.989 450.879 263.428 447.893C264.185 442.753 262.952 437.524 261.169 432.644C257.649 422.988 251.966 414.126 244.65 406.906C242.266 406.587 239.109 405.406 236.754 404.901C236.947 404.634 237.512 406.253 237.697 405.993Z" fill="#FFE5C8"/>
<path d="M262.536 422.936C266.302 429.316 269.63 436.061 274.703 441.468C276.553 443.444 279.071 445.346 281.715 444.759C284.842 444.068 286.224 440.287 286.083 437.086C285.845 431.656 282.851 426.687 279.152 422.706C273.084 416.169 265.129 411.809 256.965 408.459C255.792 407.976 253.155 406.32 252.122 407.887C251.001 409.588 253.541 410.858 254.625 411.987C257.745 415.233 260.248 419.059 262.536 422.936Z" fill="#FFE5C8"/>
<path d="M287.07 400.4C290.97 401.402 294.803 402.881 298.093 405.206C300.998 407.263 303.605 411.14 301.711 414.156C300.797 415.612 299.081 416.355 297.403 416.748C290.034 418.487 282.539 415.166 275.55 412.269C269.763 409.878 263.881 407.724 257.916 405.822C256.141 405.258 249.887 403.259 250.882 400.526C251.729 398.223 260.085 398.78 262.046 398.669C270.41 398.186 278.907 398.298 287.07 400.4Z" fill="#FFE5C8"/>
<path d="M256.335 406.004C258.417 400.603 249.533 392.149 236.491 387.122C223.45 382.094 211.19 382.397 209.108 387.798C207.026 393.2 215.91 401.653 228.951 406.681C241.993 411.708 254.253 411.405 256.335 406.004Z" fill="#FF8A00"/>
<path d="M224.112 514.915C225.895 504.293 230.002 494.199 234.726 484.528C240.884 471.923 248.29 459.689 258.518 450.085C268.746 440.48 282.101 433.654 296.125 433.394C291.839 443.704 291.327 455.953 286.09 465.81C279.977 477.323 268.092 484.312 257.255 491.555C247.77 497.89 238.678 504.828 230.069 512.323L224.112 514.915Z" fill="#13933B"/>
<path d="M159.252 524.95C158.91 524.831 162.215 516.616 166.152 514.38C170.096 512.145 174.984 511.654 179.292 513.066C182.835 506.789 190.62 503.655 197.78 504.405C204.948 505.155 211.432 509.255 216.379 514.492C219.143 509.471 225.538 507.153 231.176 508.163C236.813 509.181 241.642 513.014 244.999 517.656C245.43 515.628 247.487 514.395 249.448 513.712C254.536 511.922 260.3 512.159 265.225 514.351C270.15 516.542 271.472 520.248 273.544 525.225C273.544 525.232 192.996 536.924 159.252 524.95Z" fill="#2C0000"/>
<path d="M354.894 464.688C354.894 464.688 314.078 476.936 308.767 481.014C303.464 485.1 269.169 534.079 269.169 534.079C269.169 534.079 277.741 544.285 288.764 536.53C299.787 528.776 312.845 518.57 312.845 518.57L288.355 542.242C288.355 542.242 258.963 543.059 252.026 552.448C245.088 561.837 245.549 566.569 245.549 566.569L271.62 565.105C271.62 565.105 254.477 567.965 251.209 578.171C247.94 588.377 247.532 593.272 247.532 593.272L271.613 587.968C271.613 587.968 258.956 590.011 257.738 600.217C256.512 610.423 257.738 614.501 257.738 614.501C257.738 614.501 299.371 594.089 301.822 587.968C304.273 581.848 361.007 524.289 361.007 524.289L354.894 464.688Z" fill="#FF8F68"/>
<path d="M269.043 533.893C273.767 535.676 279.405 533.143 282.086 528.865C284.768 524.586 284.827 519.045 283.252 514.254" stroke="#2C0000" stroke-width="1.59878" stroke-miterlimit="10" stroke-linecap="round" stroke-linejoin="round"/>
<path d="M272.92 564.882C268.82 561.941 263.918 559.913 258.874 559.936C253.831 559.95 248.668 562.223 245.846 566.405C245.846 566.405 292.441 565.64 295.709 563.196C298.977 560.745 320.199 541.968 320.199 541.968" stroke="#2C0000" stroke-width="1.59878" stroke-miterlimit="10" stroke-linecap="round" stroke-linejoin="round"/>
<path d="M274.889 586.81C270.588 583.935 265.091 582.91 260.048 584.032C254.997 585.153 250.458 588.414 247.784 592.841C247.784 592.841 297.343 584.425 299.794 581.699C302.246 578.981 321.291 562.379 321.291 562.379" stroke="#2C0000" stroke-width="1.59878" stroke-miterlimit="10" stroke-linecap="round" stroke-linejoin="round"/>
<path d="M397.122 449.646V547.635C386.136 550.034 375.678 551.869 372.862 550.814C366.333 548.355 367.967 536.122 367.967 536.122L358.564 536.939L356.907 528.464L345.015 467.718L343.47 459.786L351.218 457.327C351.218 457.327 348.781 440.592 349.999 432.83C351.039 426.301 383.157 415.679 393.178 412.515C395.755 424.496 397.122 436.9 397.122 449.646Z" fill="#FF4401"/>
<path d="M257.886 614.382C258.585 609.361 261.816 604.755 266.302 602.393C270.789 600.031 276.411 599.972 280.95 602.237" stroke="#2C0000" stroke-width="1.59878" stroke-miterlimit="10" stroke-linecap="round" stroke-linejoin="round"/>
<path d="M257.879 613C257.879 613 255.16 594.223 265.225 589.595" stroke="#2C0000" stroke-width="1.59878" stroke-miterlimit="10" stroke-linecap="round" stroke-linejoin="round"/>
<path d="M389.76 537.641V626.906H-18.905V548.339C-1.01031 545.01 19.1126 551.903 29.2997 567.231C44.0126 555.449 65.4706 552.813 82.5851 560.711C99.6908 568.584 111.647 586.634 112.245 605.457C134.622 590.302 168.183 595.053 185.462 615.835C205.568 594.056 243.88 592.911 265.217 613.459C269.526 596.431 282.245 581.727 298.483 575.017C314.748 568.306 334.125 569.754 349.194 578.797C348.006 562.983 361.548 549.779 375.776 542.747C380.206 540.545 384.914 538.698 389.76 537.641Z" fill="#0F4D2B"/>
</g>
<rect y="129.493" width="148.863" height="108.382" rx="54.1912" fill="#9C83FF"/>
<path d="M107.089 188.824C103.496 188.824 100.794 187.904 98.983 186.066C97.2001 184.199 96.3087 181.622 96.3087 178.335C96.3087 175.02 97.3115 172.485 99.3172 170.73C101.351 168.975 103.928 168.098 107.048 168.098C113.371 168.098 116.408 171.273 116.157 177.625H104.373V179.255C104.373 181.985 104.722 184.046 105.418 185.439C106.114 186.832 107.326 187.528 109.053 187.528C112.285 187.528 114.402 185.801 115.405 182.347L116.157 182.472C115.628 184.478 114.667 186.038 113.274 187.152C111.909 188.266 109.847 188.824 107.089 188.824ZM104.415 176.789H108.719V174.742C108.719 172.485 108.58 170.953 108.301 170.145C108.051 169.309 107.521 168.892 106.713 168.892C105.933 168.892 105.348 169.337 104.958 170.229C104.596 171.092 104.415 172.597 104.415 174.742V176.789Z" fill="black"/>
<path d="M89.5713 169.686C88.5406 169.686 87.6352 170.354 86.8552 171.691C86.0752 173.028 85.6852 174.616 85.6852 176.455V187.654H88.652V188.406H75.6148V187.654H77.913V169.268H75.6148V168.516H85.6852V172.527C86.0474 171.106 86.7438 170.02 87.7745 169.268C88.8052 168.488 89.9753 168.098 91.2845 168.098C92.5938 168.098 93.6524 168.474 94.4603 169.226C95.296 169.95 95.7139 170.995 95.7139 172.36C95.7139 173.697 95.4074 174.728 94.7946 175.452C94.1817 176.176 93.2346 176.538 91.9531 176.538C90.6995 176.538 89.7663 176.121 89.1535 175.285C88.5685 174.449 88.4988 173.293 88.9445 171.817H90.4488C91.1453 170.396 90.8528 169.686 89.5713 169.686Z" fill="black"/>
<path d="M62.7101 178.586H63.9219V175.368C63.9219 172.722 63.7687 170.953 63.4623 170.062C63.1837 169.142 62.6266 168.683 61.7908 168.683C61.2894 168.683 60.8298 168.822 60.4119 169.101C60.0219 169.351 59.8269 169.713 59.8269 170.187C59.8269 170.633 59.9105 171.092 60.0776 171.566H61.1223C61.3451 172.151 61.4566 172.861 61.4566 173.697C61.4566 174.505 61.1083 175.215 60.4119 175.828C59.7155 176.413 58.838 176.706 57.7794 176.706C55.3837 176.706 54.1858 175.55 54.1858 173.237C54.1858 169.811 57.0969 168.098 62.9191 168.098C66.2341 168.098 68.5184 168.669 69.772 169.811C71.0534 170.925 71.6941 172.987 71.6941 175.995V184.478C71.6941 185.926 72.0981 186.651 72.9059 186.651C73.8531 186.651 74.4102 185.216 74.5774 182.347L75.2041 182.388C75.0927 184.84 74.6331 186.525 73.8252 187.445C73.0173 188.364 71.6941 188.824 69.8555 188.824C66.5127 188.824 64.5905 187.793 64.0891 185.731C63.7269 186.79 63.1837 187.57 62.4594 188.071C61.7351 188.573 60.6766 188.824 59.2837 188.824C55.1608 188.824 53.0994 187.138 53.0994 183.767C53.0994 181.79 53.8794 180.438 55.4394 179.714C57.0272 178.962 59.4508 178.586 62.7101 178.586ZM61.0387 183.726C61.0387 185.174 61.1083 186.107 61.2476 186.525C61.4148 186.943 61.7073 187.152 62.1251 187.152C62.5709 187.152 62.9748 186.804 63.3369 186.107C63.7269 185.383 63.9219 184.394 63.9219 183.141V179.255H63.6294C61.9023 179.255 61.0387 180.522 61.0387 183.057V183.726Z" fill="black"/>
<path d="M44.1823 168.85C42.9566 168.85 42.0791 169.518 41.5498 170.856C41.0205 172.193 40.7559 174.407 40.7559 177.5V179.672C40.7559 182.43 41.0623 184.408 41.6751 185.606C42.288 186.804 43.4162 187.403 45.0598 187.403C46.7034 187.403 48.0127 186.846 48.9877 185.731C49.9627 184.617 50.5895 183.35 50.8681 181.929L51.6202 182.012C51.0909 184.408 50.1159 186.135 48.6952 187.194C47.2466 188.28 45.2548 188.824 42.7198 188.824C39.4883 188.824 37.009 187.96 35.2819 186.233C33.5547 184.478 32.6912 181.929 32.6912 178.586C32.6912 175.215 33.6662 172.625 35.6162 170.814C37.594 169.003 40.338 168.098 43.848 168.098C46.3273 168.098 48.2216 168.585 49.5309 169.56C50.8402 170.507 51.4948 171.705 51.4948 173.154C51.4948 174.602 51.1745 175.661 50.5338 176.33C49.9209 176.998 49.0573 177.332 47.943 177.332C46.8566 177.332 45.9791 177.04 45.3105 176.455C44.6419 175.87 44.3077 175.006 44.3077 173.864C44.3077 173.363 44.3773 172.861 44.5166 172.36H45.8955C46.0905 171.803 46.188 171.301 46.188 170.856C46.188 169.518 45.5195 168.85 44.1823 168.85Z" fill="black"/>
<rect x="122.616" y="54.6407" width="172.367" height="104.465" rx="52.2325" transform="rotate(30 122.616 54.6407)" fill="#FFA0C6"/>
<path d="M208.486 145.126C209.296 143.826 210.005 142.469 210.616 141.054C211.227 139.64 211.908 138.281 212.66 136.978C212.903 136.558 213.171 136.374 213.465 136.426C213.771 136.456 214.079 136.56 214.389 136.739C214.83 136.994 215.125 137.326 215.272 137.735C215.418 138.143 215.386 138.581 215.176 139.049C213.984 141.571 212.718 144.02 211.375 146.396C210.068 148.763 208.862 151.233 207.76 153.806C209.149 152.93 210.433 152.287 211.612 151.878C212.79 151.469 213.776 151.316 214.57 151.421C215.386 151.539 215.95 151.938 216.263 152.62C216.612 153.292 216.639 154.265 216.345 155.538C216.065 156.79 215.422 158.362 214.417 160.256C213.425 162.128 211.994 164.35 210.126 166.923C209.971 166.834 209.777 166.736 209.544 166.631C209.323 166.503 209.108 166.365 208.9 166.215C208.714 166.078 208.563 165.932 208.447 165.777C208.33 165.621 208.312 165.449 208.392 165.259C209.525 163.705 210.428 162.37 211.1 161.257C211.773 160.143 212.275 159.196 212.608 158.416C212.94 157.636 213.137 157.014 213.2 156.549C213.274 156.063 213.275 155.68 213.2 155.401C213.125 155.122 213 154.932 212.823 154.83C212.681 154.719 212.56 154.648 212.458 154.62C211.87 154.516 211.158 154.679 210.321 155.108C209.506 155.551 208.682 156.135 207.85 156.862C207.018 157.59 206.232 158.416 205.49 159.343C204.784 160.261 204.235 161.136 203.842 161.969C203.718 162.133 203.594 162.297 203.469 162.461C203.345 162.625 203.205 162.765 203.05 162.882C202.917 163.011 202.752 163.092 202.555 163.126C202.394 163.151 202.192 163.093 201.949 162.953C201.485 162.685 201.154 162.391 200.956 162.07C200.793 161.741 200.711 161.399 200.709 161.044C200.73 160.703 200.82 160.343 200.98 159.964C201.162 159.598 201.383 159.239 201.644 158.889L208.486 145.126Z" fill="black"/>
<path d="M192.791 144.766C192.482 144.588 192.161 144.506 191.829 144.52C191.497 144.535 191.165 144.446 190.834 144.255C190.789 144.229 190.668 144.159 190.469 144.044C190.305 143.92 190.201 143.845 190.157 143.82C190.132 143.659 190.084 143.513 190.012 143.383C189.94 143.253 189.867 143.123 189.795 142.993C189.736 142.841 189.694 142.684 189.669 142.522C189.667 142.374 189.723 142.2 189.838 142.001C190.029 141.67 190.314 141.481 190.694 141.436C191.087 141.368 191.504 141.358 191.947 141.408C192.39 141.457 192.826 141.518 193.256 141.589C193.708 141.674 194.095 141.691 194.418 141.642L195.26 140.184C196.204 138.55 197.07 136.871 197.859 135.147C198.661 133.401 199.527 131.722 200.458 130.11C200.713 129.668 200.989 129.445 201.287 129.44C201.584 129.435 201.92 129.54 202.296 129.757C202.738 130.012 202.981 130.33 203.027 130.709C203.108 131.08 203.084 131.478 202.955 131.905C202.84 132.309 202.661 132.721 202.418 133.141C202.189 133.539 202.002 133.887 201.859 134.187C201.693 134.474 201.422 134.995 201.045 135.75C200.668 136.504 200.266 137.302 199.839 138.145C199.411 138.988 199.009 139.786 198.632 140.541C198.255 141.295 197.995 141.822 197.852 142.122C197.953 142.151 198.15 142.192 198.444 142.244C198.773 142.286 199.107 142.346 199.445 142.424C199.796 142.479 200.118 142.533 200.412 142.584C200.728 142.649 200.954 142.691 201.09 142.711C201.804 142.799 202.554 142.879 203.338 142.949C204.135 142.996 204.854 143.205 205.494 143.575C205.936 143.83 206.178 144.176 206.22 144.613C206.298 145.04 206.221 145.453 205.992 145.85C205.826 146.137 205.595 146.283 205.297 146.288C205 146.293 204.698 146.281 204.391 146.251L197.06 145.023C196.969 145.029 196.877 145.035 196.785 145.041C196.706 145.024 196.614 145.03 196.51 145.058L195.898 146.118C195.451 146.892 194.997 147.704 194.535 148.556C194.107 149.399 193.725 150.239 193.389 151.075C193.117 151.802 192.862 152.524 192.625 153.241C192.388 153.958 192.078 154.647 191.695 155.31C191.581 155.509 191.361 155.736 191.038 155.99C190.714 156.245 190.408 156.29 190.121 156.124C189.525 155.78 189.141 155.322 188.969 154.752C188.798 154.182 188.862 153.586 189.162 152.964C189.715 151.752 190.32 150.423 190.979 148.977C191.659 147.544 192.307 146.166 192.924 144.843L192.791 144.766Z" fill="black"/>
<path d="M172.055 143.573C172.216 142.989 172.576 141.474 173.134 139.027C173.705 136.559 174.557 133.017 175.691 128.4C175.717 128.356 175.746 128.255 175.778 128.097C175.845 127.93 175.891 127.824 175.917 127.78C176.114 127.54 176.402 127.5 176.781 127.66C177.173 127.798 177.451 127.929 177.615 128.053C178.062 128.4 178.326 128.758 178.407 129.129C178.51 129.512 178.504 129.98 178.391 130.533L176.659 137.971L176.696 138.213C177.216 137.924 177.664 137.505 178.04 136.957C178.416 136.408 178.79 135.888 179.162 135.396C179.569 134.895 180.011 134.487 180.487 134.173C180.962 133.859 181.561 133.792 182.281 133.972C182.414 134.048 182.538 134.164 182.654 134.32C182.784 134.453 182.882 134.614 182.951 134.801C183.055 134.978 183.124 135.165 183.158 135.361C183.204 135.536 183.211 135.702 183.179 135.86L181.659 142.624L181.736 143.332C182.054 142.985 182.535 142.408 183.177 141.601C183.842 140.807 184.515 139.973 185.196 139.1C185.911 138.218 186.56 137.4 187.142 136.646C187.737 135.871 188.146 135.341 188.369 135.057C188.395 135.013 188.439 134.936 188.503 134.825C188.589 134.728 188.644 134.657 188.67 134.613C188.961 134.516 189.287 134.512 189.648 134.603C190.021 134.671 190.316 134.797 190.533 134.981C190.609 135.055 190.687 135.174 190.769 135.338C190.885 135.494 190.971 135.676 191.027 135.885C191.096 136.072 191.125 136.251 191.115 136.422C191.127 136.605 191.101 136.752 191.037 136.863L181.306 149.356C181.208 149.476 181.067 149.542 180.883 149.554C180.712 149.543 180.519 149.52 180.304 149.485C180.124 149.439 179.94 149.377 179.75 149.297C179.596 149.208 179.474 149.138 179.386 149.087C178.97 148.582 178.691 147.994 178.549 147.322C178.441 146.642 178.392 145.936 178.402 145.205C178.433 144.487 178.494 143.771 178.582 143.057C178.706 142.333 178.769 141.662 178.771 141.046L178.658 140.936C178.414 141.001 178.084 141.267 177.667 141.733C177.273 142.213 176.871 142.731 176.46 143.289C176.049 143.847 175.682 144.357 175.357 144.817C175.045 145.255 174.876 145.497 174.851 145.541C174.628 145.824 174.278 145.946 173.801 145.906C173.345 145.879 172.987 145.76 172.725 145.55C172.441 145.328 172.248 145.025 172.145 144.641C172.078 144.249 172.048 143.893 172.055 143.573Z" fill="black"/>
<path d="M159.055 131.43L165.197 123.623C165.407 123.361 165.65 123.221 165.925 123.204C166.222 123.199 166.504 123.273 166.769 123.426C167.255 123.706 167.558 124.073 167.68 124.526C167.814 124.957 167.865 125.428 167.835 125.941L167.868 125.96C168.133 126.113 168.39 126.202 168.64 126.229C168.925 126.246 169.222 126.344 169.531 126.522C170.238 126.93 170.706 127.495 170.937 128.218C171.19 128.953 171.287 129.73 171.226 130.549C171.178 131.346 171.01 132.147 170.722 132.952C170.456 133.771 170.163 134.456 169.844 135.008C169.462 135.671 168.858 136.308 168.033 136.922C167.229 137.548 166.33 138.059 165.335 138.457C164.362 138.867 163.382 139.111 162.395 139.188C161.407 139.266 160.549 139.095 159.82 138.674C159.158 138.291 158.673 137.805 158.365 137.216C158.08 136.639 157.917 136.029 157.875 135.386C157.869 134.735 157.971 134.072 158.183 133.4C158.395 132.727 158.667 132.103 158.998 131.529L159.055 131.43ZM161.724 133.235C161.64 133.481 161.538 133.761 161.416 134.074C161.295 134.386 161.208 134.69 161.156 134.983C161.117 135.255 161.136 135.502 161.214 135.724C161.327 135.936 161.57 136.077 161.943 136.145C162.383 136.046 162.865 135.926 163.387 135.786C163.91 135.646 164.423 135.471 164.927 135.261C165.453 135.064 165.937 134.813 166.378 134.509C166.819 134.204 167.173 133.819 167.441 133.355C167.963 132.655 168.303 131.939 168.461 131.206C168.632 130.45 168.607 129.832 168.384 129.35C168.197 128.859 167.807 128.59 167.216 128.543C166.637 128.474 165.848 128.769 164.849 129.429C164.252 129.85 163.675 130.416 163.119 131.125C162.597 131.825 162.151 132.495 161.781 133.136L161.724 133.235Z" fill="black"/>
<path d="M146.515 129.049C146.93 128.228 147.465 127.123 148.12 125.734C148.809 124.336 149.502 122.881 150.198 121.368C150.917 119.869 151.58 118.44 152.187 117.083C152.794 115.725 153.257 114.668 153.577 113.91C153.743 113.623 153.984 113.511 154.3 113.576C154.616 113.641 154.895 113.743 155.138 113.884C155.447 114.062 155.717 114.335 155.946 114.703C156.197 115.084 156.278 115.454 156.188 115.815C156.137 115.903 156.052 116.075 155.934 116.331C155.829 116.564 155.706 116.803 155.565 117.046C155.447 117.301 155.329 117.557 155.211 117.813C155.105 118.046 155.027 118.207 154.976 118.296C154.9 118.428 154.842 118.528 154.804 118.594C154.766 118.66 154.727 118.726 154.689 118.793C154.664 118.837 154.643 118.899 154.627 118.978C154.611 119.057 154.58 119.186 154.535 119.366C154.605 119.348 154.681 119.318 154.763 119.277C154.868 119.249 154.937 119.23 154.972 119.221C155.619 118.917 156.216 118.673 156.764 118.489C157.325 118.283 157.878 118.116 158.422 117.988C158.98 117.839 159.577 117.698 160.213 117.565C160.885 117.422 161.654 117.263 162.522 117.086C162.718 117.052 162.862 117.032 162.954 117.026C163.058 116.998 163.139 116.986 163.196 116.99C163.288 116.984 163.367 117 163.433 117.038C163.512 117.054 163.607 117.094 163.717 117.158C164.093 117.375 164.391 117.724 164.614 118.206C164.871 118.678 164.872 119.135 164.617 119.577C164.528 119.732 164.377 119.866 164.165 119.979C163.965 120.069 163.743 120.147 163.499 120.213C163.268 120.256 163.032 120.282 162.792 120.29C162.574 120.311 162.385 120.306 162.227 120.274C161.36 120.45 160.415 120.685 159.391 120.977C158.381 121.248 157.383 121.6 156.397 122.032C155.412 122.464 154.506 122.987 153.681 123.6C152.856 124.213 152.207 124.928 151.735 125.745C151.302 126.496 150.93 127.268 150.619 128.061C150.309 128.854 149.937 129.625 149.503 130.376L148.834 131.536C148.555 131.611 148.318 131.665 148.121 131.699C147.925 131.733 147.706 131.68 147.463 131.539C147.087 131.322 146.812 130.957 146.637 130.444C146.475 129.909 146.434 129.444 146.515 129.049Z" fill="black"/>
<path d="M125.367 134.155C125.419 133.861 125.578 133.585 125.845 133.327C126.134 133.081 126.459 133.004 126.819 133.094C127.2 133.608 127.647 134.058 128.161 134.443C128.675 134.828 129.22 135.158 129.798 135.432C130.398 135.72 131.012 135.956 131.641 136.143C132.269 136.329 132.889 136.48 133.499 136.597C134.249 136.471 134.921 136.123 135.515 135.553C136.097 135.005 136.703 134.133 137.335 132.937C137.954 131.763 138.635 130.227 139.377 128.329C140.129 126.466 141.033 124.16 142.089 121.413C142.127 121.347 142.184 121.247 142.261 121.115C142.359 120.995 142.43 120.873 142.471 120.75C142.526 120.605 142.539 120.48 142.511 120.376C142.505 120.284 142.439 120.246 142.312 120.261C141.706 120.647 141.013 121.057 140.233 121.49C139.488 121.914 138.695 122.266 137.856 122.547C137.051 122.819 136.231 122.964 135.396 122.982C134.583 123.013 133.801 122.812 133.05 122.379C132.387 121.996 131.91 121.47 131.619 120.802C131.363 120.123 131.445 119.42 131.866 118.691C132.184 118.139 132.697 117.507 133.402 116.795C134.129 116.096 134.96 115.398 135.893 114.699C136.839 113.979 137.845 113.308 138.91 112.687C139.976 112.065 141.013 111.545 142.021 111.125C143.028 110.706 143.964 110.436 144.829 110.317C145.706 110.175 146.42 110.264 146.972 110.582C147.193 110.71 147.455 110.92 147.757 111.212C148.094 111.495 148.384 111.81 148.626 112.156C148.89 112.514 149.086 112.863 149.215 113.202C149.365 113.554 149.363 113.863 149.21 114.128L147.661 116.811L140.786 133.692C140.276 134.576 139.769 135.402 139.266 136.172C138.772 136.976 138.195 137.645 137.535 138.176C136.896 138.721 136.148 139.098 135.29 139.31C134.432 139.521 133.388 139.493 132.159 139.225C131.988 139.214 131.68 139.11 131.235 138.912C130.789 138.714 130.284 138.467 129.719 138.17C129.177 137.886 128.602 137.554 127.997 137.175C127.413 136.809 126.893 136.435 126.436 136.053C125.988 135.706 125.654 135.366 125.434 135.033C125.214 134.7 125.192 134.407 125.367 134.155ZM144.442 113.053C144.08 113.168 143.559 113.383 142.878 113.696C142.218 114.022 141.516 114.397 140.77 114.821C140.025 115.245 139.261 115.701 138.477 116.191C137.728 116.672 137.072 117.147 136.506 117.616C135.941 118.084 135.504 118.51 135.196 118.891C134.909 119.285 134.862 119.597 135.054 119.825C135.658 119.85 136.385 119.739 137.234 119.493C138.095 119.225 138.956 118.882 139.815 118.466C140.709 118.039 141.543 117.564 142.317 117.039C143.126 116.505 143.769 115.978 144.246 115.458C144.745 114.951 145.03 114.482 145.101 114.052C145.208 113.613 144.988 113.28 144.442 113.053Z" fill="black"/>
<rect x="191.954" y="164.126" width="210.236" height="127.97" rx="63.9848" fill="#FF7C48"/>
<path d="M355.16 235.129C349.923 235.129 347.305 232.402 347.305 226.947V218.888H344.041V212.91H347.305V208.238L357.078 206.055V212.91H360.996V218.888H357.078V226.233C357.078 226.845 357.309 227.356 357.772 227.764C358.234 228.172 358.813 228.376 359.506 228.376C360.01 228.376 360.506 228.335 360.996 228.253V233.925C359.2 234.728 357.255 235.129 355.16 235.129Z" fill="black"/>
<path d="M339.98 220.888V228.865H342.816V234.762H330.187V220.847C330.187 220.262 329.996 219.745 329.615 219.296C329.248 218.847 328.799 218.623 328.269 218.623C327.276 218.623 326.65 219.119 326.392 220.112C326.12 221.133 325.984 222.561 325.984 224.397V228.865H326.024V234.762H313.272V228.865H316.231V219.215H313.272V213.706L325.984 212.482V215.542C326.922 214.427 327.99 213.638 329.187 213.175C330.384 212.713 331.737 212.482 333.247 212.482C337.736 212.482 339.98 215.284 339.98 220.888Z" fill="black"/>
<path d="M291.767 235.129C290.38 235.129 289.122 234.857 287.993 234.313C286.85 233.783 285.939 233.014 285.259 232.007C284.578 231.001 284.238 229.831 284.238 228.498C284.238 227.056 284.64 225.832 285.442 224.826C286.245 223.846 287.292 223.112 288.584 222.622C289.89 222.132 291.298 221.887 292.808 221.887C294.59 221.887 296.304 222.153 297.949 222.683V221.765C297.949 220.677 297.487 219.847 296.562 219.276C295.651 218.705 294.413 218.419 292.849 218.419C292.182 218.419 291.434 218.501 290.604 218.664C289.775 218.827 288.965 219.051 288.176 219.337C287.387 219.623 286.7 219.942 286.116 220.296L285.524 220.051V214.114C287.17 213.529 288.85 213.114 290.563 212.869C292.277 212.611 293.876 212.482 295.358 212.482C303.628 212.482 307.763 214.808 307.763 219.459V228.621H309.681V234.762H299.235L298.317 231.416C297.732 232.558 296.82 233.463 295.583 234.129C294.345 234.796 293.073 235.129 291.767 235.129ZM295.603 229.906C296.052 229.906 296.508 229.831 296.97 229.682C297.446 229.532 297.773 229.375 297.949 229.212V225.784C297.745 225.757 297.419 225.676 296.97 225.54C296.508 225.417 296.106 225.356 295.766 225.356C295.045 225.356 294.467 225.58 294.032 226.029C293.61 226.478 293.399 227.077 293.399 227.825C293.399 228.383 293.597 228.872 293.991 229.294C294.399 229.702 294.937 229.906 295.603 229.906Z" fill="black"/>
<path d="M281.096 228.621V234.762H264.59V228.621H268.181V209.809H264.59V204.259L277.954 202.912V228.621H281.096Z" fill="black"/>
<path d="M248.186 242.862H233.149V236.68H235.781V219.215H233.149V213.747L245.554 212.482V215.95C246.247 214.984 247.145 214.168 248.247 213.502C249.349 212.822 250.641 212.482 252.124 212.482C254.069 212.482 255.728 212.985 257.102 213.991C258.476 214.998 259.503 216.351 260.183 218.052C260.877 219.752 261.224 221.643 261.224 223.724C261.224 225.791 260.883 227.702 260.203 229.457C259.523 231.185 258.489 232.565 257.102 233.599C255.728 234.619 254.055 235.129 252.083 235.129C250.709 235.129 249.458 234.864 248.329 234.333C247.213 233.789 246.288 233.123 245.554 232.334V236.721H248.186V242.862ZM248.492 229.171C249.716 229.171 250.621 228.682 251.205 227.702C251.79 226.723 252.083 225.438 252.083 223.846C252.083 222.214 251.763 220.908 251.124 219.929C250.485 218.949 249.648 218.46 248.614 218.46C247.921 218.46 247.295 218.637 246.737 218.99C246.179 219.33 245.785 219.779 245.554 220.337V227.417C246.166 228.587 247.145 229.171 248.492 229.171Z" fill="black"/>
</svg>
