<svg width="408" height="562" viewBox="0 0 408 562" fill="none" xmlns="http://www.w3.org/2000/svg">
<path d="M388 194.013L388 444.572H0L0 220.934L30.1899 206.529C30.1899 205.703 -5.82449e-06 192.362 0.0255356 191.536C0.0851322 186.674 0.332038 181.864 0.749214 177.088C1.79641 164.734 4.03555 152.704 7.29633 141.134C9.22897 134.28 11.5277 127.614 14.1926 121.101C22.6808 100.14 34.7278 81.0092 49.5844 64.4668C59.0772 53.9096 69.7026 44.3912 81.2644 36.1327C113.029 13.3667 151.946 0 193.995 0C247.564 0 296.059 21.7103 331.17 56.8129C346.265 71.9079 358.883 89.4634 368.333 108.832C370.513 113.26 337.803 118.896 339.633 123.502C341.464 128.108 377.835 131.675 379.316 136.451C384.961 154.628 388 173.955 388 194.013Z" fill="#14723F"/>
<mask id="mask0_2003_2048" style="mask-type:alpha" maskUnits="userSpaceOnUse" x="0" y="0" width="389" height="445">
<path d="M388 194.013V444.572H344.363H207.363H0.000156403V220.934L30.19 206.529C30.19 205.703 0.000155108 192.362 0.0256965 191.536C0.0852931 186.674 0.332195 181.864 0.749371 177.088C1.79657 164.734 4.0357 152.704 7.29649 141.134C9.22912 134.28 11.5279 127.614 14.1927 121.101C22.681 100.14 34.7279 81.0092 49.5845 64.4668C59.0774 53.9096 69.7028 44.3912 81.2645 36.1327C113.03 13.3667 151.946 1.52588e-05 193.995 1.52588e-05C247.564 1.52588e-05 296.06 21.7103 331.171 56.8129C346.266 71.9079 358.883 89.4634 368.333 108.832C370.513 113.26 337.803 118.896 339.633 123.502C341.464 128.108 377.835 131.675 379.316 136.451C384.961 154.628 388 173.955 388 194.013Z" fill="#14723F"/>
</mask>
<g mask="url(#mask0_2003_2048)">
<path opacity="0.4" d="M-26.5 391.893C-4.99998 402.559 54.5 436.672 94.5 437.072C144.5 437.572 202 366.393 249.5 366.393C302.972 366.393 346 436.893 387 419.893" stroke="#E7FFDC"/>
<path opacity="0.4" d="M-15.5141 114.072C5.98595 124.739 76.788 34.6718 116.788 35.0718C166.788 35.5718 158.488 205.208 182.238 164.072C302.327 -43.9279 290.672 363.572 387 4.07211" stroke="#E7FFDC"/>
<path opacity="0.4" d="M387 324.573C262 386.573 246.5 221.173 206.5 221.573C156.5 222.073 98.5 285.073 64 276.073C12.2596 262.575 14.5 369.573 -26.5 352.573" stroke="#E7FFDC"/>
<path opacity="0.4" d="M387 188.151C207.501 367.65 198.499 342.15 156.93 270.15C131.928 226.847 103 137.65 68.5 128.65C16.7596 115.153 14.5 233.151 -26.5 216.151" stroke="#E7FFDC"/>
</g>
<g clip-path="url(#clip0_2003_2048)">
<path opacity="0.46" d="M119.994 561.572C174.668 561.572 218.989 553.39 218.989 543.297C218.989 533.205 174.668 525.023 119.994 525.023C65.3213 525.023 21 533.205 21 543.297C21 553.39 65.3213 561.572 119.994 561.572Z" fill="#8CA381"/>
<path d="M84.8146 546.295L99.4998 383.41H139.954L155.186 546.295" stroke="#461926" stroke-width="2.34288" stroke-miterlimit="10" stroke-linecap="round" stroke-linejoin="round"/>
<path d="M167.864 353.236V379.585C167.864 381.699 165.879 383.41 163.426 383.41H160.471L150.536 422.443C149.633 426.022 146.51 428.918 142.418 429.914C127.097 433.638 111.788 433.66 96.4669 429.914C92.3746 428.918 89.2525 426.022 88.3493 422.443L78.4142 383.41H75.4258C72.9616 383.41 70.9879 381.71 70.9879 379.585V353.236C77.0761 357.832 96.4557 361.199 119.426 361.199C142.396 361.199 161.776 357.832 167.864 353.236Z" fill="#FF6C37"/>
<path d="M167.864 353.448C167.864 354.522 167.195 355.551 165.946 356.546C160.092 361.143 141.493 364.509 119.426 364.509C97.3589 364.509 78.7487 361.154 72.9058 356.546C71.657 355.551 70.9879 354.522 70.9879 353.448C70.9879 347.353 92.6757 342.41 119.426 342.41C146.176 342.41 167.864 347.364 167.864 353.448Z" fill="#461926"/>
<path d="M160.471 383.41C160.471 383.41 113.806 389.975 89.0851 383.41C89.0851 383.41 124.131 394.65 158.575 390.825L160.471 383.41Z" fill="#FC4D0E"/>
<path opacity="0.63" d="M73.7755 371.085C73.7755 366.612 79.1946 363.436 84.4577 364.845C91.9508 366.847 103.235 368.759 117.753 368.111C132.16 367.462 141.883 366.534 147.938 365.784C152.688 365.203 157.07 368.032 157.304 371.902C157.449 374.329 157.237 376.633 156.122 377.528C153.658 379.518 104.384 380.57 80.6442 377.583C76.6858 377.08 73.7755 374.318 73.7755 371.085Z" fill="#FF8E65"/>
<path opacity="0.63" d="M87.2119 386.296C84.9929 385.871 83.0639 387.862 83.5657 390.076C85.7735 399.817 90.9139 421.604 93.5231 424.556C96.8906 428.381 125.157 431.535 131 427.71C136.074 424.389 125.547 400.611 122.704 394.438C122.28 393.521 121.444 392.861 120.452 392.671L87.2119 386.296Z" fill="#FF8E65"/>
<path d="M107.919 340.844C107.919 340.844 108.175 278.347 85.584 272.118" stroke="#18AC46" stroke-width="1.38488" stroke-miterlimit="10"/>
<path d="M112.635 341.437C112.635 341.437 110.294 244.225 95.8202 225.771" stroke="#18AC46" stroke-width="1.38488" stroke-miterlimit="10"/>
<path d="M87.2342 265.989C87.2342 265.989 85.1156 265.419 83.2758 260.889C81.4359 256.36 69.884 250.119 62.8591 250.723C55.8455 251.316 54.0279 254.995 54.0279 254.995C54.0279 254.995 68.5571 256.214 69.7167 258.238C70.8764 260.263 53.8384 254.425 49.1328 257.612C44.4273 260.811 43.6691 263.316 43.6691 263.316C43.6691 263.316 58.4658 258.63 62.034 263.54C65.6022 268.449 43.6691 263.786 39.3538 268.617C35.0386 273.449 33.7117 280.014 33.7117 280.014C33.7117 280.014 59.068 269.534 63.216 273.762C67.364 278.001 37.6032 278.694 32.3178 283.056C27.0436 287.406 28.0026 305.111 28.0026 305.111C28.0026 305.111 53.3812 284.666 57.1389 286.769C60.8967 288.883 38.4841 303.825 31.2808 306.732C24.0776 309.64 30.9798 322.256 32.8085 322.927C34.6372 323.598 42.6655 304.473 49.6012 306.967C56.5368 309.461 38.0492 319.74 37.4917 325.242C36.9342 330.745 42.0411 338.35 42.0411 338.35C42.0411 338.35 56.18 337.925 58.2874 337.052C60.406 336.18 56.0462 315.523 61.9448 311.598C67.8434 307.672 64.9666 335.319 64.9666 335.319C64.9666 335.319 75.0578 333.843 77.2879 329.358C79.5069 324.862 69.1146 292.417 74.9463 289.722C80.7781 287.026 87 319.572 85.3498 322.905C85.3498 322.905 94.3482 316.731 96.1323 310.938C97.9164 305.144 83.0082 285.069 85.5282 282.172C88.0482 279.276 95.9985 288.659 97.3143 292.193C98.6189 295.739 101.451 302.382 101.451 302.382C101.451 302.382 107.417 295.783 106.034 289.498C104.651 283.212 94.5378 277.441 94.3817 274.847C94.2256 272.241 105.287 280.461 107.171 283.928C109.056 287.395 109.056 287.395 109.056 287.395C109.056 287.395 108.086 273.728 102.377 269.613C96.6564 265.508 89.5089 267.969 87.2342 265.989Z" fill="#19CE5D"/>
<path d="M86.8663 267.465C87.2231 267.823 87.8141 269.557 92.9991 269.255C98.1952 268.953 102.689 271.145 102.432 273.124C102.176 275.093 91.8505 269.769 90.0442 270.854C88.2489 271.939 97.2809 278.437 95.9874 281.043C94.6939 283.649 87.3792 272.599 83.7887 276.222C80.1982 279.846 80.7781 284.834 85.9965 292.495C91.2038 300.145 89.8658 306.498 88.8065 305.357C87.7583 304.216 79.8414 284.912 76.9534 285.651C74.0655 286.378 71.4562 286.579 70.5865 296.32C69.7167 306.073 75.1136 318.095 72.3594 319.639C69.6164 321.182 68.401 303.265 64.0746 303.265C59.7482 303.265 57.5738 323.676 52.9575 325.712C48.3412 327.747 61.0305 301.767 59.5921 301.04C58.1536 300.313 48.2185 305.838 45.3305 305.122C42.4425 304.406 59.1572 294.665 62.8146 288.368C66.4719 282.061 60.7071 282.441 56.2358 284.185C51.7644 285.93 42.9778 289.14 43.0447 287.552C43.1116 285.964 64.3199 280.584 66.0705 278.146C67.8212 275.708 69.0366 272.151 64.2753 270.507C59.514 268.852 52.3665 271.57 51.3184 270.798C50.2814 270.038 59.0011 267.331 64.476 267.532C69.9621 267.734 70.6088 266.436 69.516 264.625C68.4344 262.824 61.3538 261.829 63.2271 260.587C65.1004 259.357 75.2809 266.056 76.4405 264.457C77.589 262.858 74.5895 258.384 72.5044 256.762C70.4304 255.141 75.0356 254.19 78.7264 259.1C82.4172 264.009 87.8587 266.38 87.8587 266.38" fill="#18AC46"/>
<path d="M41.7624 322.547C41.7624 322.547 38.9302 324.146 39.0751 326.506C39.2201 328.866 41.885 335.375 42.5095 335.8C43.1339 336.236 54.251 337.31 55.734 335.039C57.217 332.769 56.102 329.928 53.3701 331.572C50.6382 333.216 45.7766 333.328 45.5313 331.639C45.286 329.951 47.0143 328.407 43.5465 327.401C40.0898 326.405 41.7624 322.547 41.7624 322.547Z" fill="#18AC46"/>
<path d="M67.3751 325.142L66.9291 333.071C66.9291 333.071 74.4334 331.259 75.4592 329.168C76.4851 327.076 75.3366 319.952 74.5895 320.746C73.8313 321.54 72.3148 328.486 71.5454 328.105C70.776 327.725 71.144 326.976 70.2631 326.573C69.3822 326.182 69.4826 329.358 68.9585 329.224C68.4233 329.078 67.3751 325.142 67.3751 325.142Z" fill="#22B147"/>
<path d="M87.4349 319.773C87.4349 319.773 94.5378 312.716 94.5712 310.446C94.6158 308.175 92.3411 303.556 92.1516 303.936C91.962 304.317 91.8505 311.251 91.1926 311.765C90.5347 312.28 89.6092 309.294 88.8956 310.502C88.182 311.709 89.5312 314.069 88.9068 314.841C88.2823 315.613 86.7324 309.305 86.7324 309.305L87.4349 319.773Z" fill="#22B147"/>
<path d="M101.574 299.474C101.574 299.474 103.938 293.848 104.596 290.627C105.253 287.406 100.57 282.597 99.8455 282.843C99.1207 283.089 102.845 288.67 102.655 289.062C102.466 289.453 97.8941 286.568 99.3325 289.218C100.782 291.858 101.574 299.474 101.574 299.474Z" fill="#22B147"/>
<path d="M36.4547 316.284C36.4547 316.284 33.6783 320.925 33.143 320.78C32.619 320.634 29.3184 312.257 29.8425 310.468C30.3665 308.679 40.3574 302.818 41.6955 303.254C43.0447 303.679 33.3883 310.792 34.0128 311.586C34.6372 312.38 37.3356 310.11 37.5698 311.072C37.8151 312.034 34.9383 314.215 34.7933 315.221C34.6484 316.228 36.9008 315.568 36.4547 316.284Z" fill="#18AC46"/>
<path d="M36.7335 296.555L29.1623 302.169C29.1623 302.169 29.0284 287.652 32.2956 285.181C35.5627 282.709 44.2601 280.909 44.5054 281.87C44.7507 282.832 33.7897 286.288 34.5145 287.731C35.2393 289.174 37.9266 287.865 38.3614 288.681C38.7963 289.498 32.251 293.457 33.7674 295.537C35.2727 297.64 35.3285 295.012 36.7335 296.555Z" fill="#18AC46"/>
<path d="M43.2789 275.607L35.7634 277.441C35.7634 277.441 39.0305 270.362 41.0934 269.344C43.1562 268.326 49.7016 267.734 49.7016 268.449C49.7016 269.176 40.402 271.469 41.1603 272.118C41.9296 272.767 44.9514 275.205 43.2789 275.607Z" fill="#18AC46"/>
<path d="M99.8789 202.855C99.8789 202.855 101.596 203.761 105.499 201.949C109.401 200.137 120.619 203.09 124.789 207.72C128.96 212.35 127.934 215.817 127.934 215.817C127.934 215.817 117.82 207.821 115.858 208.436C113.895 209.04 128.402 215.571 129.528 220.47C130.643 225.38 129.629 227.46 129.629 227.46C129.629 227.46 122.871 215.504 117.619 216.511C112.368 217.529 129.339 227.762 129.216 233.499C129.104 239.226 126.016 244.27 126.016 244.27C126.016 244.27 115.947 222.17 110.717 222.394C105.499 222.617 124.299 241.06 125.09 247.066C125.882 253.072 114.631 263.92 114.631 263.92C114.631 263.92 110.528 235.378 106.837 234.472C103.146 233.567 108.632 256.762 111.542 262.992C114.442 269.232 102.41 273.203 100.827 272.532C99.2434 271.861 105.543 254.66 99.5667 252.076C93.59 249.493 99.3549 267.309 96.4111 271.201C93.4674 275.093 85.5951 276.916 85.5951 276.916C85.5951 276.916 76.7193 268.103 75.883 266.257C75.0467 264.412 90.2672 253.709 88.8065 247.603C87.3458 241.496 72.6047 261.102 72.6047 261.102C72.6047 261.102 66.9737 254.056 68.2337 249.806C69.4938 245.556 95.7086 230.882 93.5566 225.615C91.4045 220.347 67.8435 237.604 66.9068 240.758C66.9068 240.758 64.7994 231.33 67.1298 226.509C69.4491 221.689 91.1369 217.73 91.2596 214.341C91.3711 210.952 80.5997 212.194 77.6225 213.692C74.6453 215.191 68.8247 217.775 68.8247 217.775C68.8247 217.775 68.9362 209.901 73.6083 206.68C78.2804 203.459 88.2712 205.841 89.9327 204.253C91.5941 202.665 79.5181 201.289 76.2175 202.385C72.917 203.481 72.917 203.481 72.917 203.481C72.917 203.481 81.7593 195.239 87.9144 196.033C94.0807 196.849 97.2251 202.766 99.8789 202.855Z" fill="#19CE5D"/>
<path d="M99.221 204.041C98.775 204.052 97.3477 204.823 94.1809 201.491C91.0142 198.158 86.7881 196.86 85.7734 198.292C84.7587 199.724 94.627 202.52 95.1287 204.309C95.6417 206.098 85.9072 204.835 85.1713 207.295C84.4354 209.756 95.7978 207.038 95.9427 211.556C96.0877 216.075 92.7091 218.938 84.7476 220.727C76.7861 222.517 73.8312 227.438 75.2027 227.337C76.5743 227.236 93.2666 219.553 94.6939 221.767C96.1211 223.982 97.6934 225.693 92.3969 232.504C87.1004 239.326 76.3958 243.833 77.2433 246.495C78.0907 249.157 89.6315 238.32 92.4192 240.926C95.2068 243.543 84.3573 258.037 86.1191 262.142C87.8697 266.246 95.2848 241.798 96.6564 242.189C98.0279 242.592 101.128 252.166 103.425 253.441C105.722 254.727 100.782 238.342 102.198 232.057C103.614 225.771 107.116 229.507 108.955 233.332C110.795 237.157 114.542 244.538 115.456 243.476C116.371 242.402 105.9 226.118 106.235 223.478C106.569 220.839 107.918 217.819 111.988 219.631C116.058 221.443 119.047 227.516 120.173 227.65C121.31 227.784 117.296 220.772 113.627 217.584C109.97 214.397 110.327 213.167 112.122 212.664C113.906 212.149 119.069 215.784 118.601 213.86C118.132 211.937 107.528 210.102 107.74 208.38C107.952 206.658 112.59 205.584 114.899 205.785C117.218 205.998 114.809 202.587 109.479 203.526C104.15 204.466 99.2098 202.71 99.2098 202.71" fill="#18AC46"/>
<path d="M95.2737 266.861C95.2737 266.861 96.1435 269.602 94.627 271.044C93.1105 272.476 87.4795 275.071 86.8216 274.97C86.1526 274.869 78.3361 268.852 78.7375 266.492C79.1389 264.133 81.5697 262.969 82.3503 265.687C83.1308 268.405 86.1972 271.413 87.368 270.463C88.5388 269.523 88.3493 267.477 91.1926 268.919C94.036 270.373 95.2737 266.861 95.2737 266.861Z" fill="#18AC46"/>
<path d="M77.1764 253.071L72.705 258.462C72.705 258.462 68.9473 252.758 69.5383 250.79C70.1293 248.821 75.147 244.907 75.1582 245.88C75.1693 246.853 71.9803 252.255 72.705 252.467C73.4298 252.68 73.6417 251.975 74.4557 252.255C75.2697 252.535 73.2849 254.525 73.7086 254.76C74.1323 254.984 77.1764 253.071 77.1764 253.071Z" fill="#18AC46"/>
<path d="M67.4421 237.47C67.4421 237.47 67.0964 228.623 68.4345 227.136C69.7725 225.648 74.0097 224.038 73.9094 224.396C73.7979 224.765 69.7056 229.305 69.8171 230.032C69.9286 230.759 72.326 229.384 72.0584 230.603C71.7908 231.822 69.5049 232.526 69.4492 233.399C69.3823 234.271 74.1881 231.14 74.1881 231.14L67.4421 237.47Z" fill="#18AC46"/>
<path d="M70.4972 215.829C70.4972 215.829 72.3482 210.762 73.8647 208.291C75.3811 205.808 81.2909 205.539 81.6143 206.132C81.9377 206.725 76.1728 208.089 76.0725 208.447C75.961 208.816 80.6553 209.711 78.1242 210.55C75.5819 211.389 70.4972 215.829 70.4972 215.829Z" fill="#18AC46"/>
<path d="M102.455 266.034C102.455 266.034 101.462 270.709 101.886 270.932C102.31 271.156 109.479 267.734 110.204 266.269C110.94 264.804 108.008 254.973 106.881 254.436C105.755 253.899 107.718 264.323 106.837 264.457C105.956 264.591 105.577 261.493 104.841 261.974C104.105 262.455 104.651 265.598 104.138 266.336C103.637 267.074 102.6 265.307 102.455 266.034Z" fill="#18AC46"/>
<path d="M114.129 253.116L115.646 261.325C115.646 261.325 124.455 252.031 123.83 248.464C123.206 244.896 118.668 238.476 117.932 238.946C117.196 239.427 122.191 248.274 120.864 248.766C119.526 249.258 118.578 246.786 117.809 247.054C117.04 247.323 118.891 253.821 116.66 254.268C114.43 254.704 115.969 252.971 114.129 253.116Z" fill="#18AC46"/>
<path d="M122.481 235.636L126.228 241.362C126.228 241.362 128.368 234.808 127.655 232.907C126.93 231.005 123.072 226.666 122.637 227.136C122.202 227.605 126.83 234.707 125.949 234.663C125.068 234.618 121.656 234.361 122.481 235.636Z" fill="#18AC46"/>
<path d="M140.344 184.424C140.344 184.424 118.523 298.758 129.35 348.237" stroke="#18AC46" stroke-width="1.38488" stroke-miterlimit="10"/>
<path d="M134.88 252.367C134.88 252.367 136.999 251.785 138.828 247.256C140.656 242.726 152.208 236.463 159.222 237.056C166.247 237.638 168.064 241.306 168.064 241.306C168.064 241.306 153.546 242.547 152.387 244.572C151.227 246.596 168.254 240.735 172.971 243.923C177.676 247.11 178.446 249.616 178.446 249.616C178.446 249.616 163.638 244.974 160.081 249.884C156.512 254.794 178.446 250.097 182.772 254.928C187.098 259.76 188.436 266.313 188.436 266.313C188.436 266.313 163.058 255.867 158.921 260.106C154.784 264.345 184.545 265.005 189.83 269.355C195.116 273.706 194.179 291.399 194.179 291.399C194.179 291.399 168.778 270.988 165.02 273.102C161.263 275.216 183.697 290.135 190.912 293.032C198.126 295.929 191.235 308.556 189.407 309.227C187.578 309.898 179.527 290.795 172.592 293.289C165.667 295.795 184.155 306.05 184.734 311.542C185.303 317.044 180.196 324.649 180.196 324.649C180.196 324.649 166.057 324.247 163.95 323.374C161.831 322.502 166.158 301.845 160.248 297.931C154.338 294.016 157.26 321.652 157.26 321.652C157.26 321.652 147.168 320.198 144.938 315.702C142.708 311.217 153.056 278.75 147.224 276.066C141.381 273.382 135.215 305.927 136.876 309.26C136.876 309.26 127.867 303.098 126.072 297.316C124.276 291.522 139.151 271.436 136.631 268.539C134.111 265.642 126.161 275.037 124.867 278.582C123.563 282.128 120.742 288.782 120.742 288.782C120.742 288.782 114.765 282.195 116.136 275.898C117.519 269.602 127.621 263.831 127.766 261.225C127.911 258.619 116.872 266.85 114.988 270.328C113.103 273.796 113.103 273.796 113.103 273.796C113.103 273.796 114.051 260.129 119.76 256.002C125.458 251.897 132.617 254.346 134.88 252.367Z" fill="#18AC46"/>
<path d="M135.248 253.854C134.892 254.212 134.312 255.946 129.116 255.655C123.919 255.364 119.437 257.567 119.693 259.536C119.95 261.504 130.275 256.169 132.07 257.254C133.877 258.339 124.845 264.837 126.15 267.443C127.443 270.049 134.747 258.988 138.348 262.611C141.95 266.235 141.37 271.223 136.163 278.884C130.967 286.545 132.316 292.898 133.364 291.746C134.412 290.594 142.296 271.29 145.184 272.017C148.072 272.744 150.681 272.934 151.562 282.676C152.443 292.417 147.068 304.451 149.822 305.994C152.576 307.538 153.758 289.621 158.074 289.61C162.4 289.599 164.608 310.009 169.224 312.034C173.84 314.069 161.106 288.1 162.545 287.373C163.983 286.635 173.93 292.149 176.818 291.433C179.706 290.717 162.98 280.998 159.311 274.701C155.643 268.405 161.408 268.774 165.879 270.519C170.35 272.263 179.148 275.451 179.07 273.863C179.003 272.274 157.784 266.928 156.022 264.49C154.271 262.052 153.045 258.507 157.806 256.84C162.567 255.185 169.715 257.881 170.763 257.12C171.8 256.348 163.08 253.664 157.594 253.877C152.108 254.089 151.461 252.781 152.554 250.98C153.636 249.168 160.705 248.173 158.832 246.931C156.958 245.701 146.778 252.412 145.63 250.823C144.481 249.235 147.481 244.751 149.555 243.129C151.629 241.507 147.012 240.557 143.333 245.477C139.653 250.387 134.211 252.769 134.211 252.769" fill="#19CE5D"/>
<path d="M180.43 308.857C180.43 308.857 183.263 310.457 183.118 312.817C182.973 315.176 180.319 321.686 179.694 322.122C179.07 322.558 167.964 323.654 166.47 321.384C164.987 319.113 166.091 316.272 168.834 317.917C171.577 319.561 176.427 319.661 176.673 317.972C176.918 316.284 175.19 314.74 178.646 313.734C182.114 312.716 180.43 308.857 180.43 308.857Z" fill="#18BB55"/>
<path d="M154.829 311.486L155.286 319.415C155.286 319.415 147.782 317.615 146.745 315.523C145.708 313.443 146.845 306.308 147.603 307.102C148.361 307.896 149.889 314.841 150.658 314.461C151.428 314.08 151.06 313.32 151.941 312.928C152.822 312.537 152.721 315.713 153.257 315.568C153.792 315.434 154.829 311.486 154.829 311.486Z" fill="#18BB55"/>
<path d="M134.758 306.151C134.758 306.151 127.655 299.105 127.599 296.835C127.555 294.564 129.818 289.945 130.008 290.326C130.197 290.717 130.32 297.64 130.978 298.154C131.636 298.669 132.55 295.683 133.275 296.891C134 298.099 132.65 300.458 133.275 301.23C133.899 302.002 135.449 295.683 135.449 295.683L134.758 306.151Z" fill="#18BB55"/>
<path d="M120.597 285.874C120.597 285.874 118.222 280.249 117.564 277.028C116.906 273.807 121.578 268.998 122.303 269.232C123.027 269.478 119.314 275.059 119.504 275.451C119.693 275.842 124.265 272.946 122.827 275.596C121.377 278.258 120.597 285.874 120.597 285.874Z" fill="#18BB55"/>
<path d="M185.727 302.594C185.727 302.594 188.514 307.225 189.039 307.079C189.563 306.934 192.852 298.546 192.317 296.768C191.793 294.978 181.791 289.14 180.453 289.565C179.103 290.001 188.771 297.092 188.147 297.886C187.511 298.68 184.824 296.41 184.578 297.383C184.333 298.345 187.221 300.525 187.366 301.532C187.511 302.55 185.292 301.879 185.727 302.594Z" fill="#18BB55"/>
<path d="M185.426 282.866L193.008 288.469C193.008 288.469 193.12 273.952 189.853 271.492C186.585 269.031 177.888 267.23 177.643 268.204C177.397 269.177 188.358 272.599 187.634 274.053C186.909 275.495 184.222 274.198 183.787 275.015C183.352 275.831 189.897 279.779 188.392 281.87C186.898 283.951 186.831 281.311 185.426 282.866Z" fill="#18BB55"/>
<path d="M178.847 261.929L186.362 263.752C186.362 263.752 183.084 256.673 181.021 255.655C178.958 254.637 172.413 254.056 172.413 254.771C172.413 255.498 181.724 257.78 180.954 258.429C180.196 259.089 177.174 261.527 178.847 261.929Z" fill="#18BB55"/>
<path d="M48.6423 546.295L78.4142 383.41H160.471L191.358 546.295" stroke="#461926" stroke-width="2.34288" stroke-miterlimit="10" stroke-linecap="round" stroke-linejoin="round"/>
<path d="M105.989 319.572C105.989 319.572 108.253 319.247 110.74 314.796C113.226 310.345 125.982 305.368 133.174 306.878C140.367 308.399 141.783 312.436 141.783 312.436C141.783 312.436 126.584 311.832 125.124 313.778C123.663 315.724 142.05 311.866 146.522 315.78C150.982 319.695 151.45 322.39 151.45 322.39C151.45 322.39 136.72 315.657 132.394 320.288C128.067 324.918 151.383 322.893 155.241 328.452C159.088 334.01 159.635 340.978 159.635 340.978C159.635 340.978 134.713 326.864 129.874 330.722C125.046 334.57 155.777 339.121 160.683 344.311C165.589 349.5 162.344 367.708 162.344 367.708C162.344 367.708 138.672 343.271 134.512 344.982C130.353 346.682 151.651 365.035 158.743 368.983C165.834 372.92 157.081 385.099 155.096 385.558C153.112 386.016 147.246 365.191 139.742 366.88C132.249 368.569 150.067 381.587 149.956 387.358C149.833 393.129 143.567 400.343 143.567 400.343C143.567 400.343 128.982 398.095 126.908 396.921C124.834 395.746 131.981 374.91 126.361 370.09C120.753 365.27 120.206 394.27 120.206 394.27C120.206 394.27 109.937 391.452 108.208 386.508C106.48 381.576 121.388 349.299 115.69 345.765C109.992 342.231 99.3995 375.123 100.693 378.791C100.693 378.791 92.1628 371.242 91.0477 365.013C89.9327 358.783 107.941 339.916 105.7 336.583C103.458 333.261 94.0249 341.951 92.2185 345.452C90.4121 348.952 86.6321 355.473 86.6321 355.473C86.6321 355.473 81.291 347.867 83.5323 341.537C85.7735 335.196 96.9798 330.532 97.4704 327.859C97.961 325.186 85.4613 332.277 83.0639 335.621C80.6666 338.965 80.6666 338.965 80.6666 338.965C80.6666 338.965 83.4207 324.929 89.8546 321.406C96.2885 317.861 103.38 321.328 105.989 319.572Z" fill="#19CE5D"/>
<path d="M106.179 321.16C105.755 321.484 104.93 323.207 99.6001 322.234C94.259 321.249 89.3305 322.949 89.3416 325.03C89.3528 327.099 100.726 322.916 102.455 324.269C104.183 325.634 94.0025 331.192 95.0061 334.055C96.0096 336.918 104.997 326.417 108.253 330.633C111.52 334.849 110.271 339.938 103.893 347.196C97.515 354.455 98.0948 361.199 99.3325 360.148C100.57 359.096 111.219 340.128 114.118 341.258C117.006 342.387 119.693 342.924 119.348 353.124C119.002 363.335 111.888 375.089 114.531 377.047C117.173 379.004 120.719 360.606 125.191 361.154C129.662 361.713 129.327 383.12 133.843 385.826C138.359 388.533 128.536 359.991 130.119 359.421C131.702 358.85 141.292 365.84 144.369 365.471C147.447 365.102 131.39 352.867 128.402 345.877C125.414 338.876 131.335 340.005 135.739 342.387C140.143 344.77 148.841 349.221 148.975 347.566C149.108 345.91 127.822 337.623 126.328 334.86C124.823 332.109 124.02 328.273 129.16 327.177C134.301 326.081 141.359 329.805 142.541 329.145C143.712 328.486 135.025 324.571 129.327 324.079C123.629 323.587 123.117 322.155 124.477 320.422C125.837 318.688 133.286 318.565 131.502 317.055C129.718 315.534 118.311 321.171 117.329 319.371C116.337 317.57 120.028 313.32 122.381 311.911C124.745 310.502 120.084 308.913 115.635 313.533C111.186 318.14 105.253 319.907 105.253 319.907" fill="#18AC46"/>
<path d="M145.864 383.981C145.864 383.981 148.596 386.005 148.138 388.432C147.681 390.859 144.091 397.256 143.388 397.625C142.686 397.994 131.045 397.681 129.796 395.142C128.547 392.604 130.063 389.796 132.684 391.854C135.304 393.912 140.322 394.65 140.79 392.928C141.259 391.217 139.664 389.383 143.388 388.79C147.101 388.197 145.864 383.981 145.864 383.981Z" fill="#18AC46"/>
<path d="M119.013 383.388L118.467 391.664C118.467 391.664 110.929 388.823 110.126 386.531C109.323 384.238 111.42 377.002 112.1 377.919C112.78 378.836 113.471 386.229 114.319 385.927C115.166 385.625 114.876 384.797 115.846 384.506C116.817 384.216 116.304 387.492 116.861 387.414C117.43 387.325 119.013 383.388 119.013 383.388Z" fill="#18AC46"/>
<path d="M98.9199 375.246C98.9199 375.246 92.4749 367.026 92.7202 364.666C92.9655 362.317 95.9093 357.821 96.0542 358.235C96.1992 358.66 95.4298 365.851 96.0431 366.467C96.6564 367.082 97.9944 364.107 98.5854 365.449C99.1764 366.791 97.4704 369.061 98.0167 369.945C98.5631 370.828 100.983 364.487 100.983 364.487L98.9199 375.246Z" fill="#18AC46"/>
<path d="M86.8774 352.419C86.8774 352.419 85.149 346.291 84.8703 342.868C84.6026 339.446 90.0664 335.073 90.78 335.42C91.4937 335.766 86.9331 341.068 87.0781 341.493C87.223 341.918 92.33 339.524 90.4901 342.074C88.6614 344.635 86.8774 352.419 86.8774 352.419Z" fill="#18AC46"/>
<path d="M152.153 378.176C152.153 378.176 154.438 383.332 155.007 383.254C155.576 383.176 160.047 374.91 159.735 372.998C159.423 371.086 149.822 363.726 148.373 364.006C146.923 364.274 156.022 372.886 155.264 373.624C154.505 374.374 152.019 371.667 151.64 372.64C151.261 373.613 153.97 376.23 153.981 377.304C154.004 378.366 151.796 377.382 152.153 378.176Z" fill="#18AC46"/>
<path d="M154.383 357.709L161.508 364.498C161.508 364.498 163.493 349.478 160.437 346.503C157.371 343.528 148.596 340.542 148.216 341.504C147.837 342.466 158.743 347.454 157.806 348.852C156.869 350.25 154.249 348.55 153.703 349.344C153.145 350.138 159.412 355.07 157.594 357.038C155.765 359.029 156.044 356.289 154.383 357.709Z" fill="#18AC46"/>
<path d="M150.279 335.185L157.828 338.048C157.828 338.048 155.353 330.297 153.334 328.978C151.327 327.658 144.626 326.204 144.537 326.953C144.448 327.703 153.781 331.282 152.911 331.852C152.052 332.411 148.607 334.547 150.279 335.185Z" fill="#18AC46"/>
<path d="M119.994 490.934C152.609 490.934 179.048 486.657 179.048 481.383C179.048 476.108 152.609 471.831 119.994 471.831C87.3803 471.831 60.9412 476.108 60.9412 481.383C60.9412 486.657 87.3803 490.934 119.994 490.934Z" stroke="#461926" stroke-width="2.30774" stroke-miterlimit="10" stroke-linecap="round" stroke-linejoin="round"/>
<path d="M129.718 176.651C129.718 176.651 131.312 176.181 132.628 172.703C133.944 169.225 142.619 164.27 147.971 164.594C153.323 164.919 154.773 167.681 154.773 167.681C154.773 167.681 143.745 168.878 142.909 170.433C142.061 171.987 154.918 167.234 158.553 169.583C162.188 171.931 162.813 173.821 162.813 173.821C162.813 173.821 151.461 170.533 148.841 174.325C146.221 178.127 162.813 174.168 166.18 177.769C169.547 181.371 170.685 186.336 170.685 186.336C170.685 186.336 151.205 178.832 148.127 182.12C145.05 185.419 167.697 185.408 171.789 188.618C175.881 191.828 175.48 205.304 175.48 205.304C175.48 205.304 155.81 190.217 152.989 191.895C150.168 193.572 167.485 204.522 173.015 206.602C178.546 208.682 173.528 218.401 172.146 218.938C170.763 219.475 164.318 205.092 159.088 207.105C153.859 209.129 168.098 216.611 168.633 220.783C169.157 224.955 165.411 230.838 165.411 230.838C165.411 230.838 154.65 230.77 153.034 230.155C151.406 229.529 154.349 213.748 149.789 210.874C145.228 208 147.927 228.97 147.927 228.97C147.927 228.97 140.222 228.03 138.449 224.664C136.676 221.286 143.99 196.424 139.508 194.478C135.025 192.543 130.889 217.394 132.204 219.9C132.204 219.9 125.246 215.37 123.786 210.997C122.325 206.624 133.297 191.089 131.323 188.931C129.361 186.772 123.474 194.053 122.548 196.771C121.623 199.489 119.593 204.6 119.593 204.6C119.593 204.6 114.932 199.69 115.869 194.881C116.805 190.072 124.388 185.509 124.466 183.518C124.533 181.538 116.27 187.991 114.91 190.653C113.538 193.326 113.538 193.326 113.538 193.326C113.538 193.326 114.029 182.914 118.3 179.682C122.548 176.45 128.034 178.194 129.718 176.651Z" fill="#19CE5D"/>
<path d="M130.03 177.769C129.762 178.049 129.35 179.38 125.403 179.246C121.444 179.111 118.065 180.867 118.3 182.355C118.534 183.853 126.283 179.603 127.677 180.409C129.071 181.203 122.314 186.303 123.351 188.26C124.377 190.217 129.74 181.684 132.539 184.379C135.338 187.074 134.981 190.877 131.156 196.793C127.332 202.71 128.469 207.519 129.249 206.624C130.03 205.729 135.694 190.922 137.902 191.414C140.11 191.917 142.106 192.018 142.942 199.41C143.779 206.803 139.898 216.052 142.017 217.182C144.135 218.311 144.726 204.667 148.016 204.577C151.305 204.499 153.335 219.978 156.88 221.443C160.426 222.908 150.302 203.381 151.383 202.799C152.465 202.218 160.125 206.233 162.3 205.64C164.485 205.047 151.595 197.945 148.696 193.214C145.797 188.484 150.19 188.674 153.625 189.915C157.059 191.157 163.794 193.438 163.716 192.23C163.638 191.022 147.403 187.32 146.031 185.497C144.659 183.674 143.667 180.99 147.258 179.648C150.848 178.306 156.334 180.241 157.115 179.637C157.895 179.033 151.216 177.143 147.046 177.4C142.875 177.657 142.362 176.673 143.154 175.286C143.946 173.888 149.309 173.005 147.86 172.099C146.41 171.193 138.794 176.472 137.891 175.286C136.988 174.09 139.196 170.634 140.746 169.359C142.296 168.084 138.772 167.446 136.051 171.249C133.331 175.052 129.238 176.953 129.238 176.953" fill="#18AC46"/>
<path d="M165.333 218.826C165.333 218.826 167.518 219.989 167.44 221.79C167.373 223.59 165.466 228.578 164.998 228.925C164.53 229.272 156.1 230.29 154.929 228.59C153.758 226.89 154.55 224.709 156.669 225.905C158.776 227.102 162.478 227.102 162.634 225.816C162.79 224.53 161.452 223.378 164.061 222.561C166.671 221.734 165.333 218.826 165.333 218.826Z" fill="#18AC46"/>
<path d="M145.908 221.264L146.388 227.292C146.388 227.292 140.645 226.051 139.831 224.485C139.006 222.919 139.753 217.473 140.344 218.065C140.935 218.658 142.218 223.915 142.797 223.602C143.377 223.3 143.076 222.729 143.745 222.416C144.414 222.103 144.392 224.519 144.793 224.407C145.184 224.284 145.908 221.264 145.908 221.264Z" fill="#18AC46"/>
<path d="M130.543 217.551C130.543 217.551 125.012 212.317 124.945 210.595C124.867 208.872 126.518 205.316 126.663 205.606C126.819 205.897 127.019 211.165 127.532 211.545C128.045 211.925 128.692 209.633 129.261 210.539C129.829 211.444 128.848 213.267 129.328 213.838C129.818 214.419 130.877 209.588 130.877 209.588L130.543 217.551Z" fill="#18AC46"/>
<path d="M119.426 202.385C119.426 202.385 117.519 198.147 116.962 195.709C116.404 193.27 119.883 189.535 120.429 189.703C120.987 189.87 118.255 194.188 118.411 194.478C118.567 194.769 121.99 192.488 120.931 194.534C119.872 196.581 119.426 202.385 119.426 202.385Z" fill="#18AC46"/>
<path d="M169.246 213.972C169.246 213.972 171.443 217.45 171.845 217.327C172.246 217.204 174.599 210.773 174.164 209.42C173.729 208.067 166.035 203.795 165.02 204.152C164.006 204.499 171.477 209.733 171.008 210.348C170.54 210.963 168.455 209.286 168.288 210.024C168.12 210.762 170.35 212.362 170.473 213.133C170.596 213.905 168.901 213.435 169.246 213.972Z" fill="#18AC46"/>
<path d="M168.678 198.974L174.543 203.112C174.543 203.112 174.376 192.074 171.856 190.251C169.324 188.439 162.679 187.22 162.511 187.958C162.344 188.696 170.741 191.123 170.217 192.23C169.692 193.338 167.618 192.398 167.306 193.024C166.994 193.651 172.034 196.536 170.93 198.158C169.826 199.78 169.726 197.766 168.678 198.974Z" fill="#18AC46"/>
<path d="M163.326 183.16L169.068 184.424C169.068 184.424 166.459 179.1 164.864 178.362C163.281 177.624 158.297 177.288 158.308 177.848C158.319 178.396 165.433 179.973 164.864 180.476C164.296 180.979 162.043 182.88 163.326 183.16Z" fill="#18AC46"/>
</g>
<path d="M242.414 100.899C242.414 100.899 177.403 84.5423 175.31 100.899C173.21 117.256 225.641 132.774 225.641 132.774L242.414 100.899Z" fill="#FF8F68"/>
<path d="M409.765 190.203V305.572L375.777 287.538C375.777 287.538 352.302 297.608 334.677 289.638C326.264 285.827 315.375 279.353 306.291 273.624C303.842 272.08 301.541 270.598 299.454 269.236C294.523 266.036 290.766 263.486 289.27 262.453C288.794 262.138 288.545 261.963 288.545 261.963L287.23 260.4L281.118 253.121L278.884 250.477L275.335 246.237L272.558 242.95L264.359 233.195L264.212 233.014L266.761 230.169L267.251 229.626L268.418 228.311L271.196 225.224L276.731 219.065L277.241 218.488L277.455 218.26L287.358 207.224L302.145 190.747L312.953 178.704L317.307 173.84L322.923 167.58C322.923 167.58 321.956 164.823 320.507 160.207C319.669 157.53 318.682 154.229 317.636 150.465C316.898 147.822 316.126 144.944 315.368 141.905C314.677 139.194 314.006 136.349 313.349 133.431C309.672 116.739 306.975 97.3766 310.014 83.8243C310.444 81.9659 310.967 80.2282 311.625 78.6181C312.758 75.713 314.301 73.2441 316.287 71.3253C318.77 68.9302 322.856 69.6682 324.271 72.8214C331.403 88.9366 355.649 140.039 389.208 172.203C396.326 179.019 403.23 184.983 409.765 190.203Z" fill="#FF8F68"/>
<path d="M194.102 66.2802V79.2354L291.625 279.709L384.451 241.125L385.934 233.758L194.102 66.2802Z" fill="#189950"/>
<path d="M194.102 66.2802L293.711 271.604L385.934 233.758L291.974 37.5721L194.102 66.2802Z" fill="#37493F"/>
<path d="M206.762 72.5532L294.1 252.564L374.945 219.381L292.571 47.3875L206.762 72.5532Z" fill="#FFFEEF"/>
<path d="M220.744 134.719C220.744 134.719 198.55 137.893 205.46 156.691C212.371 175.49 232.578 182.407 232.578 182.407L232.196 186.184C232.196 186.184 197.779 184.031 215.249 209.854C215.249 209.854 225.91 226.519 257.006 232.061C257.006 232.061 239.475 240.219 244.252 255.684C249.029 271.155 280.018 266.21 285.016 263.218C290.015 260.226 288.203 247.244 282.729 245.204C277.254 243.164 275.161 243.607 275.161 243.607L272.115 233.155C272.115 233.155 280.662 228.029 275.926 216.758C271.189 205.486 254.577 201.327 254.577 201.327L247.13 184.91C247.13 184.91 256.476 182.991 254.685 172.109C252.893 161.22 231.404 152.223 231.404 152.223L220.744 134.719Z" fill="#FF8F68"/>
<path d="M228.466 150.72C228.466 150.72 256.49 163.078 254.718 174.209C253.316 183.051 248.982 187.13 232.578 182.414" stroke="#37493F" stroke-width="1.48335" stroke-miterlimit="10" stroke-linecap="round" stroke-linejoin="round"/>
<path d="M237.456 187.815C237.456 187.815 209.486 180.562 210.948 200.052C212.411 219.542 243.132 228.653 248.808 230.27C254.49 231.886 273.853 237.837 277.281 225.982C280.857 213.645 267.063 205.399 244.601 196.409" stroke="#37493F" stroke-width="1.48335" stroke-miterlimit="10" stroke-linecap="round" stroke-linejoin="round"/>
<path d="M261.87 242.078C261.87 242.078 284.802 242.393 287.116 249.357C289.424 256.321 290.088 266.103 272.477 266.291C254.866 266.478 243.635 262.681 243.789 250.658" stroke="#37493F" stroke-width="1.48335" stroke-miterlimit="10" stroke-linecap="round" stroke-linejoin="round"/>
<path d="M248.848 167.788C247.734 172.162 246.48 176.503 245.091 180.797C245.091 180.797 224.474 179.14 226.56 168.426C229.539 153.082 248.848 167.788 248.848 167.788Z" stroke="#37493F" stroke-width="1.48335" stroke-miterlimit="10" stroke-linecap="round" stroke-linejoin="round"/>
<path d="M267.613 230.276L273.336 216.516C273.336 216.516 255.872 204.4 251.209 213.115C243.206 228.089 267.613 230.276 267.613 230.276Z" stroke="#37493F" stroke-width="1.48335" stroke-miterlimit="10" stroke-linecap="round" stroke-linejoin="round"/>
<path d="M280.971 250.544L281.662 262.842C281.662 262.842 263.816 267.505 262.32 258.293C260.824 249.082 280.971 250.544 280.971 250.544Z" stroke="#37493F" stroke-width="1.48335" stroke-miterlimit="10" stroke-linecap="round" stroke-linejoin="round"/>
<path d="M224.38 84.5423L227.734 92.0967L291.907 69.8628L287.713 61.4765L224.38 84.5423Z" fill="#37493F"/>
<path d="M277.643 126.762C285.673 126.762 292.182 120.253 292.182 112.224C292.182 104.194 285.673 97.6853 277.643 97.6853C269.614 97.6853 263.105 104.194 263.105 112.224C263.105 120.253 269.614 126.762 277.643 126.762Z" fill="#FF8A00"/>
<path d="M277.361 86.7831V94.6126" stroke="#FF8A00" stroke-width="1.48335" stroke-miterlimit="10"/>
<path d="M277.361 130.399V138.228" stroke="#FF8A00" stroke-width="1.48335" stroke-miterlimit="10"/>
<path d="M295.556 94.3174L290.021 99.8523" stroke="#FF8A00" stroke-width="1.48335" stroke-miterlimit="10"/>
<path d="M264.708 125.159L259.173 130.694" stroke="#FF8A00" stroke-width="1.48335" stroke-miterlimit="10"/>
<path d="M303.091 112.506H295.261" stroke="#FF8A00" stroke-width="1.48335" stroke-miterlimit="10"/>
<path d="M259.468 112.506H251.639" stroke="#FF8A00" stroke-width="1.48335" stroke-miterlimit="10"/>
<path d="M295.556 130.694L290.021 125.159" stroke="#FF8A00" stroke-width="1.48335" stroke-miterlimit="10"/>
<path d="M264.708 99.8523L259.173 94.3174" stroke="#FF8A00" stroke-width="1.48335" stroke-miterlimit="10"/>
<path d="M258.911 156.121L319.306 130.962" stroke="#37493F" stroke-width="1.48335" stroke-miterlimit="10" stroke-linecap="round" stroke-linejoin="round"/>
<path d="M262.125 164.091L322.52 138.926" stroke="#37493F" stroke-width="1.48335" stroke-miterlimit="10" stroke-linecap="round" stroke-linejoin="round"/>
<path d="M265.48 172.203L325.875 147.037" stroke="#37493F" stroke-width="1.48335" stroke-miterlimit="10" stroke-linecap="round" stroke-linejoin="round"/>
<path d="M269.257 181.569L329.652 156.403" stroke="#37493F" stroke-width="1.48335" stroke-miterlimit="10" stroke-linecap="round" stroke-linejoin="round"/>
<path d="M287.854 182.655C287.854 182.655 280.823 195.926 286.097 205.238C291.37 214.55 300.669 213.759 305.077 210.679C309.478 207.606 309.558 197.804 304.828 193.008C300.098 188.224 287.854 182.655 287.854 182.655Z" fill="#9FB8FF"/>
<path d="M310.92 179.61L336.643 168.15" stroke="#37493F" stroke-width="1.48335" stroke-miterlimit="10" stroke-linecap="round" stroke-linejoin="round"/>
<path d="M313.711 188.003L340.836 175.135" stroke="#37493F" stroke-width="1.48335" stroke-miterlimit="10" stroke-linecap="round" stroke-linejoin="round"/>
<path d="M318.186 196.946L344.19 184.923" stroke="#37493F" stroke-width="1.48335" stroke-miterlimit="10" stroke-linecap="round" stroke-linejoin="round"/>
<defs>
<clipPath id="clip0_2003_2048">
<rect width="198" height="397" fill="white" transform="translate(21 164.572)"/>
</clipPath>
</defs>
</svg>
