<svg width="27" height="27" viewBox="0 0 27 27" fill="none" xmlns="http://www.w3.org/2000/svg">
<path d="M24.6481 7.40848C23.7702 6.82456 22.6947 6.66904 21.5374 6.96297C20.1205 7.32412 18.6284 8.31663 17.11 9.91941C16.9677 10.0684 16.7357 10.0749 16.5867 9.93259C16.509 9.85878 16.4721 9.75992 16.4721 9.66238C16.4721 9.57144 16.5063 9.48049 16.5736 9.40931C18.1118 7.78676 19.0371 6.2209 19.3231 4.75653C19.559 3.55839 19.3468 2.46837 18.7088 1.60503C17.6017 0.103744 15.4361 -0.436679 13.7726 0.380536C12.8183 0.849762 12.1356 1.7131 11.7981 2.88094C11.3829 4.31106 11.4871 6.13394 12.1013 8.29024C12.1118 8.32451 12.1145 8.35746 12.1145 8.39173C12.1145 8.55385 12.0103 8.69884 11.8482 8.7463C11.6531 8.80429 11.4462 8.6883 11.3921 8.49323C10.7779 6.35002 9.91458 4.76162 8.81795 3.77329C7.9243 2.96664 6.89751 2.59888 5.85226 2.70696C3.98589 2.90203 2.41995 4.54303 2.28566 6.44228C2.20789 7.51519 2.60595 8.54725 3.43635 9.42905C4.45258 10.5085 6.05536 11.3258 8.20386 11.8649C8.37258 11.9057 8.4833 12.0573 8.4833 12.2221C8.4833 12.2524 8.47934 12.2827 8.47275 12.313C8.42266 12.512 8.22364 12.6307 8.02461 12.5832C5.88934 12.0507 4.10337 12.0125 2.71418 12.4817C1.58063 12.8626 0.750255 13.5784 0.321891 14.5537C-0.443901 16.2883 0.203265 18.5448 1.76915 19.5915C2.647 20.1754 3.72255 20.331 4.87982 20.037C6.29675 19.6759 7.78882 18.6834 9.30721 17.0806C9.44956 16.9316 9.68155 16.9251 9.83049 17.0674C9.90826 17.1412 9.94516 17.2401 9.94516 17.3376C9.94516 17.4286 9.91089 17.5195 9.84367 17.5907C8.30547 19.2132 7.38018 20.7791 7.09418 22.2435C6.85824 23.4416 7.07045 24.5316 7.7084 25.395C8.81556 26.8963 10.9812 27.4367 12.6446 26.6195C13.5989 26.1502 14.2817 25.2869 14.6191 24.1191C15.0343 22.6889 14.9302 20.8661 14.316 18.7098C14.3054 18.6755 14.3028 18.6425 14.3028 18.6083C14.3028 18.4461 14.4069 18.3012 14.569 18.2537C14.7641 18.1957 14.971 18.3117 15.0251 18.5068C15.6393 20.65 16.5026 22.2384 17.5993 23.2267C18.4929 24.0334 19.5197 24.4011 20.565 24.293C22.4313 24.098 23.9973 22.457 24.1316 20.5577C24.2093 19.4848 23.8113 18.4528 22.9809 17.571C21.9647 16.4915 20.3619 15.6742 18.2134 15.1351C18.0447 15.0943 17.9339 14.9427 17.9339 14.7779C17.9339 14.7476 17.9379 14.7173 17.9445 14.687C17.9946 14.488 18.1936 14.3693 18.3926 14.4168C20.5279 14.9493 22.3139 14.9875 23.7031 14.5183C24.8366 14.1374 25.667 13.4216 26.0953 12.4463C26.8611 10.7117 26.214 8.45518 24.6481 7.40848ZM13.21 16.2528C11.7113 16.2528 10.4934 15.0177 10.4934 13.4993C10.4934 11.9809 11.7113 10.7458 13.21 10.7458C14.7086 10.7458 15.9265 11.9809 15.9265 13.4993C15.9265 15.0177 14.7086 16.2528 13.21 16.2528Z" fill="#5CA365"/>
</svg>
