<svg width="30" height="30" viewBox="0 0 30 30" fill="none" xmlns="http://www.w3.org/2000/svg">
<path d="M10.756 2.9332H5.54105C4.10099 2.9332 2.93359 4.1006 2.93359 5.54066V10.7556M10.756 26.4003H5.54105C4.10099 26.4003 2.93359 25.2329 2.93359 23.7928V18.5779M18.5783 2.9332H23.7932C25.2333 2.9332 26.4007 4.1006 26.4007 5.54066V10.7556M26.4007 18.5779V23.7928C26.4007 25.2329 25.2333 26.4003 23.7932 26.4003H18.5783" stroke="#14723F" stroke-width="1.5" stroke-linecap="round"/>
<path d="M22.3949 10.4617C21.7873 10.0575 21.0428 9.94984 20.2417 10.1533C19.2608 10.4033 18.228 11.0903 17.1769 12.1998C17.0784 12.3029 16.9178 12.3075 16.8147 12.2089C16.7609 12.1578 16.7353 12.0894 16.7353 12.0219C16.7353 11.9589 16.7591 11.896 16.8056 11.8467C17.8704 10.7236 18.5109 9.63963 18.7088 8.62596C18.8722 7.79658 18.7253 7.04205 18.2837 6.44442C17.5173 5.4052 16.0182 5.03111 14.8667 5.5968C14.2061 5.92161 13.7335 6.51924 13.4999 7.32764C13.2125 8.3176 13.2846 9.57943 13.7098 11.0721C13.7171 11.0958 13.7189 11.1186 13.7189 11.1423C13.7189 11.2545 13.6468 11.3549 13.5346 11.3878C13.3996 11.4279 13.2563 11.3476 13.2189 11.2126C12.7937 9.72901 12.1961 8.62948 11.437 7.94534C10.8184 7.38696 10.1076 7.13239 9.38407 7.2072C8.09212 7.34224 7.00815 8.47817 6.91519 9.79287C6.86136 10.5356 7.1369 11.25 7.71172 11.8604C8.41518 12.6076 9.52466 13.1733 11.0119 13.5465C11.1287 13.5748 11.2053 13.6797 11.2053 13.7938C11.2053 13.8148 11.2026 13.8357 11.198 13.8567C11.1634 13.9945 11.0256 14.0766 10.8878 14.0438C9.40974 13.6752 8.17345 13.6487 7.21182 13.9735C6.42715 14.2372 5.85235 14.7326 5.55583 15.4078C5.02573 16.6085 5.47371 18.1705 6.55765 18.8951C7.16532 19.2993 7.90984 19.4069 8.71093 19.2035C9.69175 18.9535 10.7246 18.2664 11.7757 17.1569C11.8742 17.0538 12.0348 17.0493 12.1379 17.1478C12.1917 17.1989 12.2173 17.2673 12.2173 17.3349C12.2173 17.3978 12.1935 17.4608 12.147 17.51C11.0822 18.6332 10.4417 19.7171 10.2437 20.7308C10.0804 21.5602 10.2273 22.3147 10.6689 22.9123C11.4353 23.9516 12.9344 24.3256 14.0859 23.76C14.7465 23.4351 15.2191 22.8375 15.4527 22.0291C15.7401 21.0392 15.668 19.7773 15.2428 18.2847C15.2355 18.261 15.2337 18.2382 15.2337 18.2144C15.2337 18.1022 15.3058 18.0018 15.418 17.969C15.553 17.9288 15.6963 18.0091 15.7337 18.1442C16.1589 19.6277 16.7565 20.7273 17.5156 21.4114C18.1342 21.9698 18.845 22.2244 19.5685 22.1496C20.8605 22.0145 21.9444 20.8786 22.0374 19.5639C22.0912 18.8212 21.8157 18.1068 21.2409 17.4964C20.5374 16.7491 19.4279 16.1834 17.9407 15.8103C17.8239 15.782 17.7473 15.677 17.7473 15.563C17.7473 15.542 17.75 15.521 17.7546 15.5C17.7892 15.3623 17.927 15.2801 18.0648 15.313C19.5429 15.6816 20.7791 15.7081 21.7408 15.3832C22.5254 15.1196 23.1002 14.6241 23.3968 13.949C23.9269 12.7482 23.4789 11.1862 22.3949 10.4617ZM14.4772 16.5839C13.4398 16.5839 12.5968 15.729 12.5968 14.6779C12.5968 13.6268 13.4398 12.7719 14.4772 12.7719C15.5146 12.7719 16.3577 13.6268 16.3577 14.6779C16.3577 15.729 15.5146 16.5839 14.4772 16.5839Z" fill="#14723F"/>
</svg>
