<svg width="18" height="18" viewBox="0 0 18 18" fill="none" xmlns="http://www.w3.org/2000/svg">
<path d="M2.12839 2.12839H5.90092V1H1V5.90092H2.12839V2.12839Z" fill="#F22C00"/>
<path d="M12.0986 1V2.12839H15.8712V5.90092H16.9996V1H12.0986Z" fill="#F22C00"/>
<path d="M15.8712 15.8721H12.0986V17.0005H16.9996V12.0995H15.8712V15.8721Z" fill="#F22C00"/>
<path d="M2.12839 12.0995H1V17.0005H5.90092V15.8721H2.12839V12.0995Z" fill="#F22C00"/>
<path d="M14.6594 8.99998C14.6594 5.88428 12.1163 3.34119 9.00059 3.34119C5.88489 3.34119 3.3418 5.88428 3.3418 8.99998C3.3418 12.1157 5.88489 14.6588 9.00059 14.6588C12.1163 14.6588 14.6594 12.1157 14.6594 8.99998ZM6.32277 7.72002C6.32277 7.24845 6.71013 6.87793 7.16485 6.87793C7.63642 6.87793 8.00693 7.26529 8.00693 7.72002C8.00693 8.19158 7.61958 8.5621 7.16485 8.5621C6.69329 8.57894 6.32277 8.19158 6.32277 7.72002ZM11.1058 10.9705C11.0721 11.0041 10.3311 11.9136 9.00059 11.9136C7.65326 11.9136 6.91223 11.021 6.87854 10.9705C6.67644 10.7347 6.72697 10.381 6.96275 10.1789C7.19854 9.9768 7.55221 10.0273 7.75431 10.2631C7.77115 10.2799 8.20903 10.7852 9.00059 10.7852C9.79215 10.7852 10.23 10.2799 10.2469 10.2631C10.449 10.0273 10.8026 9.99364 11.0384 10.1957C11.2742 10.381 11.3079 10.7347 11.1058 10.9705ZM10.8363 8.57894C10.3648 8.57894 9.99425 8.19158 9.99425 7.73686C9.99425 7.26529 10.3816 6.89477 10.8363 6.89477C11.3079 6.89477 11.6784 7.28213 11.6784 7.73686C11.6784 8.19158 11.3079 8.57894 10.8363 8.57894Z" fill="#F22C00"/>
</svg>
