<svg width="380" height="124" viewBox="0 0 380 124" fill="none" xmlns="http://www.w3.org/2000/svg">
<mask id="mask0_4_2359" style="mask-type:alpha" maskUnits="userSpaceOnUse" x="0" y="0" width="380" height="179">
<rect width="380" height="179" rx="11.4399" fill="#FFEDC1"/>
</mask>
<g mask="url(#mask0_4_2359)">
<path d="M419.184 110.309V217.275H375.041L318.442 191.007L243.7 217.275H215V110.309C215 109.875 215 109.441 215.009 109.003C215.039 106.448 215.167 103.911 215.39 101.4C215.942 94.8963 217.121 88.5637 218.839 82.4766C219.856 78.8699 221.065 75.3596 222.468 71.9326C225.702 63.9347 229.922 56.4452 234.992 49.6174C235.619 48.7585 236.255 47.9214 236.921 47.0932C238.257 45.3972 239.647 43.7406 241.088 42.1279C242.254 40.8351 243.455 39.5598 244.682 38.3328C246.062 36.9435 247.482 35.5981 248.937 34.301C251.746 31.7767 254.687 29.4102 257.763 27.2146C258.101 26.9692 258.451 26.7282 258.802 26.4828C259.026 26.325 259.258 26.1629 259.481 26.0182C260.042 25.637 260.594 25.2557 261.169 24.892C277.217 14.3392 296.434 8.20819 317.088 8.20819C327.641 8.20819 337.812 9.80776 347.392 12.779C355.307 15.2288 362.805 18.6251 369.76 22.8235C370.343 23.1741 370.926 23.5334 371.5 23.9059C377.078 27.4162 382.285 31.4568 387.061 35.9663C387.815 36.6674 388.547 37.3774 389.279 38.1093C389.884 38.7228 390.489 39.3407 391.08 39.9674C391.133 40.02 391.198 40.0857 391.251 40.1471C391.334 40.2303 391.422 40.3267 391.496 40.4144C396.896 46.1422 401.615 52.4835 405.56 59.3376C406.725 61.3535 407.821 63.4 408.838 65.4904C411.13 70.1489 413.058 74.9959 414.618 80.0225C415.499 82.8535 416.253 85.7415 416.888 88.6689C418.391 95.6413 419.184 102.872 419.184 110.309Z" fill="#14723F"/>
<mask id="mask1_4_2359" style="mask-type:alpha" maskUnits="userSpaceOnUse" x="215" y="8" width="205" height="210">
<path d="M419.184 110.309V217.275H375.041L318.442 191.006L243.7 217.275H215V110.309C215 109.875 215 109.441 215.009 109.003C215.039 106.448 215.167 103.911 215.39 101.4C215.942 94.8962 217.121 88.5637 218.839 82.4765C219.856 78.8698 221.065 75.3595 222.468 71.9325C225.702 63.9346 229.922 56.4451 234.992 49.6174C235.619 48.7584 236.255 47.9214 236.921 47.0931C238.257 45.3971 239.647 43.7406 241.088 42.1278C242.254 40.835 243.455 39.5598 244.682 38.3327C246.062 36.9435 247.482 35.5981 248.937 34.3009C251.746 31.7766 254.687 29.4101 257.763 27.2146C258.101 26.9692 258.451 26.7281 258.802 26.4827C259.026 26.3249 259.258 26.1628 259.481 26.0182C260.042 25.6369 260.594 25.2556 261.169 24.8919C277.217 14.3391 296.434 8.20813 317.088 8.20813C327.641 8.20813 337.812 9.8077 347.392 12.779C355.307 15.2287 362.805 18.6251 369.76 22.8234C370.343 23.174 370.926 23.5334 371.5 23.9059C377.078 27.4162 382.285 31.4567 387.061 35.9662C387.815 36.6674 388.547 37.3773 389.279 38.1092C389.884 38.7227 390.489 39.3406 391.08 39.9673C391.133 40.0199 391.198 40.0857 391.251 40.147C391.334 40.2303 391.422 40.3267 391.496 40.4143C396.896 46.1421 401.615 52.4834 405.56 59.3375C406.725 61.3534 407.821 63.4 408.838 65.4904C411.13 70.1489 413.058 74.9958 414.618 80.0224C415.499 82.8534 416.253 85.7414 416.888 88.6689C418.391 95.6412 419.184 102.872 419.184 110.309Z" fill="#14723F"/>
</mask>
<g mask="url(#mask1_4_2359)">
<path opacity="0.4" d="M205.986 116.072C227.486 126.739 298.288 36.6717 338.288 37.0717C388.288 37.5717 379.989 207.208 403.739 166.072C523.828 -41.928 512.173 365.572 608.5 6.07202" stroke="#E7FFDC"/>
</g>
<path d="M397.79 171.509L389.621 171.904L375.036 172.592V217.279H300.571L278.904 208.343L277.182 161.763H245.865C245.865 161.763 246.65 154.212 248.538 143.607C248.613 143.247 248.674 142.875 248.749 142.502C248.876 141.77 249.012 141.03 249.161 140.263C249.227 139.912 249.297 139.562 249.362 139.202C249.809 136.941 250.287 134.579 250.826 132.151C250.848 132.068 250.87 131.98 250.879 131.884C252.627 124.044 254.889 115.581 257.75 107.702C258.088 106.746 258.451 105.804 258.811 104.871C259.446 103.249 260.104 101.667 260.796 100.12C264.723 91.316 269.556 83.936 275.464 80.0839C276.143 79.6369 276.844 79.2469 277.554 78.8963C280.035 77.6867 282.392 76.6349 284.627 75.7453C304.379 67.822 314.643 71.3103 314.643 71.3103L317.719 72.6689L320.966 74.1019L332.623 79.2469L335.231 80.4038H335.24L353.282 88.3578L369.891 95.6852C369.891 95.6852 393.723 118.162 396.427 132.787C397.233 137.112 397.68 142.257 397.899 147.371C398.048 150.478 398.11 153.577 398.11 156.46V156.469C398.162 164.888 397.79 171.509 397.79 171.509Z" fill="#FF4401"/>
<path d="M319.252 113.693L312.753 135.087H315.597L323.994 120.599L319.252 113.693Z" fill="#FFE5C8"/>
<path d="M318.893 107.601V120.419H343.986V108.144C343.986 108.14 318.621 107.329 318.893 107.601Z" fill="#FFE5C8"/>
<path d="M325.572 115.362V141.902C325.572 141.902 312.574 149.663 312.21 162.845C311.851 176.023 315.278 181.62 315.278 181.62H355.359C355.359 181.62 359.15 170.966 356.805 159.953C354.456 148.94 343.264 141.718 343.264 141.718V117.711L325.572 115.362Z" fill="#FFE5C8"/>
<path d="M322.504 109.043H314.379V114.998H322.504V109.043Z" fill="#FFE5C8"/>
<path d="M319.073 109.135V115.09H317.99L319.073 109.135Z" fill="#2C0000"/>
<path d="M360.149 89.4536L369.895 95.681C369.895 95.681 357.169 106.786 335.498 102.184C313.84 97.5829 314.646 71.3105 314.646 71.3105L333.337 77.0076L334.218 76.1487L343.084 67.5241L366.622 69.6671L375.86 70.5041L360.149 89.4536Z" fill="#FF8F68"/>
<path d="M364.615 78.3484C363.256 80.693 361.306 82.6344 359.246 84.3961C356.998 86.3244 354.526 88.108 351.682 88.9231C346.327 90.4613 340.196 88.0729 336.94 83.5547C335.38 81.3898 334.477 78.8042 334.214 76.1397L343.079 67.5151L366.617 69.6581C366.797 72.6776 366.131 75.7409 364.615 78.3484Z" fill="#2C0000"/>
<path d="M399.529 148.778C398.894 154.155 397.268 162.109 393.188 167.986C387.863 175.642 379.879 176.448 376.693 176.448C360.973 164.537 346.06 147.406 346.06 147.406C346.06 147.406 314.918 144.426 314.379 141.179C313.84 137.923 320.883 138.462 320.883 138.462C318.985 132.51 323.311 132.778 323.311 132.778C319.524 129.254 323.311 125.468 323.311 125.468H322.228C309.502 131.971 306.798 124.385 306.798 124.385C306.798 124.385 332.255 114.087 335.235 113.004C338.215 111.922 353.374 118.688 382.35 136.297C389.051 140.377 394.823 144.579 399.529 148.778Z" fill="#FFC672"/>
<path d="M331.712 123.846L322.777 125.875C322.777 125.875 320.34 127.773 322.505 132.374" stroke="#2C0000" stroke-width="0.932398" stroke-miterlimit="10"/>
<path d="M385.536 68.2733C390.203 63.5184 393.091 57.0149 393.091 49.8278C393.091 35.2695 381.29 23.4677 366.731 23.4677C356.871 23.4677 348.286 28.8843 343.763 36.8997L343.623 36.8296C343.623 36.8296 334.056 51.6334 334.595 64.4518C335.139 77.2703 338.206 80.8814 338.206 80.8814C338.206 80.8814 356.227 88.9187 370.347 76.2624C371.789 78.0942 376.53 83.1647 382.482 79.5711C389.011 75.6313 388.7 70.5828 385.536 68.2733Z" fill="#FF8F68"/>
<path d="M349.762 48.7322C348.903 50.2222 347.549 51.0505 346.738 50.5816C345.928 50.1127 345.971 48.5263 346.83 47.0363C347.689 45.5462 349.044 44.718 349.854 45.1869C350.665 45.6558 350.626 47.2422 349.762 48.7322Z" fill="#2C0000"/>
<path d="M367.76 59.0571C366.901 60.5471 365.547 61.3754 364.736 60.9065C363.926 60.4376 363.97 58.8512 364.828 57.3611C365.687 55.8711 367.042 55.0429 367.852 55.5118C368.663 55.9807 368.619 57.5671 367.76 59.0571Z" fill="#2C0000"/>
<path d="M358.159 49.4684L352.563 55.9675L349.767 55.6037L350.126 59.9379" stroke="#2C0000" stroke-width="1.06067" stroke-miterlimit="10" stroke-linecap="round" stroke-linejoin="round"/>
<path d="M347.238 63.0977C347.238 63.0977 347.598 65.9857 350.039 66.1654C352.475 66.3451 353.65 64.0881 353.65 64.0881" stroke="#2C0000" stroke-width="1.06067" stroke-miterlimit="10" stroke-linecap="round" stroke-linejoin="round"/>
<path d="M348.535 38.6176C349.241 38.2627 350.03 38.0786 350.818 38.0786C351.708 38.0786 352.611 38.324 353.325 38.8543C354.039 39.3846 354.552 40.2085 354.618 41.0937" stroke="#2C0000" stroke-width="1.06067" stroke-miterlimit="10" stroke-linecap="round" stroke-linejoin="round"/>
<path d="M369.186 50.5247C370.286 50.288 371.486 50.5816 372.358 51.2916C373.23 52.0059 373.748 53.1234 373.734 54.2497" stroke="#2C0000" stroke-width="1.06067" stroke-miterlimit="10" stroke-linecap="round" stroke-linejoin="round"/>
<path d="M375.482 74.9126C378.861 72.3665 383.599 71.7442 387.516 73.335" stroke="#2C0000" stroke-width="1.06067" stroke-miterlimit="10" stroke-linecap="round" stroke-linejoin="round"/>
<path d="M379.642 73.0853C380.395 73.1028 380.991 73.7426 381.329 74.4131C381.863 75.4781 381.969 76.7533 381.618 77.8928" stroke="#2C0000" stroke-width="1.06067" stroke-miterlimit="10" stroke-linecap="round" stroke-linejoin="round"/>
<path d="M389.051 40.6029C384.739 43.5128 381.342 47.7593 379.449 52.6062C377.556 57.4532 377.175 62.8742 378.371 67.9402C377.517 68.9788 376.43 69.8641 375.575 70.9027C375.575 70.9027 387.224 68.0629 387.903 72.1254C387.903 72.1254 408.079 60.2097 407.944 55.3365C407.808 50.4632 396.839 38.14 396.839 38.14L389.051 40.6029Z" fill="#2C0000"/>
<path d="M351.481 5.64014C351.481 5.64014 344.71 12.1392 348.097 18.91C351.481 25.6808 359.877 26.0884 359.877 26.0884C359.877 26.0884 358.795 33.8058 367.595 37.3248C376.395 40.8439 388.854 41.5232 388.854 41.5232L396.843 38.14C396.843 38.14 395.081 38.14 394.945 34.0775C394.809 30.015 392.509 15.5268 381.136 13.3619C369.76 11.1926 352.971 12.4109 351.481 5.64014Z" fill="#2C0000"/>
<path d="M276.091 127.992C276.766 123.15 275.815 118.097 273.426 113.833C270.587 108.762 265.937 105.015 261.725 101.014C258.237 97.701 254.963 94.1119 252.492 89.9837C250.02 85.8598 248.368 81.1575 248.315 76.35C248.267 72.0465 249.485 67.8175 251.107 63.8339C247.618 57.234 246.203 49.8585 247.053 42.4435C247.903 35.0284 251.041 27.8895 255.936 22.2494C262.168 24.7868 267.677 28.9895 271.327 34.6428C274.982 40.2917 276.853 47.08 276.608 53.8026C281.372 58.3778 283.778 65.0654 284.426 71.639C285.075 78.2125 284.067 84.8387 282.783 91.3159C280.412 103.254 277.598 115.91 276.091 127.992Z" fill="#13933B"/>
<path d="M275.385 138.111C275.35 136.143 273.158 135.512 271.3 134.864C269.447 134.211 267.422 134.312 265.459 134.347C260.077 134.443 254.498 133.93 249.787 131.327C245.076 128.728 241.426 123.619 241.908 118.259C238.914 118.184 236.11 116.738 233.577 115.143C231.017 113.53 228.406 111.869 226.547 109.485C225 107.496 224.054 105.094 223.493 102.64C222.007 96.1278 223.125 89.2781 225.084 82.8929C231.565 86.171 237.871 89.506 243.985 93.4282C248.797 96.5134 253.359 99.9799 257.619 103.788C262.501 108.153 267.019 113.018 270.319 118.675C273.627 124.324 275.67 131.568 275.385 138.111Z" fill="#13933B"/>
<path d="M225.093 82.8886C225.093 82.8886 246.137 93.8796 258.776 108.863C271.415 123.846 276.288 139.917 276.288 139.917C276.288 139.917 276.288 132.515 276.468 127.098C276.647 121.681 278.093 78.7121 271.415 55.9675C264.736 33.2185 255.936 22.2494 255.936 22.2494" stroke="#2C0000" stroke-width="1.06067" stroke-miterlimit="10" stroke-linecap="round" stroke-linejoin="round"/>
<path d="M278.019 129.798C279.977 117.238 283.08 104.542 290.11 93.9497C299.33 80.0532 315.243 70.8239 331.883 69.7239C333.71 75.2238 332.934 81.6308 330.112 86.6969C327.29 91.7585 322.281 95.5537 316.641 96.8947C317.197 99.7126 317.679 102.592 317.372 105.445C316.996 108.942 315.396 112.299 312.916 114.797C308.507 119.232 301.973 120.608 295.851 121.892C289.728 123.18 282.094 125.056 278.019 129.798Z" fill="#13933B"/>
<path d="M331.878 69.7239C331.878 69.7239 317.088 71.674 301.202 92.0741C285.315 112.474 280.258 121.861 278.816 128.544C277.37 135.223 277.37 140.101 277.37 140.101" stroke="#2C0000" stroke-width="1.06067" stroke-miterlimit="10" stroke-linecap="round" stroke-linejoin="round"/>
</g>
</svg>
