<svg width="18" height="18" viewBox="0 0 18 18" fill="none" xmlns="http://www.w3.org/2000/svg">
<path d="M8.54061 15.9999H8.54246V15.986C8.54246 15.974 8.54061 15.9573 8.54061 15.9453C8.51841 15.0963 8.3279 13.1393 7.10157 11.9121C5.8512 10.6618 3.83596 10.487 3.01465 10.4713C3.0313 11.2925 3.20609 13.3076 4.45554 14.5582C5.7087 15.8113 7.71929 15.9832 8.54061 15.9999Z" fill="#E49D81"/>
<path d="M13.2752 3.13729C13.2752 1.95904 12.3087 1 11.1203 1C10.3582 1 9.66738 1.39491 9.27339 2.05431C9.20125 2.17361 9.0727 2.24667 8.93397 2.24667C8.79525 2.24667 8.6667 2.17361 8.59548 2.05523C8.19964 1.39489 7.50973 1 6.74765 1C5.55924 1 4.59277 1.95906 4.59277 3.13729C4.59277 5.7601 8.04518 8.2257 8.93302 8.81665C9.82271 8.22567 13.2752 5.76009 13.2752 3.13729Z" fill="#E49D81"/>
<path d="M13.4209 14.558C14.6759 13.303 14.8488 11.2906 14.8637 10.4711C14.0424 10.4878 12.0254 10.6616 10.7758 11.912C9.53189 13.1559 9.35248 15.1397 9.33398 15.9729V15.9988C10.1571 15.9821 12.1713 15.8075 13.4209 14.558Z" fill="#E49D81"/>
<path d="M9.33083 9.50281C9.23464 9.5657 9.16158 9.61194 9.14216 9.62396C9.07927 9.6628 9.00806 9.6813 8.93592 9.6813C8.86378 9.6813 8.7935 9.6628 8.72968 9.62396C8.71026 9.61194 8.6372 9.56662 8.54102 9.50281V12.5788C8.70471 12.8951 8.83419 13.2188 8.93778 13.5388C9.04043 13.2225 9.16806 12.9025 9.32989 12.5899L9.33083 9.50281Z" fill="#E49D81"/>
</svg>
