<svg width="380" height="179" viewBox="0 0 380 179" fill="none" xmlns="http://www.w3.org/2000/svg">
<mask id="mask0_4_2297" style="mask-type:alpha" maskUnits="userSpaceOnUse" x="0" y="0" width="380" height="179">
<rect width="380" height="179" rx="11.4399" fill="#FFEDC1"/>
</mask>
<g mask="url(#mask0_4_2297)">
<g clip-path="url(#clip0_4_2297)">
<path d="M380 101.062V177.671L361.576 187.751L295.433 194.367H201.889V113.419L215.747 106.807C215.747 106.428 201.889 100.303 201.9 99.9242C201.928 97.6926 202.041 95.4844 202.233 93.2919C202.713 87.621 203.741 82.0986 205.238 76.7873C206.125 73.6411 207.18 70.581 208.404 67.5912C212.3 57.969 217.83 49.1871 224.65 41.5934C229.008 36.7471 233.886 32.3777 239.193 28.5867C253.775 18.136 271.639 12 290.942 12C315.533 12 337.795 21.9661 353.912 38.0798C360.842 45.0092 366.634 53.068 370.972 61.9593C371.972 63.9916 356.957 66.5789 357.797 68.6933C358.637 70.8077 375.334 72.4452 376.014 74.6378C378.605 82.9819 380 91.8537 380 101.062Z" fill="#A7A2EC"/>
<g opacity="0.5">
<path d="M370.973 61.9593C372.97 66.02 374.654 70.2488 376.014 74.6338L294.93 74.7081C301.609 68.8887 311.325 66.7978 319.798 69.3616C322.639 70.2214 325.387 71.5737 328.357 71.73C332.891 71.9723 337.026 69.4437 341.106 67.4661C350.329 62.9989 360.768 61.08 370.973 61.9593Z" fill="#FFE5C8"/>
<path d="M290.18 113.92C289.625 113.92 288.977 114.049 288.422 114.049H201.889V101.058C201.889 100.679 201.889 100.3 201.896 99.9204C208.013 96.9892 215.681 97.3683 221.391 101.077C222.888 102.05 224.295 103.25 226.026 103.723C228.719 104.474 231.521 103.317 234.147 102.371C253.036 95.6369 275.501 100.272 290.18 113.92Z" fill="#FFE5C8"/>
<path d="M328.818 37.0364H243.273C247.901 31.8267 254.994 28.9033 261.963 29.3371C268.783 29.7553 275.266 33.175 282.086 32.7881C286.444 32.538 290.544 30.7636 294.761 29.6889C306.427 26.7381 319.391 29.6146 328.818 37.0364Z" fill="#FFE5C8"/>
</g>
<path d="M350.981 87.3826C341.761 93.2216 328.923 92.6353 320.27 85.9874C316.913 83.404 314.22 80.0781 311.363 76.9476C308.51 73.817 305.372 70.796 301.487 69.0998C297.606 67.4036 292.822 67.2394 289.332 69.6391C292.349 65.5511 296.027 61.8656 300.818 60.1733C303.312 59.2939 305.927 58.8054 308.553 58.5201C311.191 58.2348 313.86 58.1527 316.498 58.4537C322.126 59.0946 327.453 61.4708 332.159 64.6287C340.452 70.2019 347.272 78.1083 350.981 87.3826Z" fill="#19CE5D"/>
<path d="M240.76 78.8742C239.072 75.2981 236.004 72.5545 232.705 70.3737C227.675 67.0478 221.68 64.7771 215.685 65.3985C210.244 65.9652 205.265 68.869 201.263 72.5975C197.257 76.3221 194.111 80.8557 191 85.3541C195.823 90.4935 202.377 94.1829 209.295 95.5351C211.647 95.9963 214.074 96.2034 216.447 95.8478C220.265 95.2772 223.736 93.2879 226.796 90.9351C229.856 88.5823 232.6 85.8426 235.632 83.4508C237.25 82.1806 238.716 79.0813 240.76 78.8742Z" fill="#19CE5D"/>
<path d="M252.97 80.2108C251.078 75.2903 246.052 72.4842 241.823 69.338C234.718 64.0579 229.035 56.7495 226.229 48.3545C223.423 39.9596 223.622 30.4938 227.308 22.4467C238.384 25.8351 247.764 34.3551 251.226 45.4077C253.614 53.0288 253.392 61.1854 253.091 69.1661C252.962 72.4803 253.114 76.9005 252.97 80.2108Z" fill="#19CE5D"/>
<path d="M270.749 74.9737C270.932 71.8784 269.779 68.8534 268.325 66.1137C266.872 63.374 265.097 60.7984 263.874 57.9493C262.44 54.6077 261.802 50.9691 261.599 47.3384C261.376 43.3676 261.67 39.3342 262.826 35.5276C263.839 32.2017 265.492 29.1024 267.419 26.2103C270.025 22.2981 273.148 18.7299 276.681 15.6306C280.222 18.9136 282.508 23.0993 284.4 27.5391C285.893 31.0409 287.257 34.6443 287.761 38.4197C288.664 45.1732 286.737 52.0595 283.568 58.0861C280.398 64.1204 275.083 69.7171 270.749 74.9737Z" fill="#19CE5D"/>
<path d="M263.858 104.098C271.155 83.0991 274.079 60.5914 272.394 38.4237" stroke="#2C0000" stroke-width="1.32349" stroke-miterlimit="10" stroke-linecap="round" stroke-linejoin="round"/>
<path d="M231.462 34.8829C234.792 47.405 243.363 57.7814 249.076 69.4085C253.856 79.1361 256.623 89.7236 258.757 100.35" stroke="#2C0000" stroke-width="1.32349" stroke-miterlimit="10" stroke-linecap="round" stroke-linejoin="round"/>
<path d="M196.976 82.9428C203.897 77.3969 211.448 71.6049 220.3 71.1085C225.963 70.792 231.611 72.7617 236.293 75.9665C243.922 81.188 249.143 89.7822 250.269 98.9588" stroke="#2C0000" stroke-width="1.32349" stroke-miterlimit="10" stroke-linecap="round" stroke-linejoin="round"/>
<path d="M271.053 99.4084C270.99 93.292 274.003 87.5937 277.294 82.4387C280.03 78.1553 283.067 73.9695 287.057 70.8194C295.354 64.2731 307.079 63.0498 317.19 66.1295C327.3 69.2053 335.903 76.1386 342.617 84.303" stroke="#2C0000" stroke-width="1.32349" stroke-miterlimit="10" stroke-linecap="round" stroke-linejoin="round"/>
<path d="M225.827 90.427L240.631 151.529H283.466L295.433 91.3728C295.433 91.3689 225.354 89.9541 225.827 90.427Z" fill="#FF6C37"/>
<path d="M331.354 134.766L324.596 138.823C324.596 138.823 306.122 117.195 306.575 111.34C306.575 111.34 305.45 108.862 307.701 107.061L313.106 112.016C313.106 112.016 312.657 108.862 316.033 108.413C316.033 108.413 316.26 104.356 320.09 104.133C320.09 104.133 319.641 100.303 323.017 98.2749C326.398 96.2465 330.001 97.5988 330.001 97.5988L334.957 106.158C334.957 106.158 333.269 111.676 331.467 111.454C331.467 111.454 333.155 114.721 331.131 116.972C329.103 119.223 327.977 118.547 327.977 118.547C327.977 118.547 328.88 121.701 325.949 122.604L332.257 128.009L331.354 134.766Z" fill="#FF9E7C"/>
<path opacity="0.5" d="M331.354 134.766L324.596 138.823C324.596 138.823 306.122 117.195 306.575 111.34C306.575 111.34 305.45 108.862 307.701 107.061L313.106 112.016C313.106 112.016 312.657 108.862 316.033 108.413C316.033 108.413 316.26 104.356 320.09 104.133C320.09 104.133 319.641 100.303 323.017 98.2749C326.398 96.2465 330.001 97.5988 330.001 97.5988L334.957 106.158C334.957 106.158 333.269 111.676 331.467 111.454C331.467 111.454 333.155 114.721 331.131 116.972C329.103 119.223 327.977 118.547 327.977 118.547C327.977 118.547 328.88 121.701 325.949 122.604L332.257 128.009L331.354 134.766Z" fill="#402A10"/>
<path d="M316.037 108.409C316.037 108.409 312.489 108.128 313.11 112.013C313.732 115.897 319.473 121.811 322.177 122.487C324.882 123.163 327.078 121.979 327.246 119.954" stroke="#402A10" stroke-width="1.32349" stroke-miterlimit="10" stroke-linecap="round" stroke-linejoin="round"/>
<path d="M320.09 104.13C320.09 104.13 315.361 104.919 316.822 109.425C318.288 113.931 325.608 118.887 327.973 118.547C330.337 118.211 331.576 115.506 330.114 112.353" stroke="#402A10" stroke-width="1.32349" stroke-miterlimit="10" stroke-linecap="round" stroke-linejoin="round"/>
<path d="M328.989 97.3722C328.989 97.3722 319.754 96.3599 320.54 103.567C321.329 110.778 332.706 114.041 333.042 111.227" stroke="#402A10" stroke-width="1.32349" stroke-miterlimit="10" stroke-linecap="round" stroke-linejoin="round"/>
<path d="M346.447 139.05L352.079 119.903C352.079 119.903 357.711 115.397 358.161 111.344C358.61 107.287 332.706 84.7601 332.706 84.7601L324.823 90.8413L334.687 105.751L325.949 122.604L332.257 128.009L332.143 129.135L331.354 134.766L324.596 138.823L311.531 146.933L302.519 175.541L355.233 189.732L359.739 161.124L346.447 139.05Z" fill="#FFE5C8"/>
<path d="M330.005 97.5989L338.224 90.052" stroke="#402A10" stroke-width="1.32349" stroke-miterlimit="10" stroke-linecap="round" stroke-linejoin="round"/>
<path d="M334.058 105.931C334.058 105.931 331.131 111.336 336.985 118.098C342.844 124.855 348.925 128.459 348.925 128.459C348.925 128.459 345.771 138.37 346.674 141.301C347.577 144.228 359.739 161.124 359.739 161.124L355.233 189.732L376.635 193.336C376.635 193.336 364.019 119.219 361.768 117.418C359.516 115.616 334.058 105.931 334.058 105.931Z" fill="#FF9E7C"/>
<path opacity="0.5" d="M334.058 105.931C334.058 105.931 331.131 111.336 336.985 118.098C342.844 124.855 348.925 128.459 348.925 128.459C348.925 128.459 345.771 138.37 346.674 141.301C347.577 144.228 359.739 161.124 359.739 161.124L355.233 189.732L376.635 193.336C376.635 193.336 364.019 119.219 361.768 117.418C359.516 115.616 334.058 105.931 334.058 105.931Z" fill="#402A10"/>
<path d="M334.059 105.931C334.059 105.931 331.807 107.96 334.621 114.041C337.439 120.122 348.926 128.459 348.926 128.459L351.517 130.034" stroke="#402A10" stroke-width="1.32349" stroke-miterlimit="10" stroke-linecap="round" stroke-linejoin="round"/>
<path d="M333.495 120.126L331.354 134.766L311.531 146.933L302.519 175.541" stroke="#402A10" stroke-width="1.32349" stroke-miterlimit="10" stroke-linecap="round" stroke-linejoin="round"/>
<path d="M377.483 188.224C377.483 188.224 376.31 188.013 376.064 191.53L294.921 194.368C287.046 190.389 278.795 185.781 271.495 180.821C248.346 165.075 235.117 147.746 233.229 145.229C231.341 142.712 230.556 138.929 230.556 138.929L230.048 138.143L228.984 136.506L228.828 136.256C228.828 136.256 232.287 133.731 236.543 137.041C236.774 137.225 237.016 137.412 237.266 137.623C241.061 140.805 246.009 146.616 246.955 147.718C247.048 147.84 247.095 147.902 247.095 147.902L253.673 150.779L252.774 150.02L252.766 150.013L247.095 145.229L238.908 125.539C238.908 125.539 238.915 125.539 238.935 125.531C239.259 125.477 241.925 125.011 244.782 126.153C244.864 126.18 244.95 126.219 245.032 126.254C246.837 127.032 248.706 128.466 250.085 131.058C253.868 138.143 256.385 141.614 258.124 142.872C259.586 143.935 266.48 146.694 271.041 146.464H271.123C271.921 146.417 272.632 146.28 273.242 146.018C277.33 144.287 279.847 139.875 280.003 136.885C280.159 134.192 283.731 126.024 288.8 124.746C289.363 124.605 289.957 124.55 290.559 124.597C290.559 124.597 284.259 154.046 287.089 160.033C288.429 162.875 295.562 166.677 304.187 170.277C307.029 171.481 310.046 172.653 313.071 173.763C320.156 176.374 327.281 178.641 332.452 180.036C338.439 181.646 347.542 183.377 356.007 184.827C364.48 186.289 372.32 187.466 375.712 187.966C376.846 188.13 377.483 188.224 377.483 188.224Z" fill="#FF9E7C"/>
<path opacity="0.5" d="M377.483 188.224C377.483 188.224 304.187 190.85 303.937 194.368H294.921C287.046 190.389 278.795 185.781 271.495 180.821C248.346 165.075 235.117 147.746 233.229 145.229C231.341 142.712 230.556 138.929 230.556 138.929L230.048 138.143L228.984 136.506L228.828 136.256C228.828 136.256 232.287 133.731 236.543 137.041C236.774 137.225 237.016 137.412 237.266 137.623C241.061 140.805 246.009 146.616 246.955 147.718C247.048 147.84 247.095 147.902 247.095 147.902L253.673 150.779L252.774 150.02L252.766 150.013L247.095 145.229L238.908 125.539C238.908 125.539 238.915 125.539 238.935 125.531C239.259 125.477 241.925 125.011 244.782 126.153C244.864 126.18 244.95 126.219 245.032 126.254C246.837 127.032 248.706 128.466 250.085 131.058C253.868 138.143 256.385 141.614 258.124 142.872C259.586 143.935 266.48 146.694 271.041 146.464H271.123C271.921 146.417 272.632 146.28 273.242 146.018C277.33 144.287 279.847 139.875 280.003 136.885C280.159 134.192 283.731 126.024 288.8 124.746C289.363 124.605 289.957 124.55 290.559 124.597C290.559 124.597 284.259 154.046 287.089 160.033C288.429 162.875 295.562 166.677 304.187 170.277C307.029 171.481 310.046 172.653 313.071 173.763C320.156 176.374 327.281 178.641 332.452 180.036C338.439 181.646 347.542 183.377 356.007 184.827C364.48 186.289 372.32 187.466 375.712 187.966C376.846 188.13 377.483 188.224 377.483 188.224Z" fill="#402A10"/>
<path d="M257.676 152.905L247.084 145.229L238.896 125.543C238.896 125.543 245.748 124.441 249.171 129.518C252.595 134.594 254.959 139.91 257.32 141.919C259.681 143.927 268.658 147.234 272.793 146.288" stroke="#402A10" stroke-width="0.925204" stroke-miterlimit="10" stroke-linecap="round" stroke-linejoin="round"/>
<path d="M249.644 159.404L228.738 136.728C228.738 136.728 231.572 133.578 236.535 137.045C241.495 140.508 247.088 147.91 247.088 147.91L254.49 150.665" stroke="#402A10" stroke-width="0.925204" stroke-miterlimit="10" stroke-linecap="round" stroke-linejoin="round"/>
<path d="M380 177.648V194.207L303.707 194.367L311.191 177.871L313.06 173.763L313.783 172.161L322.986 175.233C322.986 175.233 332.202 168.377 352.279 171.688C354.233 172.012 356.109 172.337 357.915 172.669C364.133 173.806 369.424 174.971 373.614 175.999C376.162 176.612 378.3 177.175 380 177.648Z" fill="#FF4401"/>
</g>
</g>
<defs>
<clipPath id="clip0_4_2297">
<rect width="225.928" height="167.208" fill="white" transform="translate(178 12.0392)"/>
</clipPath>
</defs>
</svg>
