<svg width="162" height="163" viewBox="0 0 162 163" fill="none" xmlns="http://www.w3.org/2000/svg">
<path d="M1.11426 126.981L1.11427 145.47C1.11427 154.11 8.11852 161.114 16.7587 161.114L35.2475 161.114" stroke="white" stroke-width="2.22857" stroke-linecap="round"/>
<path d="M160.403 126.981L160.403 145.47C160.403 154.11 153.399 161.114 144.759 161.114L126.27 161.114" stroke="white" stroke-width="2.22857" stroke-linecap="round"/>
<path d="M1.11426 35.2476L1.11427 16.7587C1.11427 8.11854 8.11852 1.11429 16.7587 1.11429L35.2475 1.11429" stroke="white" stroke-width="2.22857" stroke-linecap="round"/>
<path d="M160.403 35.2476L160.403 16.7587C160.403 8.11854 153.399 1.11429 144.759 1.11429L126.27 1.11429" stroke="white" stroke-width="2.22857" stroke-linecap="round"/>
<circle cx="83.1143" cy="67.1143" r="10" fill="white"/>
<circle cx="50.1143" cy="63.1143" r="6" fill="white"/>
<circle cx="97.1143" cy="105.114" r="4" fill="white"/>
<circle cx="31.6143" cy="123.614" r="7.5" fill="white"/>
<circle cx="29.6143" cy="89.6143" r="5.5" fill="white"/>
<circle cx="135.614" cy="89.6143" r="5.5" fill="white"/>
<circle cx="137.114" cy="30.1143" r="4" fill="white"/>
<circle cx="83.6143" cy="24.6143" r="6.5" fill="white"/>
<circle cx="37.1143" cy="26.1143" r="5" fill="white"/>
<circle cx="70.1143" cy="127.114" r="3" fill="white"/>
<circle cx="138.114" cy="138.114" r="3" fill="white"/>
<circle cx="107.114" cy="126.114" r="5" fill="white"/>
<circle cx="107.114" cy="80.1143" r="2" fill="white"/>
</svg>
