<svg width="33" height="33" viewBox="0 0 33 33" fill="none" xmlns="http://www.w3.org/2000/svg">
<circle cx="17" cy="16" r="15.5" fill="white" stroke="#DEDEDE"/>
<path d="M24.8351 11.7487C24.221 11.3402 23.4686 11.2314 22.659 11.437C21.6677 11.6897 20.6239 12.384 19.5617 13.5053C19.4621 13.6095 19.2998 13.6141 19.1956 13.5145C19.1412 13.4629 19.1154 13.3937 19.1154 13.3255C19.1154 13.2619 19.1393 13.1982 19.1864 13.1484C20.2625 12.0133 20.9098 10.9179 21.1099 9.89344C21.2749 9.05524 21.1264 8.29268 20.6802 7.6887C19.9056 6.63843 18.3906 6.26036 17.2269 6.83207C16.5593 7.16034 16.0816 7.76431 15.8455 8.58131C15.5551 9.58179 15.6279 10.857 16.0576 12.3656C16.065 12.3895 16.0669 12.4126 16.0669 12.4366C16.0669 12.55 15.994 12.6514 15.8806 12.6846C15.7441 12.7252 15.5993 12.644 15.5615 12.5076C15.1318 11.0082 14.5279 9.897 13.7607 9.20558C13.1355 8.64126 12.4172 8.38398 11.6859 8.45959C10.3802 8.59606 9.28475 9.74408 9.1908 11.0728C9.1364 11.8233 9.41487 12.5454 9.99581 13.1622C10.7067 13.9174 11.828 14.4892 13.3311 14.8663C13.4491 14.8949 13.5266 15.0009 13.5266 15.1162C13.5266 15.1374 13.5238 15.1586 13.5192 15.1798C13.4841 15.3191 13.3449 15.402 13.2057 15.3688C11.7119 14.9963 10.4624 14.9696 9.49059 15.2978C8.69758 15.5643 8.11666 16.065 7.81699 16.7474C7.28125 17.9609 7.734 19.5395 8.82946 20.2717C9.44359 20.6802 10.196 20.789 11.0056 20.5834C11.9969 20.3307 13.0407 19.6364 14.1029 18.5151C14.2025 18.4109 14.3648 18.4063 14.469 18.5059C14.5234 18.5575 14.5492 18.6267 14.5492 18.6949C14.5492 18.7586 14.5253 18.8222 14.4782 18.872C13.4022 20.0071 12.7548 21.1025 12.5548 22.127C12.3897 22.9652 12.5382 23.7277 12.9844 24.3317C13.759 25.382 15.274 25.7601 16.4377 25.1883C17.1053 24.8601 17.583 24.2561 17.8191 23.4391C18.1095 22.4386 18.0367 21.1634 17.607 19.6549C17.5996 19.6309 17.5978 19.6078 17.5978 19.5839C17.5978 19.4704 17.6706 19.369 17.784 19.3358C17.9205 19.2952 18.0653 19.3764 18.1031 19.5129C18.5328 21.0122 19.1367 22.1234 19.9039 22.8148C20.5291 23.3792 21.2474 23.6364 21.9787 23.5608C23.2844 23.4244 24.3799 22.2763 24.4738 20.9477C24.5282 20.1971 24.2497 19.4751 23.6688 18.8582C22.9579 18.103 21.8366 17.5313 20.3335 17.1541C20.2155 17.1255 20.1381 17.0195 20.1381 16.9042C20.1381 16.883 20.1408 16.8618 20.1454 16.8406C20.1805 16.7014 20.3197 16.6184 20.4589 16.6516C21.9527 17.0241 23.2022 17.0508 24.174 16.7226C24.967 16.4561 25.5479 15.9554 25.8476 15.273C26.3834 14.0596 25.9306 12.4809 24.8351 11.7487ZM16.8333 17.936C15.7848 17.936 14.9328 17.072 14.9328 16.0097C14.9328 14.9475 15.7848 14.0834 16.8333 14.0834C17.8817 14.0834 18.7337 14.9475 18.7337 16.0097C18.7337 17.072 17.8817 17.936 16.8333 17.936Z" fill="#17A308"/>
</svg>
