<svg width="56" height="64" viewBox="0 0 56 64" fill="none" xmlns="http://www.w3.org/2000/svg">
<mask id="mask0_4_2120" style="mask-type:alpha" maskUnits="userSpaceOnUse" x="0" y="0" width="56" height="64">
<path d="M40 24C48.84 24 56 16.84 56 8V0H40C31.16 0 24 7.16 24 16V20.16C21.57 18.74 18.81 18 16 18H0V26C0 34.84 7.16 42 16 42H24V64H32V54H40C48.84 54 56 46.84 56 38V30H40C37.19 30 34.43 30.74 32 32.16V24H40Z" fill="#2B4F1C"/>
</mask>
<g mask="url(#mask0_4_2120)">
<path d="M-4.46289 2.00019C-0.244942 -6.06091 11.7456 -19.1734 25.9609 -7.13555C40.1761 4.90186 53.2426 -3.01572 57.999 -8.4793V69.0002L-4.46289 68.0002V2.00019Z" fill="#17A308"/>
</g>
</svg>
