<svg width="28" height="28" viewBox="0 0 28 28" fill="none" xmlns="http://www.w3.org/2000/svg">
<path d="M11.0669 5.20001H7.15575C6.07573 5.20001 5.2002 6.07554 5.2002 7.15557V11.0667M11.0669 22.8H7.15575C6.07573 22.8 5.2002 21.9245 5.2002 20.8445V16.9333M16.9335 5.20001H20.8446C21.9247 5.20001 22.8002 6.07554 22.8002 7.15557V11.0667M22.8002 16.9333V20.8445C22.8002 21.9245 21.9247 22.8 20.8446 22.8H16.9335" stroke="#17A308" stroke-width="1.83333" stroke-linecap="round"/>
<path d="M19.7962 10.8462C19.3405 10.543 18.7821 10.4623 18.1813 10.6149C17.4457 10.8024 16.6711 11.3176 15.8828 12.1497C15.8089 12.2271 15.6884 12.2305 15.6111 12.1566C15.5708 12.1183 15.5516 12.0669 15.5516 12.0163C15.5516 11.9691 15.5694 11.9219 15.6043 11.8849C16.4028 11.0426 16.8832 10.2296 17.0317 9.46939C17.1542 8.84736 17.044 8.28147 16.7128 7.83326C16.138 7.05386 15.0137 6.77329 14.1501 7.19756C13.6547 7.44116 13.3003 7.88937 13.1251 8.49566C12.9095 9.23812 12.9636 10.1845 13.2825 11.3039C13.2879 11.3217 13.2893 11.3388 13.2893 11.3566C13.2893 11.4408 13.2353 11.5161 13.1511 11.5407C13.0498 11.5708 12.9424 11.5106 12.9143 11.4093C12.5954 10.2967 12.1472 9.47203 11.5779 8.95893C11.114 8.54015 10.5809 8.34923 10.0382 8.40533C9.0693 8.50661 8.25634 9.35855 8.18661 10.3446C8.14624 10.9016 8.3529 11.4374 8.78401 11.8952C9.31159 12.4556 10.1437 12.8798 11.2591 13.1597C11.3467 13.1809 11.4042 13.2596 11.4042 13.3452C11.4042 13.3609 11.4021 13.3767 11.3987 13.3924C11.3727 13.4957 11.2694 13.5573 11.166 13.5327C10.0575 13.2562 9.13029 13.2364 8.40909 13.48C7.8206 13.6777 7.3895 14.0493 7.16711 14.5557C6.76955 15.4562 7.10553 16.6277 7.91847 17.1711C8.37421 17.4742 8.93259 17.555 9.5334 17.4024C10.269 17.2149 11.0436 16.6996 11.8319 15.8675C11.9058 15.7902 12.0262 15.7868 12.1036 15.8607C12.1439 15.899 12.1631 15.9503 12.1631 16.0009C12.1631 16.0482 12.1453 16.0954 12.1104 16.1323C11.3118 16.9747 10.8315 17.7876 10.683 18.5479C10.5605 19.1699 10.6707 19.7358 11.0019 20.184C11.5767 20.9634 12.701 21.2439 13.5645 20.8197C14.06 20.5761 14.4144 20.1279 14.5896 19.5216C14.8052 18.7791 14.7511 17.8328 14.4322 16.7133C14.4268 16.6955 14.4254 16.6784 14.4254 16.6606C14.4254 16.5764 14.4794 16.5012 14.5636 16.4765C14.6649 16.4464 14.7723 16.5066 14.8004 16.6079C15.1193 17.7206 15.5675 18.5452 16.1368 19.0583C16.6007 19.4771 17.1338 19.668 17.6764 19.6119C18.6454 19.5106 19.4584 18.6587 19.5281 17.6727C19.5685 17.1157 19.3618 16.5799 18.9307 16.1221C18.4031 15.5617 17.571 15.1374 16.4556 14.8575C16.368 14.8363 16.3105 14.7576 16.3105 14.6721C16.3105 14.6563 16.3126 14.6406 16.316 14.6249C16.342 14.5215 16.4453 14.4599 16.5487 14.4846C17.6572 14.761 18.5844 14.7809 19.3056 14.5373C19.8941 14.3395 20.3252 13.9679 20.5476 13.4616C20.9451 12.561 20.6092 11.3896 19.7962 10.8462ZM13.8581 15.4377C13.08 15.4377 12.4477 14.7966 12.4477 14.0083C12.4477 13.22 13.08 12.5788 13.8581 12.5788C14.6361 12.5788 15.2684 13.22 15.2684 14.0083C15.2684 14.7966 14.6361 15.4377 13.8581 15.4377Z" fill="#17A308"/>
</svg>
