<svg width="18" height="18" viewBox="0 0 18 18" fill="none" xmlns="http://www.w3.org/2000/svg">
<path d="M8.99857 14.1641C6.42702 14.1641 4.33594 12.0722 4.33594 9.50149C4.33594 6.92994 6.42702 4.83886 8.99857 4.83886C11.5701 4.83886 13.6612 6.92994 13.6612 9.50149C13.6612 12.073 11.5701 14.1641 8.99857 14.1641Z" fill="black"/>
<path d="M8.99871 15.0527C9.2147 15.0527 9.39 15.228 9.39 15.444V17.6087C9.39 17.8247 9.2147 18 8.99871 18C8.78272 18 8.60742 17.8247 8.60742 17.6087V15.4432C8.60742 15.2272 8.78272 15.0527 8.99871 15.0527Z" fill="black"/>
<path d="M13.2013 13.3113C13.3014 13.3113 13.4016 13.3496 13.4783 13.4255L15.0098 14.957C15.1624 15.1097 15.1624 15.3577 15.0098 15.5103C14.8572 15.6629 14.6091 15.6629 14.4565 15.5103L12.925 13.9788C12.7724 13.8262 12.7724 13.5781 12.925 13.4255C13.0009 13.3496 13.1011 13.3113 13.2013 13.3113Z" fill="black"/>
<path d="M17.1066 9.89261H14.9411C14.7251 9.89261 14.5498 9.71731 14.5498 9.50132C14.5498 9.28533 14.7251 9.11003 14.9411 9.11003H17.1066C17.3226 9.11003 17.4979 9.28533 17.4979 9.50132C17.4979 9.71731 17.3234 9.89261 17.1066 9.89261Z" fill="black"/>
<path d="M13.4773 5.57567C13.3247 5.72828 13.0766 5.72828 12.924 5.57567C12.7714 5.42307 12.7714 5.17499 12.924 5.02238L14.4555 3.49087C14.5322 3.41417 14.6324 3.37661 14.7326 3.37661C14.8327 3.37661 14.9329 3.41496 15.0096 3.49087C15.1622 3.64347 15.1622 3.89155 15.0096 4.04415L13.4773 5.57567Z" fill="black"/>
<path d="M8.99871 3.95001C8.78272 3.95001 8.60742 3.77471 8.60742 3.55872V1.39322C8.60742 1.17723 8.78272 1.00194 8.99871 1.00194C9.2147 1.00194 9.39 1.17723 9.39 1.39322V3.55872C9.39 3.77471 9.2147 3.95001 8.99871 3.95001Z" fill="black"/>
<path d="M4.51921 5.57562L2.98848 4.0441C2.83587 3.8915 2.83587 3.64342 2.98848 3.49082C3.06517 3.41413 3.16534 3.37656 3.26551 3.37656C3.36568 3.37656 3.46585 3.41491 3.54254 3.49082L5.07328 5.02234C5.22588 5.17494 5.22588 5.42302 5.07328 5.57562C4.91989 5.72901 4.67259 5.72823 4.51921 5.57562Z" fill="black"/>
<path d="M3.4471 9.50132C3.4471 9.71731 3.2718 9.89261 3.05581 9.89261H0.890312C0.674323 9.89261 0.499023 9.71731 0.499023 9.50132C0.499023 9.28533 0.674323 9.11003 0.890312 9.11003H3.05581C3.27258 9.11003 3.4471 9.28533 3.4471 9.50132Z" fill="black"/>
<path d="M4.52019 13.4266C4.59688 13.3499 4.69705 13.3123 4.79722 13.3123C4.89739 13.3123 4.99756 13.3506 5.07426 13.4266C5.22686 13.5792 5.22686 13.8272 5.07426 13.9798L3.54274 15.5106C3.39013 15.6632 3.14205 15.6632 2.98945 15.5106C2.83685 15.358 2.83685 15.1099 2.98945 14.9573L4.52019 13.4266Z" fill="black"/>
</svg>
