<svg width="18" height="18" viewBox="0 0 18 18" fill="none" xmlns="http://www.w3.org/2000/svg">
<path d="M16.6456 7.8258C15.9414 7.07403 14.7103 7.13475 14.5174 7.14952H10.5853L10.5804 6.40103L11.0039 5.94389C11.3904 6.08259 11.7557 6.15153 12.0946 6.15153C12.5107 6.15153 12.8891 6.04894 13.2141 5.84047C13.9708 5.36364 14.4197 4.36729 14.4829 3.03769C14.4854 2.98106 14.5018 2.9113 14.5207 2.83826C14.5437 2.73731 14.5732 2.6216 14.5691 2.5067C14.5666 2.42052 14.4911 2.34666 14.4074 2.35322C14.2687 2.35732 14.1284 2.35979 13.9913 2.35979C12.9744 2.37046 12.0117 2.38112 11.1927 3.28884C11.178 3.30115 11.1656 3.31428 11.155 3.32906C10.5772 4.00122 10.6297 4.87939 10.674 5.65259L10.6781 5.72153C10.6806 5.75107 10.6904 5.77816 10.7077 5.80114L10.4237 6.10808L10.0921 5.74286C10.3523 5.37108 10.2711 4.40673 10.157 4.0768C10.006 3.64019 9.75154 3.27414 9.3814 2.96145C8.57874 2.28271 7.53232 2.32868 6.60993 2.37135H6.53032C6.44414 2.36889 6.37028 2.43865 6.37028 2.52483C6.36781 2.611 6.37274 2.69882 6.37848 2.78745C6.38505 2.85229 6.38915 2.91795 6.38915 2.98278C6.39572 4.06942 7.01946 5.50823 8.05357 6.03748C8.26367 6.14663 8.53452 6.23691 8.84801 6.23691C9.1443 6.23691 9.48078 6.15484 9.83944 5.92997L10.2637 6.40024L10.2646 6.40106L10.2695 7.15038H6.48028C6.19221 7.15038 5.95912 7.38347 5.95912 7.67154V8.20911C5.95912 8.46928 6.15281 8.68594 6.40641 8.72205V10.8001L2.91429 8.66545V8.66299C2.90772 8.34374 2.8158 7.34329 1.98113 7.0511C1.91219 7.02566 1.83422 7.05356 1.79401 7.11593L0.0229038 9.97775C-0.018953 10.0467 -0.0025375 10.1394 0.0647607 10.1879C0.0860987 10.2026 0.425886 10.4423 1.04798 10.4423C1.33769 10.4423 1.68896 10.3922 2.09604 10.2404L6.40568 13.8483V14.7576C6.40568 15.2558 6.81357 15.6629 7.31093 15.6629H13.7569C14.2567 15.6629 14.6621 15.255 14.6621 14.7576V13.6144C15.0421 13.3599 16.6852 12.1313 17.0758 9.70454C17.2063 8.90189 17.061 8.27158 16.6433 7.82593L16.6456 7.8258ZM12.3639 4.016C12.423 3.95281 12.5239 3.9487 12.5863 4.00779C12.6495 4.06689 12.6536 4.16783 12.5945 4.23021L11.2395 5.69026C11.1574 5.66482 11.0737 5.63527 10.9875 5.60162C10.9851 5.57043 10.9834 5.53678 10.981 5.50477L12.363 4.01519L12.3639 4.016ZM9.83611 5.5606L9.81478 5.5688C9.80657 5.57291 9.7959 5.57947 9.78769 5.58522C9.7327 5.62297 9.67854 5.65908 9.62355 5.69027L8.25542 4.17933C8.19879 4.1145 8.20289 4.01519 8.26773 3.95692C8.33092 3.89783 8.43187 3.90193 8.49015 3.96759L9.87059 5.49493C9.85992 5.52202 9.8476 5.54335 9.83447 5.55977L9.83611 5.5606ZM14.6643 12.2099V8.0915C15.0804 8.16536 15.5695 8.33114 15.8412 8.7054C16.0472 8.98938 16.1063 9.36937 16.0177 9.83143C15.81 10.9131 15.2109 11.6971 14.6643 12.2099Z" fill="black"/>
</svg>
