<svg width="18" height="18" viewBox="0 0 18 18" fill="none" xmlns="http://www.w3.org/2000/svg">
<path d="M16.4657 12.6283L10.8189 2.85079C10.5096 2.30932 9.95259 2 9.33394 2H9.31838C8.69973 2 8.15827 2.32488 7.8639 2.85079L2.23199 12.6283C1.92267 13.1698 1.92267 13.804 2.23199 14.3454C2.54131 14.8714 3.08278 15.1962 3.70203 15.1962H14.9807C15.5994 15.1962 16.1408 14.8869 16.4508 14.3454C16.7756 13.804 16.7756 13.1698 16.4657 12.6283ZM8.86959 5.29486C9.02455 5.10939 9.25609 5.04716 9.50379 5.04716C9.82867 5.04716 10.0453 5.17101 10.138 5.3876C10.2463 5.6042 10.3079 5.92908 10.3079 6.33114C10.3079 6.56328 10.2924 6.81098 10.2768 7.07364L10.0447 9.8121C10.0135 10.1525 9.96748 10.4002 9.87474 10.5546C9.782 10.7102 9.62763 10.8029 9.45711 10.8029C9.25608 10.8029 9.11667 10.7257 9.03949 10.5552C8.97787 10.3853 8.90009 10.122 8.86957 9.78159L8.6841 7.13595C8.65299 6.61004 8.63743 6.23849 8.63743 6.02191C8.62188 5.71259 8.71463 5.48094 8.86959 5.29486ZM10.0764 13.1854C9.90644 13.3248 9.70482 13.4175 9.48824 13.4175C9.2561 13.4175 9.07062 13.3403 8.90011 13.2009C8.73019 13.046 8.65241 12.8449 8.65241 12.5823C8.65241 12.3501 8.72959 12.1491 8.88455 11.9941C9.05447 11.8242 9.24054 11.762 9.47268 11.762C9.70482 11.762 9.90585 11.8392 10.0608 11.9941C10.2158 12.1491 10.3241 12.3657 10.3241 12.5823C10.3241 12.8605 10.2463 13.0615 10.0764 13.1854Z" fill="black"/>
</svg>
