<svg width="18" height="18" viewBox="0 0 18 18" fill="none" xmlns="http://www.w3.org/2000/svg">
<path d="M9 2C7.14339 2 5.36315 2.7374 4.04997 4.04997C2.73742 5.36311 2 7.14339 2 9C2 10.8566 2.7374 12.6368 4.04997 13.95C5.36311 15.2626 7.14339 16 9 16C10.8566 16 12.6368 15.2626 13.95 13.95C15.2626 12.6369 16 10.8566 16 9C16 7.14339 15.2626 5.36315 13.95 4.04997C12.6369 2.73742 10.8566 2 9 2ZM9.69982 12.5003H8.30017V8.30018H9.70041L9.69982 12.5003ZM9 6.89994C8.71661 6.89994 8.46186 6.72931 8.35327 6.468C8.24469 6.20609 8.30495 5.9054 8.50481 5.70494C8.70527 5.50448 9.00657 5.44482 9.26787 5.5534C9.52918 5.66138 9.69982 5.91673 9.69982 6.20012C9.70161 6.38627 9.62882 6.56524 9.49697 6.6971C9.36512 6.82835 9.18613 6.90173 9 6.89994Z" fill="black"/>
</svg>
