<svg width="23" height="27" viewBox="0 0 23 27" fill="none" xmlns="http://www.w3.org/2000/svg">
<path d="M22.2633 3.08485C21.8978 2.84171 21.4499 2.77695 20.9681 2.89935C20.3781 3.04973 19.7568 3.463 19.1245 4.13039C19.0653 4.19241 18.9687 4.19515 18.9066 4.13588C18.8743 4.10514 18.8589 4.06398 18.8589 4.02337C18.8589 3.9855 18.8732 3.94763 18.9011 3.91799C19.5416 3.24237 19.9269 2.59035 20.046 1.98059C20.1443 1.4817 20.0559 1.02782 19.7903 0.668324C19.3292 0.0431986 18.4275 -0.181831 17.7348 0.158453C17.3375 0.353837 17.0532 0.713328 16.9127 1.19961C16.7398 1.7951 16.7832 2.55414 17.0389 3.45201C17.0433 3.46628 17.0444 3.48 17.0444 3.49427C17.0444 3.56178 17.001 3.62215 16.9335 3.64191C16.8523 3.66606 16.7661 3.61776 16.7436 3.53653C16.4879 2.64412 16.1284 1.98271 15.6717 1.57118C15.2996 1.23529 14.8721 1.08216 14.4369 1.12716C13.6597 1.20839 13.0077 1.8917 12.9517 2.68253C12.9194 3.12929 13.0851 3.55903 13.4309 3.92621C13.854 4.3757 14.5214 4.71599 15.416 4.94047C15.4863 4.95748 15.5324 5.0206 15.5324 5.08921C15.5324 5.10183 15.5308 5.11445 15.528 5.12708C15.5072 5.20995 15.4243 5.25935 15.3414 5.23959C14.4523 5.01786 13.7086 5.00194 13.1302 5.19733C12.6582 5.35594 12.3124 5.65396 12.134 6.0601C11.8152 6.78237 12.0846 7.72197 12.7367 8.15781C13.1022 8.40095 13.5501 8.46571 14.0319 8.34331C14.6219 8.19293 15.2432 7.77966 15.8755 7.11227C15.9347 7.05025 16.0313 7.04751 16.0934 7.10678C16.1257 7.13752 16.1411 7.17868 16.1411 7.21929C16.1411 7.25716 16.1268 7.29503 16.0989 7.32467C15.4584 8.00029 15.0731 8.65231 14.954 9.26207C14.8557 9.76096 14.9441 10.2148 15.2097 10.5743C15.6708 11.1995 16.5725 11.4245 17.2652 11.0842C17.6625 10.8888 17.9468 10.5293 18.0873 10.0431C18.2602 9.44756 18.2168 8.68852 17.9611 7.79065C17.9567 7.77638 17.9556 7.76266 17.9556 7.74839C17.9556 7.68088 17.999 7.62051 18.0665 7.60075C18.1477 7.5766 18.2339 7.6249 18.2564 7.70612C18.5121 8.59854 18.8716 9.25995 19.3283 9.67148C19.7004 10.0074 20.1279 10.1605 20.5631 10.1155C21.3403 10.0343 21.9923 9.35097 22.0483 8.56013C22.0806 8.11337 21.9149 7.68363 21.5691 7.31645C21.146 6.86696 20.4786 6.52667 19.584 6.30219C19.5137 6.28518 19.4676 6.22206 19.4676 6.15346C19.4676 6.14083 19.4692 6.12821 19.472 6.11559C19.4928 6.03271 19.5757 5.98331 19.6586 6.00307C20.5477 6.2248 21.2914 6.24072 21.8698 6.04533C22.3418 5.88672 22.6876 5.5887 22.866 5.18256C23.1848 4.46029 22.9154 3.52069 22.2633 3.08485ZM17.5006 6.76758C16.8765 6.76758 16.3694 6.25331 16.3694 5.62104C16.3694 4.98878 16.8765 4.47451 17.5006 4.47451C18.1246 4.47451 18.6317 4.98878 18.6317 5.62104C18.6317 6.25331 18.1246 6.76758 17.5006 6.76758Z" fill="#A7A2EC"/>
<rect y="6.53308" width="4" height="16" rx="2" fill="#A7A2EC"/>
<rect x="12" y="12.5331" width="4" height="11" rx="2" fill="#A7A2EC"/>
<rect x="6" y="2.53308" width="4" height="24" rx="2" fill="#A7A2EC"/>
</svg>
