<svg width="28" height="28" viewBox="0 0 28 28" fill="none" xmlns="http://www.w3.org/2000/svg">
<path d="M6.89121 21.9628C7.04216 22.0012 7.19936 22.01 7.3538 21.9887C7.50824 21.9674 7.65688 21.9165 7.79119 21.8388C7.9255 21.7612 8.04284 21.6583 8.13649 21.5361C8.23014 21.4139 8.29824 21.2748 8.33691 21.1267C8.59098 20.1419 8.97647 19.1942 9.4834 18.3081C10.6852 19.1141 12.0887 19.5833 13.5426 19.6651C14.9965 19.7469 16.4456 19.4382 17.7336 18.7724C19.0216 18.1066 20.0997 17.1088 20.8516 15.8867C21.6034 14.6646 22.0005 13.2646 22 11.8377V6.90284C22 6.13296 21.6879 5.39461 21.1323 4.85022C20.5767 4.30583 19.8232 4 19.0375 4H14.0012C12.5024 4.00124 11.0341 4.41511 9.76362 5.19442C8.4932 5.97374 7.47179 7.08713 6.81586 8.40768C6.15992 9.72823 5.89585 11.2028 6.05374 12.6633C6.21162 14.1238 6.78513 15.5114 7.70886 16.668C6.95574 17.8709 6.39243 19.1784 6.038 20.5462C5.99882 20.6941 5.98983 20.8481 6.01153 20.9995C6.03323 21.1508 6.0852 21.2964 6.16447 21.428C6.24373 21.5596 6.34873 21.6746 6.47344 21.7664C6.59815 21.8581 6.74012 21.9249 6.89121 21.9628ZM14.0012 6.32227H19.0375C19.1946 6.32227 19.3453 6.38344 19.4565 6.49231C19.5676 6.60119 19.63 6.74886 19.63 6.90284V11.8377C19.63 13.3004 19.037 14.7033 17.9814 15.7376C16.9258 16.772 15.4941 17.3531 14.0012 17.3531C12.8625 17.3541 11.7505 17.0148 10.8136 16.3806C11.8715 15.1007 13.1438 14.0062 14.576 13.1439C14.8509 12.9946 15.0541 12.7443 15.1408 12.4482C15.2275 12.152 15.1905 11.8343 15.0381 11.5648C14.8857 11.2953 14.6303 11.0962 14.328 11.0113C14.0258 10.9264 13.7015 10.9626 13.4265 11.112C11.8191 12.0596 10.3835 13.2623 9.17826 14.6708C8.6671 13.8343 8.39141 12.8799 8.37928 11.9049C8.36715 10.9299 8.61901 9.96922 9.10921 9.12069C9.5994 8.27216 10.3104 7.56613 11.1698 7.07454C12.0291 6.58295 13.0061 6.32338 14.0012 6.32227Z" fill="#FFFEF0"/>
</svg>
