<svg width="36" height="36" viewBox="0 0 36 36" fill="none" xmlns="http://www.w3.org/2000/svg">
<path d="M27.7062 15.8828C27.1549 12.4247 23.8837 10.0581 20.4137 10.6118C18.2076 10.965 16.3872 12.4514 15.5518 14.4499C14.915 14.2429 14.2441 14.1105 13.539 14.1105C10.2304 14.1105 7.49121 16.5871 7.08097 19.834C4.75841 20.5926 3.14844 22.7608 3.14844 25.2736C3.14844 28.4308 5.72098 31.0002 8.88217 31.0002H21.0579C24.2191 31.0002 26.7917 28.4308 26.7917 25.2736C26.7917 23.9281 26.3045 22.7053 25.5236 21.7258C27.1934 20.3131 28.0587 18.1182 27.7062 15.8828ZM21.0579 28.8662H8.88217C6.89935 28.8662 5.2851 27.2539 5.2851 25.2736C5.2851 23.513 6.54253 22.0235 8.27429 21.7322C8.78816 21.6457 9.16421 21.1346 9.16421 20.614C9.16421 18.2047 11.1267 16.2446 13.539 16.2446C15.9513 16.2446 17.9224 18.2047 17.9224 20.614C17.9224 20.7505 17.9171 20.8807 17.9032 21.0119C17.8636 21.4014 18.041 21.7802 18.3647 22C18.6884 22.2198 19.1061 22.2454 19.4544 22.0672C19.9544 21.8111 20.4939 21.681 21.059 21.681C23.0418 21.681 24.6561 23.2932 24.6561 25.2736C24.6561 27.2539 23.0418 28.8662 21.0579 28.8662ZM23.8794 20.3184C23.0429 19.8414 22.0889 19.5459 21.0579 19.5459C20.6979 19.5459 20.339 19.5811 19.9864 19.6483C19.7289 17.9262 18.7771 16.4409 17.4416 15.4368C17.9587 14.0231 19.2193 12.9635 20.7503 12.7181C23.0557 12.3543 25.2287 13.9217 25.5951 16.2158C25.8473 17.8205 25.1657 19.3986 23.8783 20.3184H23.8794Z" fill="black"/>
<path d="M20.1143 9.84353C20.171 9.84353 20.2276 9.83926 20.2853 9.82966C20.8675 9.73683 21.2639 9.18839 21.1709 8.60687L20.7778 6.16022C20.6838 5.57764 20.1346 5.17964 19.5535 5.27567C18.9712 5.3685 18.5749 5.91694 18.6678 6.49846L19.061 8.94511C19.1454 9.46901 19.5983 9.84353 20.1143 9.84353Z" fill="black"/>
<path d="M31.8254 14.1392L29.3757 14.5318C28.7935 14.6246 28.3971 15.1731 28.4901 15.7546C28.5745 16.2796 29.0274 16.652 29.5435 16.652C29.6001 16.652 29.6567 16.6477 29.7144 16.6381L32.1641 16.2454C32.7463 16.1526 33.1427 15.6042 33.0497 15.0226C32.9568 14.4411 32.4066 14.0453 31.8254 14.1392Z" fill="black"/>
<path d="M27.1067 10.8574L28.5607 8.84925C28.9068 8.37229 28.8 7.70435 28.3214 7.35971C27.8439 7.01399 27.1761 7.12176 26.83 7.59871L25.376 9.60682C25.0299 10.0838 25.1367 10.7517 25.6153 11.0964C25.8044 11.2329 26.0234 11.2991 26.2403 11.2991C26.5715 11.2991 26.8984 11.1454 27.1067 10.8574Z" fill="black"/>
<path d="M28.7131 20.8401C28.2377 20.4954 27.5679 20.6021 27.2217 21.0791C26.8756 21.556 26.9824 22.2229 27.461 22.5686L29.4716 24.0208C29.6607 24.1574 29.8797 24.2235 30.0966 24.2235C30.4278 24.2235 30.7547 24.0699 30.963 23.7818C31.3091 23.3048 31.2023 22.638 30.7237 22.2922L28.7131 20.8401Z" fill="black"/>
<path d="M14.7548 13.1406C15.086 13.1406 15.4129 12.987 15.6212 12.6989C15.9673 12.2219 15.8605 11.554 15.3819 11.2093L13.3713 9.75714C12.8938 9.41143 12.2261 9.5192 11.8799 9.99615C11.5338 10.4731 11.6406 11.141 12.1192 11.4857L14.1298 12.9379C14.3189 13.0745 14.5379 13.1406 14.7548 13.1406Z" fill="black"/>
</svg>
